M48
; DRILL file {KiCad (5.1.7)-1} date 11/01/20 18:24:06
; FORMAT={-:-/ absolute / inch / decimal}
; #@! TF.CreationDate,2020-11-01T18:24:06+02:00
; #@! TF.GenerationSoftware,Kicad,Pcbnew,(5.1.7)-1
FMAT,2
INCH
T1C0.0157
T2C0.0315
T3C0.0394
T4C0.0433
T5C0.0472
%
G90
G05
T1
X5.6791Y-3.7303
X5.7087Y-3.7008
X5.7382Y-3.6713
X5.7677Y-3.3661
X5.7677Y-3.4055
X5.9055Y-4.3701
X5.9646Y-3.3661
X5.9646Y-3.4055
X5.9843Y-3.7402
X6.0138Y-3.7106
X6.0433Y-3.6811
X6.1614Y-3.3661
X6.1614Y-4.3701
X6.1909Y-3.3957
X6.2916Y-3.7325
X6.3189Y-3.6614
X6.3189Y-3.7008
X6.3583Y-3.3661
X6.3858Y-5.1496
X6.3878Y-3.3957
X6.4173Y-3.6614
X6.425Y-3.6932
X6.4545Y-3.7227
X6.4567Y-4.4685
X6.5551Y-3.3661
X6.5551Y-3.4055
X6.7323Y-3.6811
X6.7498Y-3.703
X6.7694Y-3.7227
X6.7815Y-3.3563
X6.811Y-3.3858
X6.8509Y-4.9498
X6.9094Y-4.9213
X6.9488Y-4.4488
X6.9882Y-4.2717
X7.0276Y-3.6614
X7.0472Y-4.4685
X7.0472Y-4.5866
X7.0472Y-4.7047
X7.0472Y-4.8228
X7.0472Y-4.9409
X7.0549Y-3.6932
X7.0844Y-3.7227
X7.2638Y-3.4252
X7.2638Y-3.4646
X7.2638Y-3.5039
X7.2638Y-3.5433
X7.2638Y-3.5827
T2
X5.012Y-3.2998
X5.075Y-3.175
X5.075Y-3.2734
X5.138Y-3.1486
T3
X5.4921Y-3.8386
X5.5906Y-3.937
X5.689Y-3.8386
X5.8071Y-3.8386
X5.9055Y-3.937
X6.0039Y-3.8386
X6.122Y-3.8386
X6.2205Y-3.937
X6.3189Y-3.8386
X6.437Y-3.8386
X6.5354Y-3.937
X6.6339Y-3.8386
X6.752Y-3.8386
X6.8504Y-3.937
X6.9488Y-3.8386
X7.0669Y-3.8386
X7.1654Y-3.937
X7.2638Y-3.8386
X5.5315Y-5.1969
X5.6315Y-5.1969
X5.65Y-4.8
X5.75Y-4.8
X5.85Y-4.8
X5.95Y-4.8
X6.05Y-4.8
X6.15Y-4.8
X5.8354Y-4.2047
X5.8354Y-5.2047
X5.9354Y-4.2047
X5.9354Y-5.2047
X6.0354Y-4.2047
X6.0354Y-5.2047
X6.1354Y-4.2047
X6.1354Y-5.2047
X6.2354Y-4.2047
X6.2354Y-5.2047
X6.3354Y-4.2047
X6.3354Y-5.2047
X6.4354Y-4.2047
X6.4354Y-5.2047
X6.5354Y-4.2047
X6.5354Y-5.2047
X6.6354Y-4.2047
X6.6354Y-5.2047
X6.7354Y-4.2047
X6.7354Y-5.2047
X6.8354Y-4.2047
X6.8354Y-5.2047
X6.9354Y-4.2047
X6.9354Y-5.2047
X7.0354Y-4.2047
X7.0354Y-5.2047
X7.1354Y-4.2047
X7.1354Y-5.2047
X7.2354Y-4.2047
X7.2354Y-5.2047
X5.0Y-4.7047
X5.0Y-4.8047
X5.0Y-4.9047
X5.0Y-5.0047
X5.0Y-5.1047
X5.0Y-5.2047
X4.975Y-4.05
X5.075Y-4.05
X5.175Y-4.05
X5.275Y-4.05
X5.65Y-4.94
X5.75Y-4.94
X5.85Y-4.94
X5.95Y-4.94
X6.05Y-4.94
X6.15Y-4.94
T4
X7.1654Y-3.6417
X7.1654Y-3.7417
X7.1654Y-3.8417
X6.2205Y-3.6417
X6.2205Y-3.7417
X6.2205Y-3.8417
X6.8504Y-3.6417
X6.8504Y-3.7417
X6.8504Y-3.8417
X5.9055Y-3.6417
X5.9055Y-3.7417
X5.9055Y-3.8417
X5.5906Y-3.6417
X5.5906Y-3.7417
X5.5906Y-3.8417
X6.5354Y-3.6417
X6.5354Y-3.7417
X6.5354Y-3.8417
T5
X5.5709Y-3.0709
X5.5709Y-3.2677
X5.7677Y-3.0709
X5.7677Y-3.2677
X5.9646Y-3.0709
X5.9646Y-3.2677
X6.1614Y-3.0709
X6.1614Y-3.2677
X6.3583Y-3.0709
X6.3583Y-3.2677
X6.5551Y-3.0709
X6.5551Y-3.2677
X6.752Y-3.0709
X6.752Y-3.2677
X6.9488Y-3.0709
X6.9488Y-3.2677
X7.1457Y-3.0709
X7.1457Y-3.2677
X7.3425Y-3.0709
X7.3425Y-3.2677
X5.0362Y-2.8346
X5.2362Y-2.8346
T0
M30
