%TF.GenerationSoftware,KiCad,Pcbnew,(5.1.7)-1*%
%TF.CreationDate,2020-11-01T18:23:12+02:00*%
%TF.ProjectId,esp32_mc_dimmer,65737033-325f-46d6-935f-64696d6d6572,rev?*%
%TF.SameCoordinates,Original*%
%TF.FileFunction,Legend,Top*%
%TF.FilePolarity,Positive*%
%FSLAX46Y46*%
G04 Gerber Fmt 4.6, Leading zero omitted, Abs format (unit mm)*
G04 Created by KiCad (PCBNEW (5.1.7)-1) date 2020-11-01 18:23:12*
%MOMM*%
%LPD*%
G01*
G04 APERTURE LIST*
%ADD10C,0.160000*%
%ADD11C,0.150000*%
%ADD12C,0.200000*%
%ADD13C,0.100000*%
%ADD14C,0.120000*%
G04 APERTURE END LIST*
D10*
X187105857Y-74002571D02*
X187105857Y-74688285D01*
X187105857Y-74345428D02*
X185905857Y-74345428D01*
X186077285Y-74459714D01*
X186191571Y-74574000D01*
X186248714Y-74688285D01*
X186020142Y-73545428D02*
X185963000Y-73488285D01*
X185905857Y-73374000D01*
X185905857Y-73088285D01*
X185963000Y-72974000D01*
X186020142Y-72916857D01*
X186134428Y-72859714D01*
X186248714Y-72859714D01*
X186420142Y-72916857D01*
X187105857Y-73602571D01*
X187105857Y-72859714D01*
X186648714Y-72345428D02*
X186648714Y-71431142D01*
X186020142Y-70916857D02*
X185963000Y-70859714D01*
X185905857Y-70745428D01*
X185905857Y-70459714D01*
X185963000Y-70345428D01*
X186020142Y-70288285D01*
X186134428Y-70231142D01*
X186248714Y-70231142D01*
X186420142Y-70288285D01*
X187105857Y-70974000D01*
X187105857Y-70231142D01*
X186305857Y-69202571D02*
X187105857Y-69202571D01*
X185848714Y-69488285D02*
X186705857Y-69774000D01*
X186705857Y-69031142D01*
X185905857Y-68745428D02*
X187105857Y-68345428D01*
X185905857Y-67945428D01*
X177072857Y-74002571D02*
X177072857Y-74688285D01*
X177072857Y-74345428D02*
X175872857Y-74345428D01*
X176044285Y-74459714D01*
X176158571Y-74574000D01*
X176215714Y-74688285D01*
X175987142Y-73545428D02*
X175930000Y-73488285D01*
X175872857Y-73374000D01*
X175872857Y-73088285D01*
X175930000Y-72974000D01*
X175987142Y-72916857D01*
X176101428Y-72859714D01*
X176215714Y-72859714D01*
X176387142Y-72916857D01*
X177072857Y-73602571D01*
X177072857Y-72859714D01*
X176615714Y-72345428D02*
X176615714Y-71431142D01*
X175987142Y-70916857D02*
X175930000Y-70859714D01*
X175872857Y-70745428D01*
X175872857Y-70459714D01*
X175930000Y-70345428D01*
X175987142Y-70288285D01*
X176101428Y-70231142D01*
X176215714Y-70231142D01*
X176387142Y-70288285D01*
X177072857Y-70974000D01*
X177072857Y-70231142D01*
X176272857Y-69202571D02*
X177072857Y-69202571D01*
X175815714Y-69488285D02*
X176672857Y-69774000D01*
X176672857Y-69031142D01*
X175872857Y-68745428D02*
X177072857Y-68345428D01*
X175872857Y-67945428D01*
X142020857Y-74002571D02*
X142020857Y-74688285D01*
X142020857Y-74345428D02*
X140820857Y-74345428D01*
X140992285Y-74459714D01*
X141106571Y-74574000D01*
X141163714Y-74688285D01*
X140935142Y-73545428D02*
X140878000Y-73488285D01*
X140820857Y-73374000D01*
X140820857Y-73088285D01*
X140878000Y-72974000D01*
X140935142Y-72916857D01*
X141049428Y-72859714D01*
X141163714Y-72859714D01*
X141335142Y-72916857D01*
X142020857Y-73602571D01*
X142020857Y-72859714D01*
X141563714Y-72345428D02*
X141563714Y-71431142D01*
X140935142Y-70916857D02*
X140878000Y-70859714D01*
X140820857Y-70745428D01*
X140820857Y-70459714D01*
X140878000Y-70345428D01*
X140935142Y-70288285D01*
X141049428Y-70231142D01*
X141163714Y-70231142D01*
X141335142Y-70288285D01*
X142020857Y-70974000D01*
X142020857Y-70231142D01*
X141220857Y-69202571D02*
X142020857Y-69202571D01*
X140763714Y-69488285D02*
X141620857Y-69774000D01*
X141620857Y-69031142D01*
X140820857Y-68745428D02*
X142020857Y-68345428D01*
X140820857Y-67945428D01*
D11*
X151582380Y-119546666D02*
X151106190Y-119880000D01*
X151582380Y-120118095D02*
X150582380Y-120118095D01*
X150582380Y-119737142D01*
X150630000Y-119641904D01*
X150677619Y-119594285D01*
X150772857Y-119546666D01*
X150915714Y-119546666D01*
X151010952Y-119594285D01*
X151058571Y-119641904D01*
X151106190Y-119737142D01*
X151106190Y-120118095D01*
X150582380Y-119213333D02*
X151582380Y-118546666D01*
X150582380Y-118546666D02*
X151582380Y-119213333D01*
X143010000Y-119633904D02*
X142962380Y-119729142D01*
X142962380Y-119872000D01*
X143010000Y-120014857D01*
X143105238Y-120110095D01*
X143200476Y-120157714D01*
X143390952Y-120205333D01*
X143533809Y-120205333D01*
X143724285Y-120157714D01*
X143819523Y-120110095D01*
X143914761Y-120014857D01*
X143962380Y-119872000D01*
X143962380Y-119776761D01*
X143914761Y-119633904D01*
X143867142Y-119586285D01*
X143533809Y-119586285D01*
X143533809Y-119776761D01*
X143962380Y-119157714D02*
X142962380Y-119157714D01*
X143962380Y-118586285D01*
X142962380Y-118586285D01*
X143962380Y-118110095D02*
X142962380Y-118110095D01*
X142962380Y-117872000D01*
X143010000Y-117729142D01*
X143105238Y-117633904D01*
X143200476Y-117586285D01*
X143390952Y-117538666D01*
X143533809Y-117538666D01*
X143724285Y-117586285D01*
X143819523Y-117633904D01*
X143914761Y-117729142D01*
X143962380Y-117872000D01*
X143962380Y-118110095D01*
X153122380Y-120141904D02*
X153122380Y-119570476D01*
X154122380Y-119856190D02*
X153122380Y-119856190D01*
X153122380Y-119332380D02*
X154122380Y-118665714D01*
X153122380Y-118665714D02*
X154122380Y-119332380D01*
X148042380Y-120094190D02*
X148042380Y-119475142D01*
X148423333Y-119808476D01*
X148423333Y-119665619D01*
X148470952Y-119570380D01*
X148518571Y-119522761D01*
X148613809Y-119475142D01*
X148851904Y-119475142D01*
X148947142Y-119522761D01*
X148994761Y-119570380D01*
X149042380Y-119665619D01*
X149042380Y-119951333D01*
X148994761Y-120046571D01*
X148947142Y-120094190D01*
X148947142Y-119046571D02*
X148994761Y-118998952D01*
X149042380Y-119046571D01*
X148994761Y-119094190D01*
X148947142Y-119046571D01*
X149042380Y-119046571D01*
X148042380Y-118665619D02*
X148042380Y-118046571D01*
X148423333Y-118379904D01*
X148423333Y-118237047D01*
X148470952Y-118141809D01*
X148518571Y-118094190D01*
X148613809Y-118046571D01*
X148851904Y-118046571D01*
X148947142Y-118094190D01*
X148994761Y-118141809D01*
X149042380Y-118237047D01*
X149042380Y-118522761D01*
X148994761Y-118618000D01*
X148947142Y-118665619D01*
X148042380Y-117760857D02*
X149042380Y-117427523D01*
X148042380Y-117094190D01*
D12*
X185500000Y-123642857D02*
X185500000Y-122928571D01*
X185928571Y-123785714D02*
X184428571Y-123285714D01*
X185928571Y-122785714D01*
X184928571Y-122285714D02*
X185928571Y-122285714D01*
X185071428Y-122285714D02*
X185000000Y-122214285D01*
X184928571Y-122071428D01*
X184928571Y-121857142D01*
X185000000Y-121714285D01*
X185142857Y-121642857D01*
X185928571Y-121642857D01*
X184928571Y-121142857D02*
X184928571Y-120571428D01*
X184428571Y-120928571D02*
X185714285Y-120928571D01*
X185857142Y-120857142D01*
X185928571Y-120714285D01*
X185928571Y-120571428D01*
X185857142Y-119500000D02*
X185928571Y-119642857D01*
X185928571Y-119928571D01*
X185857142Y-120071428D01*
X185714285Y-120142857D01*
X185142857Y-120142857D01*
X185000000Y-120071428D01*
X184928571Y-119928571D01*
X184928571Y-119642857D01*
X185000000Y-119500000D01*
X185142857Y-119428571D01*
X185285714Y-119428571D01*
X185428571Y-120142857D01*
X184928571Y-118785714D02*
X185928571Y-118785714D01*
X185071428Y-118785714D02*
X185000000Y-118714285D01*
X184928571Y-118571428D01*
X184928571Y-118357142D01*
X185000000Y-118214285D01*
X185142857Y-118142857D01*
X185928571Y-118142857D01*
X184928571Y-117428571D02*
X185928571Y-117428571D01*
X185071428Y-117428571D02*
X185000000Y-117357142D01*
X184928571Y-117214285D01*
X184928571Y-117000000D01*
X185000000Y-116857142D01*
X185142857Y-116785714D01*
X185928571Y-116785714D01*
X185928571Y-115428571D02*
X185142857Y-115428571D01*
X185000000Y-115500000D01*
X184928571Y-115642857D01*
X184928571Y-115928571D01*
X185000000Y-116071428D01*
X185857142Y-115428571D02*
X185928571Y-115571428D01*
X185928571Y-115928571D01*
X185857142Y-116071428D01*
X185714285Y-116142857D01*
X185571428Y-116142857D01*
X185428571Y-116071428D01*
X185357142Y-115928571D01*
X185357142Y-115571428D01*
X185285714Y-115428571D01*
D11*
X124585595Y-111227380D02*
X124585595Y-110227380D01*
X124823690Y-110227380D01*
X124966547Y-110275000D01*
X125061785Y-110370238D01*
X125109404Y-110465476D01*
X125157023Y-110655952D01*
X125157023Y-110798809D01*
X125109404Y-110989285D01*
X125061785Y-111084523D01*
X124966547Y-111179761D01*
X124823690Y-111227380D01*
X124585595Y-111227380D01*
X125728452Y-111227380D02*
X125633214Y-111179761D01*
X125585595Y-111132142D01*
X125537976Y-111036904D01*
X125537976Y-110751190D01*
X125585595Y-110655952D01*
X125633214Y-110608333D01*
X125728452Y-110560714D01*
X125871309Y-110560714D01*
X125966547Y-110608333D01*
X126014166Y-110655952D01*
X126061785Y-110751190D01*
X126061785Y-111036904D01*
X126014166Y-111132142D01*
X125966547Y-111179761D01*
X125871309Y-111227380D01*
X125728452Y-111227380D01*
X126490357Y-111227380D02*
X126490357Y-110560714D01*
X126490357Y-110227380D02*
X126442738Y-110275000D01*
X126490357Y-110322619D01*
X126537976Y-110275000D01*
X126490357Y-110227380D01*
X126490357Y-110322619D01*
X126823690Y-110560714D02*
X127204642Y-110560714D01*
X126966547Y-110227380D02*
X126966547Y-111084523D01*
X127014166Y-111179761D01*
X127109404Y-111227380D01*
X127204642Y-111227380D01*
X128299880Y-110703571D02*
X128633214Y-110703571D01*
X128776071Y-111227380D02*
X128299880Y-111227380D01*
X128299880Y-110227380D01*
X128776071Y-110227380D01*
X129157023Y-111179761D02*
X129299880Y-111227380D01*
X129537976Y-111227380D01*
X129633214Y-111179761D01*
X129680833Y-111132142D01*
X129728452Y-111036904D01*
X129728452Y-110941666D01*
X129680833Y-110846428D01*
X129633214Y-110798809D01*
X129537976Y-110751190D01*
X129347500Y-110703571D01*
X129252261Y-110655952D01*
X129204642Y-110608333D01*
X129157023Y-110513095D01*
X129157023Y-110417857D01*
X129204642Y-110322619D01*
X129252261Y-110275000D01*
X129347500Y-110227380D01*
X129585595Y-110227380D01*
X129728452Y-110275000D01*
X130157023Y-111227380D02*
X130157023Y-110227380D01*
X130537976Y-110227380D01*
X130633214Y-110275000D01*
X130680833Y-110322619D01*
X130728452Y-110417857D01*
X130728452Y-110560714D01*
X130680833Y-110655952D01*
X130633214Y-110703571D01*
X130537976Y-110751190D01*
X130157023Y-110751190D01*
X131061785Y-110227380D02*
X131680833Y-110227380D01*
X131347500Y-110608333D01*
X131490357Y-110608333D01*
X131585595Y-110655952D01*
X131633214Y-110703571D01*
X131680833Y-110798809D01*
X131680833Y-111036904D01*
X131633214Y-111132142D01*
X131585595Y-111179761D01*
X131490357Y-111227380D01*
X131204642Y-111227380D01*
X131109404Y-111179761D01*
X131061785Y-111132142D01*
X132061785Y-110322619D02*
X132109404Y-110275000D01*
X132204642Y-110227380D01*
X132442738Y-110227380D01*
X132537976Y-110275000D01*
X132585595Y-110322619D01*
X132633214Y-110417857D01*
X132633214Y-110513095D01*
X132585595Y-110655952D01*
X132014166Y-111227380D01*
X132633214Y-111227380D01*
X133823690Y-111227380D02*
X133823690Y-110227380D01*
X134061785Y-110227380D01*
X134204642Y-110275000D01*
X134299880Y-110370238D01*
X134347500Y-110465476D01*
X134395119Y-110655952D01*
X134395119Y-110798809D01*
X134347500Y-110989285D01*
X134299880Y-111084523D01*
X134204642Y-111179761D01*
X134061785Y-111227380D01*
X133823690Y-111227380D01*
X135204642Y-111179761D02*
X135109404Y-111227380D01*
X134918928Y-111227380D01*
X134823690Y-111179761D01*
X134776071Y-111084523D01*
X134776071Y-110703571D01*
X134823690Y-110608333D01*
X134918928Y-110560714D01*
X135109404Y-110560714D01*
X135204642Y-110608333D01*
X135252261Y-110703571D01*
X135252261Y-110798809D01*
X134776071Y-110894047D01*
X135585595Y-110560714D02*
X135823690Y-111227380D01*
X136061785Y-110560714D01*
X136442738Y-111227380D02*
X136442738Y-110227380D01*
X137014166Y-111227380D02*
X136585595Y-110655952D01*
X137014166Y-110227380D02*
X136442738Y-110798809D01*
X137442738Y-111227380D02*
X137442738Y-110560714D01*
X137442738Y-110227380D02*
X137395119Y-110275000D01*
X137442738Y-110322619D01*
X137490357Y-110275000D01*
X137442738Y-110227380D01*
X137442738Y-110322619D01*
X137776071Y-110560714D02*
X138157023Y-110560714D01*
X137918928Y-110227380D02*
X137918928Y-111084523D01*
X137966547Y-111179761D01*
X138061785Y-111227380D01*
X138157023Y-111227380D01*
X124776071Y-111877380D02*
X124966547Y-111877380D01*
X125061785Y-111925000D01*
X125157023Y-112020238D01*
X125204642Y-112210714D01*
X125204642Y-112544047D01*
X125157023Y-112734523D01*
X125061785Y-112829761D01*
X124966547Y-112877380D01*
X124776071Y-112877380D01*
X124680833Y-112829761D01*
X124585595Y-112734523D01*
X124537976Y-112544047D01*
X124537976Y-112210714D01*
X124585595Y-112020238D01*
X124680833Y-111925000D01*
X124776071Y-111877380D01*
X125633214Y-112877380D02*
X125633214Y-112210714D01*
X125633214Y-112401190D02*
X125680833Y-112305952D01*
X125728452Y-112258333D01*
X125823690Y-112210714D01*
X125918928Y-112210714D01*
X124585595Y-114003571D02*
X124918928Y-114003571D01*
X125061785Y-114527380D02*
X124585595Y-114527380D01*
X124585595Y-113527380D01*
X125061785Y-113527380D01*
X125442738Y-114479761D02*
X125585595Y-114527380D01*
X125823690Y-114527380D01*
X125918928Y-114479761D01*
X125966547Y-114432142D01*
X126014166Y-114336904D01*
X126014166Y-114241666D01*
X125966547Y-114146428D01*
X125918928Y-114098809D01*
X125823690Y-114051190D01*
X125633214Y-114003571D01*
X125537976Y-113955952D01*
X125490357Y-113908333D01*
X125442738Y-113813095D01*
X125442738Y-113717857D01*
X125490357Y-113622619D01*
X125537976Y-113575000D01*
X125633214Y-113527380D01*
X125871309Y-113527380D01*
X126014166Y-113575000D01*
X126442738Y-114527380D02*
X126442738Y-113527380D01*
X126823690Y-113527380D01*
X126918928Y-113575000D01*
X126966547Y-113622619D01*
X127014166Y-113717857D01*
X127014166Y-113860714D01*
X126966547Y-113955952D01*
X126918928Y-114003571D01*
X126823690Y-114051190D01*
X126442738Y-114051190D01*
X127347500Y-113527380D02*
X127966547Y-113527380D01*
X127633214Y-113908333D01*
X127776071Y-113908333D01*
X127871309Y-113955952D01*
X127918928Y-114003571D01*
X127966547Y-114098809D01*
X127966547Y-114336904D01*
X127918928Y-114432142D01*
X127871309Y-114479761D01*
X127776071Y-114527380D01*
X127490357Y-114527380D01*
X127395119Y-114479761D01*
X127347500Y-114432142D01*
X128347500Y-113622619D02*
X128395119Y-113575000D01*
X128490357Y-113527380D01*
X128728452Y-113527380D01*
X128823690Y-113575000D01*
X128871309Y-113622619D01*
X128918928Y-113717857D01*
X128918928Y-113813095D01*
X128871309Y-113955952D01*
X128299880Y-114527380D01*
X128918928Y-114527380D01*
X129347500Y-114146428D02*
X130109404Y-114146428D01*
X130490357Y-113527380D02*
X130728452Y-114527380D01*
X130918928Y-113813095D01*
X131109404Y-114527380D01*
X131347500Y-113527380D01*
X132299880Y-114527380D02*
X131966547Y-114051190D01*
X131728452Y-114527380D02*
X131728452Y-113527380D01*
X132109404Y-113527380D01*
X132204642Y-113575000D01*
X132252261Y-113622619D01*
X132299880Y-113717857D01*
X132299880Y-113860714D01*
X132252261Y-113955952D01*
X132204642Y-114003571D01*
X132109404Y-114051190D01*
X131728452Y-114051190D01*
X132918928Y-113527380D02*
X133109404Y-113527380D01*
X133204642Y-113575000D01*
X133299880Y-113670238D01*
X133347500Y-113860714D01*
X133347500Y-114194047D01*
X133299880Y-114384523D01*
X133204642Y-114479761D01*
X133109404Y-114527380D01*
X132918928Y-114527380D01*
X132823690Y-114479761D01*
X132728452Y-114384523D01*
X132680833Y-114194047D01*
X132680833Y-113860714D01*
X132728452Y-113670238D01*
X132823690Y-113575000D01*
X132918928Y-113527380D01*
X133966547Y-113527380D02*
X134157023Y-113527380D01*
X134252261Y-113575000D01*
X134347500Y-113670238D01*
X134395119Y-113860714D01*
X134395119Y-114194047D01*
X134347500Y-114384523D01*
X134252261Y-114479761D01*
X134157023Y-114527380D01*
X133966547Y-114527380D01*
X133871309Y-114479761D01*
X133776071Y-114384523D01*
X133728452Y-114194047D01*
X133728452Y-113860714D01*
X133776071Y-113670238D01*
X133871309Y-113575000D01*
X133966547Y-113527380D01*
X134823690Y-114527380D02*
X134823690Y-113527380D01*
X135157023Y-114241666D01*
X135490357Y-113527380D01*
X135490357Y-114527380D01*
X135966547Y-114146428D02*
X136728452Y-114146428D01*
X137109404Y-113527380D02*
X137728452Y-113527380D01*
X137395119Y-113908333D01*
X137537976Y-113908333D01*
X137633214Y-113955952D01*
X137680833Y-114003571D01*
X137728452Y-114098809D01*
X137728452Y-114336904D01*
X137680833Y-114432142D01*
X137633214Y-114479761D01*
X137537976Y-114527380D01*
X137252261Y-114527380D01*
X137157023Y-114479761D01*
X137109404Y-114432142D01*
X138109404Y-113622619D02*
X138157023Y-113575000D01*
X138252261Y-113527380D01*
X138490357Y-113527380D01*
X138585595Y-113575000D01*
X138633214Y-113622619D01*
X138680833Y-113717857D01*
X138680833Y-113813095D01*
X138633214Y-113955952D01*
X138061785Y-114527380D01*
X138680833Y-114527380D01*
X139109404Y-114527380D02*
X139109404Y-113527380D01*
X139347500Y-113527380D01*
X139490357Y-113575000D01*
X139585595Y-113670238D01*
X139633214Y-113765476D01*
X139680833Y-113955952D01*
X139680833Y-114098809D01*
X139633214Y-114289285D01*
X139585595Y-114384523D01*
X139490357Y-114479761D01*
X139347500Y-114527380D01*
X139109404Y-114527380D01*
X141299880Y-114527380D02*
X141299880Y-114003571D01*
X141252261Y-113908333D01*
X141157023Y-113860714D01*
X140966547Y-113860714D01*
X140871309Y-113908333D01*
X141299880Y-114479761D02*
X141204642Y-114527380D01*
X140966547Y-114527380D01*
X140871309Y-114479761D01*
X140823690Y-114384523D01*
X140823690Y-114289285D01*
X140871309Y-114194047D01*
X140966547Y-114146428D01*
X141204642Y-114146428D01*
X141299880Y-114098809D01*
X141776071Y-113860714D02*
X141776071Y-114527380D01*
X141776071Y-113955952D02*
X141823690Y-113908333D01*
X141918928Y-113860714D01*
X142061785Y-113860714D01*
X142157023Y-113908333D01*
X142204642Y-114003571D01*
X142204642Y-114527380D01*
X143109404Y-114527380D02*
X143109404Y-113527380D01*
X143109404Y-114479761D02*
X143014166Y-114527380D01*
X142823690Y-114527380D01*
X142728452Y-114479761D01*
X142680833Y-114432142D01*
X142633214Y-114336904D01*
X142633214Y-114051190D01*
X142680833Y-113955952D01*
X142728452Y-113908333D01*
X142823690Y-113860714D01*
X143014166Y-113860714D01*
X143109404Y-113908333D01*
X125157023Y-116082142D02*
X125109404Y-116129761D01*
X124966547Y-116177380D01*
X124871309Y-116177380D01*
X124728452Y-116129761D01*
X124633214Y-116034523D01*
X124585595Y-115939285D01*
X124537976Y-115748809D01*
X124537976Y-115605952D01*
X124585595Y-115415476D01*
X124633214Y-115320238D01*
X124728452Y-115225000D01*
X124871309Y-115177380D01*
X124966547Y-115177380D01*
X125109404Y-115225000D01*
X125157023Y-115272619D01*
X125537976Y-115272619D02*
X125585595Y-115225000D01*
X125680833Y-115177380D01*
X125918928Y-115177380D01*
X126014166Y-115225000D01*
X126061785Y-115272619D01*
X126109404Y-115367857D01*
X126109404Y-115463095D01*
X126061785Y-115605952D01*
X125490357Y-116177380D01*
X126109404Y-116177380D01*
X126585595Y-116129761D02*
X126585595Y-116177380D01*
X126537976Y-116272619D01*
X126490357Y-116320238D01*
X128347500Y-116082142D02*
X128299880Y-116129761D01*
X128157023Y-116177380D01*
X128061785Y-116177380D01*
X127918928Y-116129761D01*
X127823690Y-116034523D01*
X127776071Y-115939285D01*
X127728452Y-115748809D01*
X127728452Y-115605952D01*
X127776071Y-115415476D01*
X127823690Y-115320238D01*
X127918928Y-115225000D01*
X128061785Y-115177380D01*
X128157023Y-115177380D01*
X128299880Y-115225000D01*
X128347500Y-115272619D01*
X128680833Y-115177380D02*
X129299880Y-115177380D01*
X128966547Y-115558333D01*
X129109404Y-115558333D01*
X129204642Y-115605952D01*
X129252261Y-115653571D01*
X129299880Y-115748809D01*
X129299880Y-115986904D01*
X129252261Y-116082142D01*
X129204642Y-116129761D01*
X129109404Y-116177380D01*
X128823690Y-116177380D01*
X128728452Y-116129761D01*
X128680833Y-116082142D01*
X129776071Y-116129761D02*
X129776071Y-116177380D01*
X129728452Y-116272619D01*
X129680833Y-116320238D01*
X131537976Y-116082142D02*
X131490357Y-116129761D01*
X131347500Y-116177380D01*
X131252261Y-116177380D01*
X131109404Y-116129761D01*
X131014166Y-116034523D01*
X130966547Y-115939285D01*
X130918928Y-115748809D01*
X130918928Y-115605952D01*
X130966547Y-115415476D01*
X131014166Y-115320238D01*
X131109404Y-115225000D01*
X131252261Y-115177380D01*
X131347500Y-115177380D01*
X131490357Y-115225000D01*
X131537976Y-115272619D01*
X132395119Y-115510714D02*
X132395119Y-116177380D01*
X132157023Y-115129761D02*
X131918928Y-115844047D01*
X132537976Y-115844047D01*
X132966547Y-116129761D02*
X132966547Y-116177380D01*
X132918928Y-116272619D01*
X132871309Y-116320238D01*
X134728452Y-116177380D02*
X134395119Y-115701190D01*
X134157023Y-116177380D02*
X134157023Y-115177380D01*
X134537976Y-115177380D01*
X134633214Y-115225000D01*
X134680833Y-115272619D01*
X134728452Y-115367857D01*
X134728452Y-115510714D01*
X134680833Y-115605952D01*
X134633214Y-115653571D01*
X134537976Y-115701190D01*
X134157023Y-115701190D01*
X135061785Y-115177380D02*
X135680833Y-115177380D01*
X135347500Y-115558333D01*
X135490357Y-115558333D01*
X135585595Y-115605952D01*
X135633214Y-115653571D01*
X135680833Y-115748809D01*
X135680833Y-115986904D01*
X135633214Y-116082142D01*
X135585595Y-116129761D01*
X135490357Y-116177380D01*
X135204642Y-116177380D01*
X135109404Y-116129761D01*
X135061785Y-116082142D01*
X135581000Y-133683142D02*
X135533380Y-133778380D01*
X135533380Y-133921238D01*
X135581000Y-134064095D01*
X135676238Y-134159333D01*
X135771476Y-134206952D01*
X135961952Y-134254571D01*
X136104809Y-134254571D01*
X136295285Y-134206952D01*
X136390523Y-134159333D01*
X136485761Y-134064095D01*
X136533380Y-133921238D01*
X136533380Y-133826000D01*
X136485761Y-133683142D01*
X136438142Y-133635523D01*
X136104809Y-133635523D01*
X136104809Y-133826000D01*
X136533380Y-133206952D02*
X135533380Y-133206952D01*
X135533380Y-132826000D01*
X135581000Y-132730761D01*
X135628619Y-132683142D01*
X135723857Y-132635523D01*
X135866714Y-132635523D01*
X135961952Y-132683142D01*
X136009571Y-132730761D01*
X136057190Y-132826000D01*
X136057190Y-133206952D01*
X136533380Y-132206952D02*
X135533380Y-132206952D01*
X135533380Y-131540285D02*
X135533380Y-131349809D01*
X135581000Y-131254571D01*
X135676238Y-131159333D01*
X135866714Y-131111714D01*
X136200047Y-131111714D01*
X136390523Y-131159333D01*
X136485761Y-131254571D01*
X136533380Y-131349809D01*
X136533380Y-131540285D01*
X136485761Y-131635523D01*
X136390523Y-131730761D01*
X136200047Y-131778380D01*
X135866714Y-131778380D01*
X135676238Y-131730761D01*
X135581000Y-131635523D01*
X135533380Y-131540285D01*
X135533380Y-129730761D02*
X135533380Y-129635523D01*
X135581000Y-129540285D01*
X135628619Y-129492666D01*
X135723857Y-129445047D01*
X135914333Y-129397428D01*
X136152428Y-129397428D01*
X136342904Y-129445047D01*
X136438142Y-129492666D01*
X136485761Y-129540285D01*
X136533380Y-129635523D01*
X136533380Y-129730761D01*
X136485761Y-129826000D01*
X136438142Y-129873619D01*
X136342904Y-129921238D01*
X136152428Y-129968857D01*
X135914333Y-129968857D01*
X135723857Y-129921238D01*
X135628619Y-129873619D01*
X135581000Y-129826000D01*
X135533380Y-129730761D01*
X137659571Y-133183142D02*
X137707190Y-133040285D01*
X137754809Y-132992666D01*
X137850047Y-132945047D01*
X137992904Y-132945047D01*
X138088142Y-132992666D01*
X138135761Y-133040285D01*
X138183380Y-133135523D01*
X138183380Y-133516476D01*
X137183380Y-133516476D01*
X137183380Y-133183142D01*
X137231000Y-133087904D01*
X137278619Y-133040285D01*
X137373857Y-132992666D01*
X137469095Y-132992666D01*
X137564333Y-133040285D01*
X137611952Y-133087904D01*
X137659571Y-133183142D01*
X137659571Y-133516476D01*
X137183380Y-132326000D02*
X137183380Y-132135523D01*
X137231000Y-132040285D01*
X137326238Y-131945047D01*
X137516714Y-131897428D01*
X137850047Y-131897428D01*
X138040523Y-131945047D01*
X138135761Y-132040285D01*
X138183380Y-132135523D01*
X138183380Y-132326000D01*
X138135761Y-132421238D01*
X138040523Y-132516476D01*
X137850047Y-132564095D01*
X137516714Y-132564095D01*
X137326238Y-132516476D01*
X137231000Y-132421238D01*
X137183380Y-132326000D01*
X137183380Y-131278380D02*
X137183380Y-131087904D01*
X137231000Y-130992666D01*
X137326238Y-130897428D01*
X137516714Y-130849809D01*
X137850047Y-130849809D01*
X138040523Y-130897428D01*
X138135761Y-130992666D01*
X138183380Y-131087904D01*
X138183380Y-131278380D01*
X138135761Y-131373619D01*
X138040523Y-131468857D01*
X137850047Y-131516476D01*
X137516714Y-131516476D01*
X137326238Y-131468857D01*
X137231000Y-131373619D01*
X137183380Y-131278380D01*
X137183380Y-130564095D02*
X137183380Y-129992666D01*
X138183380Y-130278380D02*
X137183380Y-130278380D01*
X142962380Y-130000190D02*
X142962380Y-129381142D01*
X143343333Y-129714476D01*
X143343333Y-129571619D01*
X143390952Y-129476380D01*
X143438571Y-129428761D01*
X143533809Y-129381142D01*
X143771904Y-129381142D01*
X143867142Y-129428761D01*
X143914761Y-129476380D01*
X143962380Y-129571619D01*
X143962380Y-129857333D01*
X143914761Y-129952571D01*
X143867142Y-130000190D01*
X143867142Y-128952571D02*
X143914761Y-128904952D01*
X143962380Y-128952571D01*
X143914761Y-129000190D01*
X143867142Y-128952571D01*
X143962380Y-128952571D01*
X142962380Y-128571619D02*
X142962380Y-127952571D01*
X143343333Y-128285904D01*
X143343333Y-128143047D01*
X143390952Y-128047809D01*
X143438571Y-128000190D01*
X143533809Y-127952571D01*
X143771904Y-127952571D01*
X143867142Y-128000190D01*
X143914761Y-128047809D01*
X143962380Y-128143047D01*
X143962380Y-128428761D01*
X143914761Y-128524000D01*
X143867142Y-128571619D01*
X142962380Y-127666857D02*
X143962380Y-127333523D01*
X142962380Y-127000190D01*
X145550000Y-129285904D02*
X145502380Y-129381142D01*
X145502380Y-129524000D01*
X145550000Y-129666857D01*
X145645238Y-129762095D01*
X145740476Y-129809714D01*
X145930952Y-129857333D01*
X146073809Y-129857333D01*
X146264285Y-129809714D01*
X146359523Y-129762095D01*
X146454761Y-129666857D01*
X146502380Y-129524000D01*
X146502380Y-129428761D01*
X146454761Y-129285904D01*
X146407142Y-129238285D01*
X146073809Y-129238285D01*
X146073809Y-129428761D01*
X146502380Y-128809714D02*
X145502380Y-128809714D01*
X146502380Y-128238285D01*
X145502380Y-128238285D01*
X146502380Y-127762095D02*
X145502380Y-127762095D01*
X145502380Y-127524000D01*
X145550000Y-127381142D01*
X145645238Y-127285904D01*
X145740476Y-127238285D01*
X145930952Y-127190666D01*
X146073809Y-127190666D01*
X146264285Y-127238285D01*
X146359523Y-127285904D01*
X146454761Y-127381142D01*
X146502380Y-127524000D01*
X146502380Y-127762095D01*
X151582380Y-128182666D02*
X151106190Y-128516000D01*
X151582380Y-128754095D02*
X150582380Y-128754095D01*
X150582380Y-128373142D01*
X150630000Y-128277904D01*
X150677619Y-128230285D01*
X150772857Y-128182666D01*
X150915714Y-128182666D01*
X151010952Y-128230285D01*
X151058571Y-128277904D01*
X151106190Y-128373142D01*
X151106190Y-128754095D01*
X150582380Y-127849333D02*
X151582380Y-127182666D01*
X150582380Y-127182666D02*
X151582380Y-127849333D01*
X153122380Y-128777904D02*
X153122380Y-128206476D01*
X154122380Y-128492190D02*
X153122380Y-128492190D01*
X153122380Y-127968380D02*
X154122380Y-127301714D01*
X153122380Y-127301714D02*
X154122380Y-127968380D01*
D12*
X138904761Y-122023809D02*
X140523809Y-122023809D01*
X140714285Y-121928571D01*
X140809523Y-121833333D01*
X140904761Y-121642857D01*
X140904761Y-121261904D01*
X140809523Y-121071428D01*
X140714285Y-120976190D01*
X140523809Y-120880952D01*
X138904761Y-120880952D01*
X140809523Y-120023809D02*
X140904761Y-119738095D01*
X140904761Y-119261904D01*
X140809523Y-119071428D01*
X140714285Y-118976190D01*
X140523809Y-118880952D01*
X140333333Y-118880952D01*
X140142857Y-118976190D01*
X140047619Y-119071428D01*
X139952380Y-119261904D01*
X139857142Y-119642857D01*
X139761904Y-119833333D01*
X139666666Y-119928571D01*
X139476190Y-120023809D01*
X139285714Y-120023809D01*
X139095238Y-119928571D01*
X139000000Y-119833333D01*
X138904761Y-119642857D01*
X138904761Y-119166666D01*
X139000000Y-118880952D01*
X139857142Y-117357142D02*
X139952380Y-117071428D01*
X140047619Y-116976190D01*
X140238095Y-116880952D01*
X140523809Y-116880952D01*
X140714285Y-116976190D01*
X140809523Y-117071428D01*
X140904761Y-117261904D01*
X140904761Y-118023809D01*
X138904761Y-118023809D01*
X138904761Y-117357142D01*
X139000000Y-117166666D01*
X139095238Y-117071428D01*
X139285714Y-116976190D01*
X139476190Y-116976190D01*
X139666666Y-117071428D01*
X139761904Y-117166666D01*
X139857142Y-117357142D01*
X139857142Y-118023809D01*
D11*
X128547619Y-99075952D02*
X128547619Y-98504523D01*
X128547619Y-98790238D02*
X129547619Y-98790238D01*
X129404761Y-98695000D01*
X129309523Y-98599761D01*
X129261904Y-98504523D01*
X129452380Y-99456904D02*
X129500000Y-99504523D01*
X129547619Y-99599761D01*
X129547619Y-99837857D01*
X129500000Y-99933095D01*
X129452380Y-99980714D01*
X129357142Y-100028333D01*
X129261904Y-100028333D01*
X129119047Y-99980714D01*
X128547619Y-99409285D01*
X128547619Y-100028333D01*
X129547619Y-100314047D02*
X128547619Y-100647380D01*
X129547619Y-100980714D01*
X132000000Y-98933095D02*
X132047619Y-98837857D01*
X132047619Y-98695000D01*
X132000000Y-98552142D01*
X131904761Y-98456904D01*
X131809523Y-98409285D01*
X131619047Y-98361666D01*
X131476190Y-98361666D01*
X131285714Y-98409285D01*
X131190476Y-98456904D01*
X131095238Y-98552142D01*
X131047619Y-98695000D01*
X131047619Y-98790238D01*
X131095238Y-98933095D01*
X131142857Y-98980714D01*
X131476190Y-98980714D01*
X131476190Y-98790238D01*
X131047619Y-99409285D02*
X132047619Y-99409285D01*
X131047619Y-99980714D01*
X132047619Y-99980714D01*
X131047619Y-100456904D02*
X132047619Y-100456904D01*
X132047619Y-100695000D01*
X132000000Y-100837857D01*
X131904761Y-100933095D01*
X131809523Y-100980714D01*
X131619047Y-101028333D01*
X131476190Y-101028333D01*
X131285714Y-100980714D01*
X131190476Y-100933095D01*
X131095238Y-100837857D01*
X131047619Y-100695000D01*
X131047619Y-100456904D01*
X134532619Y-98218809D02*
X134532619Y-98837857D01*
X134151666Y-98504523D01*
X134151666Y-98647380D01*
X134104047Y-98742619D01*
X134056428Y-98790238D01*
X133961190Y-98837857D01*
X133723095Y-98837857D01*
X133627857Y-98790238D01*
X133580238Y-98742619D01*
X133532619Y-98647380D01*
X133532619Y-98361666D01*
X133580238Y-98266428D01*
X133627857Y-98218809D01*
X133627857Y-99266428D02*
X133580238Y-99314047D01*
X133532619Y-99266428D01*
X133580238Y-99218809D01*
X133627857Y-99266428D01*
X133532619Y-99266428D01*
X134532619Y-99647380D02*
X134532619Y-100266428D01*
X134151666Y-99933095D01*
X134151666Y-100075952D01*
X134104047Y-100171190D01*
X134056428Y-100218809D01*
X133961190Y-100266428D01*
X133723095Y-100266428D01*
X133627857Y-100218809D01*
X133580238Y-100171190D01*
X133532619Y-100075952D01*
X133532619Y-99790238D01*
X133580238Y-99695000D01*
X133627857Y-99647380D01*
X134532619Y-100552142D02*
X133532619Y-100885476D01*
X134532619Y-101218809D01*
X129333809Y-131532380D02*
X129952857Y-131532380D01*
X129619523Y-131913333D01*
X129762380Y-131913333D01*
X129857619Y-131960952D01*
X129905238Y-132008571D01*
X129952857Y-132103809D01*
X129952857Y-132341904D01*
X129905238Y-132437142D01*
X129857619Y-132484761D01*
X129762380Y-132532380D01*
X129476666Y-132532380D01*
X129381428Y-132484761D01*
X129333809Y-132437142D01*
X130381428Y-132437142D02*
X130429047Y-132484761D01*
X130381428Y-132532380D01*
X130333809Y-132484761D01*
X130381428Y-132437142D01*
X130381428Y-132532380D01*
X130762380Y-131532380D02*
X131381428Y-131532380D01*
X131048095Y-131913333D01*
X131190952Y-131913333D01*
X131286190Y-131960952D01*
X131333809Y-132008571D01*
X131381428Y-132103809D01*
X131381428Y-132341904D01*
X131333809Y-132437142D01*
X131286190Y-132484761D01*
X131190952Y-132532380D01*
X130905238Y-132532380D01*
X130810000Y-132484761D01*
X130762380Y-132437142D01*
X131667142Y-131532380D02*
X132000476Y-132532380D01*
X132333809Y-131532380D01*
X129794095Y-129040000D02*
X129698857Y-128992380D01*
X129556000Y-128992380D01*
X129413142Y-129040000D01*
X129317904Y-129135238D01*
X129270285Y-129230476D01*
X129222666Y-129420952D01*
X129222666Y-129563809D01*
X129270285Y-129754285D01*
X129317904Y-129849523D01*
X129413142Y-129944761D01*
X129556000Y-129992380D01*
X129651238Y-129992380D01*
X129794095Y-129944761D01*
X129841714Y-129897142D01*
X129841714Y-129563809D01*
X129651238Y-129563809D01*
X130270285Y-129992380D02*
X130270285Y-128992380D01*
X130841714Y-129992380D01*
X130841714Y-128992380D01*
X131317904Y-129992380D02*
X131317904Y-128992380D01*
X131556000Y-128992380D01*
X131698857Y-129040000D01*
X131794095Y-129135238D01*
X131841714Y-129230476D01*
X131889333Y-129420952D01*
X131889333Y-129563809D01*
X131841714Y-129754285D01*
X131794095Y-129849523D01*
X131698857Y-129944761D01*
X131556000Y-129992380D01*
X131317904Y-129992380D01*
X129912666Y-126500000D02*
X129817428Y-126452380D01*
X129674571Y-126452380D01*
X129531714Y-126500000D01*
X129436476Y-126595238D01*
X129388857Y-126690476D01*
X129341238Y-126880952D01*
X129341238Y-127023809D01*
X129388857Y-127214285D01*
X129436476Y-127309523D01*
X129531714Y-127404761D01*
X129674571Y-127452380D01*
X129769809Y-127452380D01*
X129912666Y-127404761D01*
X129960285Y-127357142D01*
X129960285Y-127023809D01*
X129769809Y-127023809D01*
X130388857Y-127452380D02*
X130388857Y-126452380D01*
X130769809Y-126452380D01*
X130865047Y-126500000D01*
X130912666Y-126547619D01*
X130960285Y-126642857D01*
X130960285Y-126785714D01*
X130912666Y-126880952D01*
X130865047Y-126928571D01*
X130769809Y-126976190D01*
X130388857Y-126976190D01*
X131388857Y-127452380D02*
X131388857Y-126452380D01*
X132055523Y-126452380D02*
X132246000Y-126452380D01*
X132341238Y-126500000D01*
X132436476Y-126595238D01*
X132484095Y-126785714D01*
X132484095Y-127119047D01*
X132436476Y-127309523D01*
X132341238Y-127404761D01*
X132246000Y-127452380D01*
X132055523Y-127452380D01*
X131960285Y-127404761D01*
X131865047Y-127309523D01*
X131817428Y-127119047D01*
X131817428Y-126785714D01*
X131865047Y-126595238D01*
X131960285Y-126500000D01*
X132055523Y-126452380D01*
X134198380Y-127452380D02*
X133626952Y-127452380D01*
X133912666Y-127452380D02*
X133912666Y-126452380D01*
X133817428Y-126595238D01*
X133722190Y-126690476D01*
X133626952Y-126738095D01*
X134674571Y-127452380D02*
X134865047Y-127452380D01*
X134960285Y-127404761D01*
X135007904Y-127357142D01*
X135103142Y-127214285D01*
X135150761Y-127023809D01*
X135150761Y-126642857D01*
X135103142Y-126547619D01*
X135055523Y-126500000D01*
X134960285Y-126452380D01*
X134769809Y-126452380D01*
X134674571Y-126500000D01*
X134626952Y-126547619D01*
X134579333Y-126642857D01*
X134579333Y-126880952D01*
X134626952Y-126976190D01*
X134674571Y-127023809D01*
X134769809Y-127071428D01*
X134960285Y-127071428D01*
X135055523Y-127023809D01*
X135103142Y-126976190D01*
X135150761Y-126880952D01*
X129912666Y-124000000D02*
X129817428Y-123952380D01*
X129674571Y-123952380D01*
X129531714Y-124000000D01*
X129436476Y-124095238D01*
X129388857Y-124190476D01*
X129341238Y-124380952D01*
X129341238Y-124523809D01*
X129388857Y-124714285D01*
X129436476Y-124809523D01*
X129531714Y-124904761D01*
X129674571Y-124952380D01*
X129769809Y-124952380D01*
X129912666Y-124904761D01*
X129960285Y-124857142D01*
X129960285Y-124523809D01*
X129769809Y-124523809D01*
X130388857Y-124952380D02*
X130388857Y-123952380D01*
X130769809Y-123952380D01*
X130865047Y-124000000D01*
X130912666Y-124047619D01*
X130960285Y-124142857D01*
X130960285Y-124285714D01*
X130912666Y-124380952D01*
X130865047Y-124428571D01*
X130769809Y-124476190D01*
X130388857Y-124476190D01*
X131388857Y-124952380D02*
X131388857Y-123952380D01*
X132055523Y-123952380D02*
X132246000Y-123952380D01*
X132341238Y-124000000D01*
X132436476Y-124095238D01*
X132484095Y-124285714D01*
X132484095Y-124619047D01*
X132436476Y-124809523D01*
X132341238Y-124904761D01*
X132246000Y-124952380D01*
X132055523Y-124952380D01*
X131960285Y-124904761D01*
X131865047Y-124809523D01*
X131817428Y-124619047D01*
X131817428Y-124285714D01*
X131865047Y-124095238D01*
X131960285Y-124000000D01*
X132055523Y-123952380D01*
X133626952Y-124047619D02*
X133674571Y-124000000D01*
X133769809Y-123952380D01*
X134007904Y-123952380D01*
X134103142Y-124000000D01*
X134150761Y-124047619D01*
X134198380Y-124142857D01*
X134198380Y-124238095D01*
X134150761Y-124380952D01*
X133579333Y-124952380D01*
X134198380Y-124952380D01*
X135150761Y-124952380D02*
X134579333Y-124952380D01*
X134865047Y-124952380D02*
X134865047Y-123952380D01*
X134769809Y-124095238D01*
X134674571Y-124190476D01*
X134579333Y-124238095D01*
X129912666Y-121420000D02*
X129817428Y-121372380D01*
X129674571Y-121372380D01*
X129531714Y-121420000D01*
X129436476Y-121515238D01*
X129388857Y-121610476D01*
X129341238Y-121800952D01*
X129341238Y-121943809D01*
X129388857Y-122134285D01*
X129436476Y-122229523D01*
X129531714Y-122324761D01*
X129674571Y-122372380D01*
X129769809Y-122372380D01*
X129912666Y-122324761D01*
X129960285Y-122277142D01*
X129960285Y-121943809D01*
X129769809Y-121943809D01*
X130388857Y-122372380D02*
X130388857Y-121372380D01*
X130769809Y-121372380D01*
X130865047Y-121420000D01*
X130912666Y-121467619D01*
X130960285Y-121562857D01*
X130960285Y-121705714D01*
X130912666Y-121800952D01*
X130865047Y-121848571D01*
X130769809Y-121896190D01*
X130388857Y-121896190D01*
X131388857Y-122372380D02*
X131388857Y-121372380D01*
X132055523Y-121372380D02*
X132246000Y-121372380D01*
X132341238Y-121420000D01*
X132436476Y-121515238D01*
X132484095Y-121705714D01*
X132484095Y-122039047D01*
X132436476Y-122229523D01*
X132341238Y-122324761D01*
X132246000Y-122372380D01*
X132055523Y-122372380D01*
X131960285Y-122324761D01*
X131865047Y-122229523D01*
X131817428Y-122039047D01*
X131817428Y-121705714D01*
X131865047Y-121515238D01*
X131960285Y-121420000D01*
X132055523Y-121372380D01*
X133626952Y-121467619D02*
X133674571Y-121420000D01*
X133769809Y-121372380D01*
X134007904Y-121372380D01*
X134103142Y-121420000D01*
X134150761Y-121467619D01*
X134198380Y-121562857D01*
X134198380Y-121658095D01*
X134150761Y-121800952D01*
X133579333Y-122372380D01*
X134198380Y-122372380D01*
X134579333Y-121467619D02*
X134626952Y-121420000D01*
X134722190Y-121372380D01*
X134960285Y-121372380D01*
X135055523Y-121420000D01*
X135103142Y-121467619D01*
X135150761Y-121562857D01*
X135150761Y-121658095D01*
X135103142Y-121800952D01*
X134531714Y-122372380D01*
X135150761Y-122372380D01*
X129912666Y-119000000D02*
X129817428Y-118952380D01*
X129674571Y-118952380D01*
X129531714Y-119000000D01*
X129436476Y-119095238D01*
X129388857Y-119190476D01*
X129341238Y-119380952D01*
X129341238Y-119523809D01*
X129388857Y-119714285D01*
X129436476Y-119809523D01*
X129531714Y-119904761D01*
X129674571Y-119952380D01*
X129769809Y-119952380D01*
X129912666Y-119904761D01*
X129960285Y-119857142D01*
X129960285Y-119523809D01*
X129769809Y-119523809D01*
X130388857Y-119952380D02*
X130388857Y-118952380D01*
X130769809Y-118952380D01*
X130865047Y-119000000D01*
X130912666Y-119047619D01*
X130960285Y-119142857D01*
X130960285Y-119285714D01*
X130912666Y-119380952D01*
X130865047Y-119428571D01*
X130769809Y-119476190D01*
X130388857Y-119476190D01*
X131388857Y-119952380D02*
X131388857Y-118952380D01*
X132055523Y-118952380D02*
X132246000Y-118952380D01*
X132341238Y-119000000D01*
X132436476Y-119095238D01*
X132484095Y-119285714D01*
X132484095Y-119619047D01*
X132436476Y-119809523D01*
X132341238Y-119904761D01*
X132246000Y-119952380D01*
X132055523Y-119952380D01*
X131960285Y-119904761D01*
X131865047Y-119809523D01*
X131817428Y-119619047D01*
X131817428Y-119285714D01*
X131865047Y-119095238D01*
X131960285Y-119000000D01*
X132055523Y-118952380D01*
X133626952Y-119047619D02*
X133674571Y-119000000D01*
X133769809Y-118952380D01*
X134007904Y-118952380D01*
X134103142Y-119000000D01*
X134150761Y-119047619D01*
X134198380Y-119142857D01*
X134198380Y-119238095D01*
X134150761Y-119380952D01*
X133579333Y-119952380D01*
X134198380Y-119952380D01*
X134531714Y-118952380D02*
X135150761Y-118952380D01*
X134817428Y-119333333D01*
X134960285Y-119333333D01*
X135055523Y-119380952D01*
X135103142Y-119428571D01*
X135150761Y-119523809D01*
X135150761Y-119761904D01*
X135103142Y-119857142D01*
X135055523Y-119904761D01*
X134960285Y-119952380D01*
X134674571Y-119952380D01*
X134579333Y-119904761D01*
X134531714Y-119857142D01*
D13*
G36*
X173750000Y-74500000D02*
G01*
X169250000Y-74500000D01*
X169250000Y-68000000D01*
X173750000Y-68000000D01*
X173750000Y-74500000D01*
G37*
X173750000Y-74500000D02*
X169250000Y-74500000D01*
X169250000Y-68000000D01*
X173750000Y-68000000D01*
X173750000Y-74500000D01*
G36*
X168750000Y-74500000D02*
G01*
X164250000Y-74500000D01*
X164250000Y-68000000D01*
X168750000Y-68000000D01*
X168750000Y-74500000D01*
G37*
X168750000Y-74500000D02*
X164250000Y-74500000D01*
X164250000Y-68000000D01*
X168750000Y-68000000D01*
X168750000Y-74500000D01*
G36*
X163750000Y-74500000D02*
G01*
X159250000Y-74500000D01*
X159250000Y-68000000D01*
X163750000Y-68000000D01*
X163750000Y-74500000D01*
G37*
X163750000Y-74500000D02*
X159250000Y-74500000D01*
X159250000Y-68000000D01*
X163750000Y-68000000D01*
X163750000Y-74500000D01*
G36*
X158750000Y-74500000D02*
G01*
X154250000Y-74500000D01*
X154250000Y-68000000D01*
X158750000Y-68000000D01*
X158750000Y-74500000D01*
G37*
X158750000Y-74500000D02*
X154250000Y-74500000D01*
X154250000Y-68000000D01*
X158750000Y-68000000D01*
X158750000Y-74500000D01*
G36*
X153750000Y-74500000D02*
G01*
X149250000Y-74500000D01*
X149250000Y-68000000D01*
X153750000Y-68000000D01*
X153750000Y-74500000D01*
G37*
X153750000Y-74500000D02*
X149250000Y-74500000D01*
X149250000Y-68000000D01*
X153750000Y-68000000D01*
X153750000Y-74500000D01*
G36*
X148750000Y-74500000D02*
G01*
X144250000Y-74500000D01*
X144250000Y-68000000D01*
X148750000Y-68000000D01*
X148750000Y-74500000D01*
G37*
X148750000Y-74500000D02*
X144250000Y-74500000D01*
X144250000Y-68000000D01*
X148750000Y-68000000D01*
X148750000Y-74500000D01*
D12*
X180750000Y-72642857D02*
X180678571Y-72785714D01*
X180678571Y-73000000D01*
X180750000Y-73214285D01*
X180892857Y-73357142D01*
X181035714Y-73428571D01*
X181321428Y-73500000D01*
X181535714Y-73500000D01*
X181821428Y-73428571D01*
X181964285Y-73357142D01*
X182107142Y-73214285D01*
X182178571Y-73000000D01*
X182178571Y-72857142D01*
X182107142Y-72642857D01*
X182035714Y-72571428D01*
X181535714Y-72571428D01*
X181535714Y-72857142D01*
X182178571Y-71928571D02*
X180678571Y-71928571D01*
X182178571Y-71071428D01*
X180678571Y-71071428D01*
X182178571Y-70357142D02*
X180678571Y-70357142D01*
X180678571Y-70000000D01*
X180750000Y-69785714D01*
X180892857Y-69642857D01*
X181035714Y-69571428D01*
X181321428Y-69500000D01*
X181535714Y-69500000D01*
X181821428Y-69571428D01*
X181964285Y-69642857D01*
X182107142Y-69785714D01*
X182178571Y-70000000D01*
X182178571Y-70357142D01*
D11*
X126735000Y-94870000D02*
X126735000Y-101370000D01*
X135735000Y-94870000D02*
X126735000Y-94870000D01*
X135735000Y-101370000D02*
X135735000Y-94870000D01*
D14*
X125035000Y-101540000D02*
X125035000Y-104200000D01*
X132715000Y-101540000D02*
X125035000Y-101540000D01*
X132715000Y-104200000D02*
X125035000Y-104200000D01*
X132715000Y-101540000D02*
X132715000Y-104200000D01*
X133985000Y-101540000D02*
X135315000Y-101540000D01*
X135315000Y-101540000D02*
X135315000Y-102870000D01*
D11*
X135735000Y-106870000D02*
X135735000Y-101370000D01*
D14*
X135735000Y-107370000D02*
X135735000Y-107870000D01*
X124735000Y-107620000D02*
X124735000Y-108120000D01*
X135735000Y-121370000D02*
X135735000Y-121870000D01*
X135735000Y-121870000D02*
X135235000Y-121870000D01*
X124735000Y-121870000D02*
X124735000Y-121370000D01*
X124735000Y-121870000D02*
X125235000Y-121870000D01*
X124735000Y-107120000D02*
X124735000Y-101370000D01*
X124735000Y-101370000D02*
X126735000Y-101370000D01*
X135735000Y-120870000D02*
X135735000Y-120370000D01*
X124735000Y-120870000D02*
X124735000Y-120370000D01*
D11*
X138500000Y-75000000D02*
X189000000Y-75000000D01*
X138500000Y-86000000D02*
X138500000Y-75000000D01*
X189000000Y-86000000D02*
X138500000Y-86000000D01*
X189000000Y-75000000D02*
X189000000Y-86000000D01*
X138500000Y-134500000D02*
X138500000Y-104500000D01*
X188500000Y-134500000D02*
X138500000Y-134500000D01*
X188500000Y-104500000D02*
X188500000Y-134500000D01*
X138500000Y-104500000D02*
X188500000Y-104500000D01*
D14*
X132280000Y-76915354D02*
X131280000Y-76915354D01*
X131780000Y-76415354D02*
X131780000Y-77415354D01*
X129504000Y-86976000D02*
X128306000Y-86976000D01*
X129767000Y-86936000D02*
X128043000Y-86936000D01*
X129967000Y-86896000D02*
X127843000Y-86896000D01*
X130135000Y-86856000D02*
X127675000Y-86856000D01*
X130283000Y-86816000D02*
X127527000Y-86816000D01*
X130415000Y-86776000D02*
X127395000Y-86776000D01*
X130535000Y-86736000D02*
X127275000Y-86736000D01*
X130647000Y-86696000D02*
X127163000Y-86696000D01*
X130751000Y-86656000D02*
X127059000Y-86656000D01*
X130849000Y-86616000D02*
X126961000Y-86616000D01*
X130942000Y-86576000D02*
X126868000Y-86576000D01*
X131030000Y-86536000D02*
X126780000Y-86536000D01*
X131114000Y-86496000D02*
X126696000Y-86496000D01*
X131194000Y-86456000D02*
X126616000Y-86456000D01*
X131270000Y-86416000D02*
X126540000Y-86416000D01*
X131344000Y-86376000D02*
X126466000Y-86376000D01*
X131415000Y-86336000D02*
X126395000Y-86336000D01*
X131484000Y-86296000D02*
X126326000Y-86296000D01*
X131550000Y-86256000D02*
X126260000Y-86256000D01*
X131614000Y-86216000D02*
X126196000Y-86216000D01*
X131675000Y-86176000D02*
X126135000Y-86176000D01*
X131735000Y-86136000D02*
X126075000Y-86136000D01*
X131794000Y-86096000D02*
X126016000Y-86096000D01*
X131850000Y-86056000D02*
X125960000Y-86056000D01*
X131905000Y-86016000D02*
X125905000Y-86016000D01*
X131959000Y-85976000D02*
X125851000Y-85976000D01*
X132011000Y-85936000D02*
X125799000Y-85936000D01*
X132061000Y-85896000D02*
X125749000Y-85896000D01*
X132111000Y-85856000D02*
X125699000Y-85856000D01*
X132159000Y-85816000D02*
X125651000Y-85816000D01*
X132206000Y-85776000D02*
X125604000Y-85776000D01*
X132252000Y-85736000D02*
X125558000Y-85736000D01*
X132297000Y-85696000D02*
X125513000Y-85696000D01*
X132341000Y-85656000D02*
X125469000Y-85656000D01*
X132383000Y-85616000D02*
X125427000Y-85616000D01*
X132425000Y-85576000D02*
X125385000Y-85576000D01*
X132466000Y-85536000D02*
X125344000Y-85536000D01*
X132506000Y-85496000D02*
X125304000Y-85496000D01*
X132545000Y-85456000D02*
X125265000Y-85456000D01*
X132584000Y-85416000D02*
X125226000Y-85416000D01*
X132621000Y-85376000D02*
X125189000Y-85376000D01*
X132658000Y-85336000D02*
X125152000Y-85336000D01*
X132694000Y-85296000D02*
X125116000Y-85296000D01*
X132729000Y-85256000D02*
X125081000Y-85256000D01*
X132763000Y-85216000D02*
X125047000Y-85216000D01*
X132797000Y-85176000D02*
X125013000Y-85176000D01*
X132830000Y-85136000D02*
X124980000Y-85136000D01*
X132862000Y-85096000D02*
X124948000Y-85096000D01*
X132894000Y-85056000D02*
X124916000Y-85056000D01*
X132925000Y-85016000D02*
X124885000Y-85016000D01*
X132955000Y-84976000D02*
X124855000Y-84976000D01*
X132985000Y-84936000D02*
X124825000Y-84936000D01*
X133015000Y-84896000D02*
X124795000Y-84896000D01*
X126265000Y-84856000D02*
X124767000Y-84856000D01*
X133043000Y-84856000D02*
X128345000Y-84856000D01*
X126265000Y-84816000D02*
X124739000Y-84816000D01*
X133071000Y-84816000D02*
X128345000Y-84816000D01*
X126265000Y-84776000D02*
X124711000Y-84776000D01*
X133099000Y-84776000D02*
X128345000Y-84776000D01*
X126265000Y-84736000D02*
X124684000Y-84736000D01*
X133126000Y-84736000D02*
X128345000Y-84736000D01*
X126265000Y-84696000D02*
X124658000Y-84696000D01*
X133152000Y-84696000D02*
X128345000Y-84696000D01*
X126265000Y-84656000D02*
X124632000Y-84656000D01*
X133178000Y-84656000D02*
X128345000Y-84656000D01*
X126265000Y-84616000D02*
X124607000Y-84616000D01*
X133203000Y-84616000D02*
X128345000Y-84616000D01*
X126265000Y-84576000D02*
X124582000Y-84576000D01*
X133228000Y-84576000D02*
X128345000Y-84576000D01*
X126265000Y-84536000D02*
X124558000Y-84536000D01*
X133252000Y-84536000D02*
X128345000Y-84536000D01*
X126265000Y-84496000D02*
X124534000Y-84496000D01*
X133276000Y-84496000D02*
X128345000Y-84496000D01*
X126265000Y-84456000D02*
X124510000Y-84456000D01*
X133300000Y-84456000D02*
X128345000Y-84456000D01*
X126265000Y-84416000D02*
X124488000Y-84416000D01*
X133322000Y-84416000D02*
X128345000Y-84416000D01*
X126265000Y-84376000D02*
X124465000Y-84376000D01*
X133345000Y-84376000D02*
X128345000Y-84376000D01*
X126265000Y-84336000D02*
X124443000Y-84336000D01*
X133367000Y-84336000D02*
X128345000Y-84336000D01*
X126265000Y-84296000D02*
X124422000Y-84296000D01*
X133388000Y-84296000D02*
X128345000Y-84296000D01*
X126265000Y-84256000D02*
X124401000Y-84256000D01*
X133409000Y-84256000D02*
X128345000Y-84256000D01*
X126265000Y-84216000D02*
X124380000Y-84216000D01*
X133430000Y-84216000D02*
X128345000Y-84216000D01*
X126265000Y-84176000D02*
X124360000Y-84176000D01*
X133450000Y-84176000D02*
X129945000Y-84176000D01*
X126265000Y-84136000D02*
X124341000Y-84136000D01*
X133469000Y-84136000D02*
X129945000Y-84136000D01*
X126265000Y-84096000D02*
X124321000Y-84096000D01*
X133489000Y-84096000D02*
X129945000Y-84096000D01*
X126265000Y-84056000D02*
X124302000Y-84056000D01*
X133508000Y-84056000D02*
X129945000Y-84056000D01*
X126265000Y-84016000D02*
X124284000Y-84016000D01*
X133526000Y-84016000D02*
X129945000Y-84016000D01*
X126265000Y-83976000D02*
X124266000Y-83976000D01*
X133544000Y-83976000D02*
X129945000Y-83976000D01*
X126265000Y-83936000D02*
X124248000Y-83936000D01*
X133562000Y-83936000D02*
X129945000Y-83936000D01*
X126265000Y-83896000D02*
X124231000Y-83896000D01*
X133579000Y-83896000D02*
X129945000Y-83896000D01*
X126265000Y-83856000D02*
X124215000Y-83856000D01*
X133595000Y-83856000D02*
X129945000Y-83856000D01*
X126265000Y-83816000D02*
X124198000Y-83816000D01*
X133612000Y-83816000D02*
X129945000Y-83816000D01*
X126265000Y-83776000D02*
X124182000Y-83776000D01*
X133628000Y-83776000D02*
X129945000Y-83776000D01*
X126265000Y-83736000D02*
X124167000Y-83736000D01*
X133643000Y-83736000D02*
X129945000Y-83736000D01*
X126265000Y-83696000D02*
X124151000Y-83696000D01*
X133659000Y-83696000D02*
X129945000Y-83696000D01*
X126265000Y-83656000D02*
X124137000Y-83656000D01*
X133673000Y-83656000D02*
X129945000Y-83656000D01*
X126265000Y-83616000D02*
X124122000Y-83616000D01*
X133688000Y-83616000D02*
X129945000Y-83616000D01*
X126265000Y-83576000D02*
X124108000Y-83576000D01*
X133702000Y-83576000D02*
X129945000Y-83576000D01*
X126265000Y-83536000D02*
X124094000Y-83536000D01*
X133716000Y-83536000D02*
X129945000Y-83536000D01*
X126265000Y-83496000D02*
X124081000Y-83496000D01*
X133729000Y-83496000D02*
X129945000Y-83496000D01*
X126265000Y-83456000D02*
X124068000Y-83456000D01*
X133742000Y-83456000D02*
X129945000Y-83456000D01*
X126265000Y-83416000D02*
X124055000Y-83416000D01*
X133755000Y-83416000D02*
X129945000Y-83416000D01*
X126265000Y-83376000D02*
X124043000Y-83376000D01*
X133767000Y-83376000D02*
X129945000Y-83376000D01*
X126265000Y-83336000D02*
X124031000Y-83336000D01*
X133779000Y-83336000D02*
X129945000Y-83336000D01*
X126265000Y-83296000D02*
X124020000Y-83296000D01*
X133790000Y-83296000D02*
X129945000Y-83296000D01*
X126265000Y-83256000D02*
X124008000Y-83256000D01*
X133802000Y-83256000D02*
X129945000Y-83256000D01*
X126265000Y-83216000D02*
X123998000Y-83216000D01*
X133812000Y-83216000D02*
X129945000Y-83216000D01*
X126265000Y-83176000D02*
X123987000Y-83176000D01*
X133823000Y-83176000D02*
X129945000Y-83176000D01*
X126265000Y-83136000D02*
X123977000Y-83136000D01*
X133833000Y-83136000D02*
X129945000Y-83136000D01*
X126265000Y-83096000D02*
X123967000Y-83096000D01*
X133843000Y-83096000D02*
X129945000Y-83096000D01*
X126265000Y-83056000D02*
X123958000Y-83056000D01*
X133852000Y-83056000D02*
X129945000Y-83056000D01*
X126265000Y-83016000D02*
X123949000Y-83016000D01*
X133861000Y-83016000D02*
X129945000Y-83016000D01*
X126265000Y-82976000D02*
X123940000Y-82976000D01*
X133870000Y-82976000D02*
X129945000Y-82976000D01*
X126265000Y-82936000D02*
X123931000Y-82936000D01*
X133879000Y-82936000D02*
X129945000Y-82936000D01*
X126265000Y-82896000D02*
X123923000Y-82896000D01*
X133887000Y-82896000D02*
X129945000Y-82896000D01*
X126265000Y-82856000D02*
X123915000Y-82856000D01*
X133895000Y-82856000D02*
X129945000Y-82856000D01*
X126265000Y-82816000D02*
X123908000Y-82816000D01*
X133902000Y-82816000D02*
X129945000Y-82816000D01*
X127865000Y-82776000D02*
X123901000Y-82776000D01*
X133909000Y-82776000D02*
X129945000Y-82776000D01*
X127865000Y-82736000D02*
X123894000Y-82736000D01*
X133916000Y-82736000D02*
X129945000Y-82736000D01*
X127865000Y-82696000D02*
X123887000Y-82696000D01*
X133923000Y-82696000D02*
X129945000Y-82696000D01*
X127865000Y-82656000D02*
X123881000Y-82656000D01*
X133929000Y-82656000D02*
X129945000Y-82656000D01*
X127865000Y-82616000D02*
X123875000Y-82616000D01*
X133935000Y-82616000D02*
X129945000Y-82616000D01*
X127865000Y-82575000D02*
X123870000Y-82575000D01*
X133940000Y-82575000D02*
X129945000Y-82575000D01*
X127865000Y-82535000D02*
X123865000Y-82535000D01*
X133945000Y-82535000D02*
X129945000Y-82535000D01*
X127865000Y-82495000D02*
X123860000Y-82495000D01*
X133950000Y-82495000D02*
X129945000Y-82495000D01*
X127865000Y-82455000D02*
X123855000Y-82455000D01*
X133955000Y-82455000D02*
X129945000Y-82455000D01*
X127865000Y-82415000D02*
X123851000Y-82415000D01*
X133959000Y-82415000D02*
X129945000Y-82415000D01*
X127865000Y-82375000D02*
X123847000Y-82375000D01*
X133963000Y-82375000D02*
X129945000Y-82375000D01*
X127865000Y-82335000D02*
X123843000Y-82335000D01*
X133967000Y-82335000D02*
X129945000Y-82335000D01*
X127865000Y-82295000D02*
X123840000Y-82295000D01*
X133970000Y-82295000D02*
X129945000Y-82295000D01*
X127865000Y-82255000D02*
X123837000Y-82255000D01*
X133973000Y-82255000D02*
X129945000Y-82255000D01*
X127865000Y-82215000D02*
X123835000Y-82215000D01*
X133975000Y-82215000D02*
X129945000Y-82215000D01*
X127865000Y-82175000D02*
X123832000Y-82175000D01*
X133978000Y-82175000D02*
X129945000Y-82175000D01*
X127865000Y-82135000D02*
X123830000Y-82135000D01*
X133980000Y-82135000D02*
X129945000Y-82135000D01*
X133982000Y-82095000D02*
X123828000Y-82095000D01*
X133983000Y-82055000D02*
X123827000Y-82055000D01*
X133984000Y-82015000D02*
X123826000Y-82015000D01*
X133985000Y-81975000D02*
X123825000Y-81975000D01*
X133985000Y-81935000D02*
X123825000Y-81935000D01*
X133985000Y-81895000D02*
X123825000Y-81895000D01*
X134025000Y-81895000D02*
G75*
G03*
X134025000Y-81895000I-5120000J0D01*
G01*
X157540000Y-120590000D02*
X157540000Y-121920000D01*
X156210000Y-120590000D02*
X157540000Y-120590000D01*
X154940000Y-120590000D02*
X154940000Y-123250000D01*
X154940000Y-123250000D02*
X142180000Y-123250000D01*
X154940000Y-120590000D02*
X142180000Y-120590000D01*
X142180000Y-120590000D02*
X142180000Y-123250000D01*
X154089564Y-113740000D02*
X152885436Y-113740000D01*
X154089564Y-116460000D02*
X152885436Y-116460000D01*
X180445000Y-110380000D02*
X180445000Y-110000000D01*
X186865000Y-110380000D02*
X180445000Y-110380000D01*
X186865000Y-128620000D02*
X180445000Y-128620000D01*
X186865000Y-110380000D02*
X186865000Y-128620000D01*
X161120000Y-128620000D02*
X161120000Y-127620000D01*
X161900000Y-128620000D02*
X161120000Y-128620000D01*
X161120000Y-110380000D02*
X161120000Y-111380000D01*
X161900000Y-110380000D02*
X161120000Y-110380000D01*
X146763748Y-115210000D02*
X147286252Y-115210000D01*
X146763748Y-113790000D02*
X147286252Y-113790000D01*
X157540000Y-124146000D02*
X157540000Y-125476000D01*
X156210000Y-124146000D02*
X157540000Y-124146000D01*
X154940000Y-124146000D02*
X154940000Y-126806000D01*
X154940000Y-126806000D02*
X142180000Y-126806000D01*
X154940000Y-124146000D02*
X142180000Y-124146000D01*
X142180000Y-124146000D02*
X142180000Y-126806000D01*
X139170000Y-133330000D02*
X139170000Y-132000000D01*
X140500000Y-133330000D02*
X139170000Y-133330000D01*
X141770000Y-133330000D02*
X141770000Y-130670000D01*
X141770000Y-130670000D02*
X144370000Y-130670000D01*
X141770000Y-133330000D02*
X144370000Y-133330000D01*
X144370000Y-133330000D02*
X144370000Y-130670000D01*
X153761252Y-110290000D02*
X153238748Y-110290000D01*
X153761252Y-111710000D02*
X153238748Y-111710000D01*
X146763748Y-111710000D02*
X147286252Y-111710000D01*
X146763748Y-110290000D02*
X147286252Y-110290000D01*
X131080000Y-72000000D02*
X129420000Y-72000000D01*
X134920000Y-72000000D02*
G75*
G03*
X134920000Y-72000000I-1920000J0D01*
G01*
X136151252Y-75790000D02*
X135628748Y-75790000D01*
X136151252Y-77210000D02*
X135628748Y-77210000D01*
X185270000Y-96891000D02*
X183760000Y-96891000D01*
X185270000Y-93190000D02*
X183760000Y-93190000D01*
X183760000Y-89920000D02*
X183760000Y-100160000D01*
X185270000Y-100160000D02*
X180629000Y-100160000D01*
X185270000Y-89920000D02*
X180629000Y-89920000D01*
X180629000Y-89920000D02*
X180629000Y-100160000D01*
X185270000Y-89920000D02*
X185270000Y-100160000D01*
X177270000Y-96891000D02*
X175760000Y-96891000D01*
X177270000Y-93190000D02*
X175760000Y-93190000D01*
X175760000Y-89920000D02*
X175760000Y-100160000D01*
X177270000Y-100160000D02*
X172629000Y-100160000D01*
X177270000Y-89920000D02*
X172629000Y-89920000D01*
X172629000Y-89920000D02*
X172629000Y-100160000D01*
X177270000Y-89920000D02*
X177270000Y-100160000D01*
X169270000Y-96891000D02*
X167760000Y-96891000D01*
X169270000Y-93190000D02*
X167760000Y-93190000D01*
X167760000Y-89920000D02*
X167760000Y-100160000D01*
X169270000Y-100160000D02*
X164629000Y-100160000D01*
X169270000Y-89920000D02*
X164629000Y-89920000D01*
X164629000Y-89920000D02*
X164629000Y-100160000D01*
X169270000Y-89920000D02*
X169270000Y-100160000D01*
X161270000Y-96891000D02*
X159760000Y-96891000D01*
X161270000Y-93190000D02*
X159760000Y-93190000D01*
X159760000Y-89920000D02*
X159760000Y-100160000D01*
X161270000Y-100160000D02*
X156629000Y-100160000D01*
X161270000Y-89920000D02*
X156629000Y-89920000D01*
X156629000Y-89920000D02*
X156629000Y-100160000D01*
X161270000Y-89920000D02*
X161270000Y-100160000D01*
X153270000Y-96891000D02*
X151760000Y-96891000D01*
X153270000Y-93190000D02*
X151760000Y-93190000D01*
X151760000Y-89920000D02*
X151760000Y-100160000D01*
X153270000Y-100160000D02*
X148629000Y-100160000D01*
X153270000Y-89920000D02*
X148629000Y-89920000D01*
X148629000Y-89920000D02*
X148629000Y-100160000D01*
X153270000Y-89920000D02*
X153270000Y-100160000D01*
X145270000Y-96891000D02*
X143760000Y-96891000D01*
X145270000Y-93190000D02*
X143760000Y-93190000D01*
X143760000Y-89920000D02*
X143760000Y-100160000D01*
X145270000Y-100160000D02*
X140629000Y-100160000D01*
X145270000Y-89920000D02*
X140629000Y-89920000D01*
X140629000Y-89920000D02*
X140629000Y-100160000D01*
X145270000Y-89920000D02*
X145270000Y-100160000D01*
X125670000Y-118170000D02*
X127000000Y-118170000D01*
X125670000Y-119500000D02*
X125670000Y-118170000D01*
X125670000Y-120770000D02*
X128330000Y-120770000D01*
X128330000Y-120770000D02*
X128330000Y-133530000D01*
X125670000Y-120770000D02*
X125670000Y-133530000D01*
X125670000Y-133530000D02*
X128330000Y-133530000D01*
D11*
X131913333Y-87987142D02*
X131865714Y-88034761D01*
X131722857Y-88082380D01*
X131627619Y-88082380D01*
X131484761Y-88034761D01*
X131389523Y-87939523D01*
X131341904Y-87844285D01*
X131294285Y-87653809D01*
X131294285Y-87510952D01*
X131341904Y-87320476D01*
X131389523Y-87225238D01*
X131484761Y-87130000D01*
X131627619Y-87082380D01*
X131722857Y-87082380D01*
X131865714Y-87130000D01*
X131913333Y-87177619D01*
X132865714Y-88082380D02*
X132294285Y-88082380D01*
X132580000Y-88082380D02*
X132580000Y-87082380D01*
X132484761Y-87225238D01*
X132389523Y-87320476D01*
X132294285Y-87368095D01*
X151177976Y-113177142D02*
X151130357Y-113224761D01*
X150987500Y-113272380D01*
X150892261Y-113272380D01*
X150749404Y-113224761D01*
X150654166Y-113129523D01*
X150606547Y-113034285D01*
X150558928Y-112843809D01*
X150558928Y-112700952D01*
X150606547Y-112510476D01*
X150654166Y-112415238D01*
X150749404Y-112320000D01*
X150892261Y-112272380D01*
X150987500Y-112272380D01*
X151130357Y-112320000D01*
X151177976Y-112367619D01*
X152035119Y-112605714D02*
X152035119Y-113272380D01*
X151797023Y-112224761D02*
X151558928Y-112939047D01*
X152177976Y-112939047D01*
X153844642Y-113272380D02*
X153273214Y-113272380D01*
X153558928Y-113272380D02*
X153558928Y-112272380D01*
X153463690Y-112415238D01*
X153368452Y-112510476D01*
X153273214Y-112558095D01*
X154463690Y-112272380D02*
X154558928Y-112272380D01*
X154654166Y-112320000D01*
X154701785Y-112367619D01*
X154749404Y-112462857D01*
X154797023Y-112653333D01*
X154797023Y-112891428D01*
X154749404Y-113081904D01*
X154701785Y-113177142D01*
X154654166Y-113224761D01*
X154558928Y-113272380D01*
X154463690Y-113272380D01*
X154368452Y-113224761D01*
X154320833Y-113177142D01*
X154273214Y-113081904D01*
X154225595Y-112891428D01*
X154225595Y-112653333D01*
X154273214Y-112462857D01*
X154320833Y-112367619D01*
X154368452Y-112320000D01*
X154463690Y-112272380D01*
X155225595Y-112605714D02*
X155225595Y-113605714D01*
X155701785Y-113129523D02*
X155749404Y-113224761D01*
X155844642Y-113272380D01*
X155225595Y-113129523D02*
X155273214Y-113224761D01*
X155368452Y-113272380D01*
X155558928Y-113272380D01*
X155654166Y-113224761D01*
X155701785Y-113129523D01*
X155701785Y-112605714D01*
X156130357Y-112605714D02*
X156511309Y-112605714D01*
X156273214Y-113272380D02*
X156273214Y-112415238D01*
X156320833Y-112320000D01*
X156416071Y-112272380D01*
X156511309Y-112272380D01*
X144845238Y-113202380D02*
X144511904Y-112726190D01*
X144273809Y-113202380D02*
X144273809Y-112202380D01*
X144654761Y-112202380D01*
X144750000Y-112250000D01*
X144797619Y-112297619D01*
X144845238Y-112392857D01*
X144845238Y-112535714D01*
X144797619Y-112630952D01*
X144750000Y-112678571D01*
X144654761Y-112726190D01*
X144273809Y-112726190D01*
X145178571Y-112202380D02*
X145797619Y-112202380D01*
X145464285Y-112583333D01*
X145607142Y-112583333D01*
X145702380Y-112630952D01*
X145750000Y-112678571D01*
X145797619Y-112773809D01*
X145797619Y-113011904D01*
X145750000Y-113107142D01*
X145702380Y-113154761D01*
X145607142Y-113202380D01*
X145321428Y-113202380D01*
X145226190Y-113154761D01*
X145178571Y-113107142D01*
X147511904Y-113202380D02*
X146940476Y-113202380D01*
X147226190Y-113202380D02*
X147226190Y-112202380D01*
X147130952Y-112345238D01*
X147035714Y-112440476D01*
X146940476Y-112488095D01*
X148130952Y-112202380D02*
X148226190Y-112202380D01*
X148321428Y-112250000D01*
X148369047Y-112297619D01*
X148416666Y-112392857D01*
X148464285Y-112583333D01*
X148464285Y-112821428D01*
X148416666Y-113011904D01*
X148369047Y-113107142D01*
X148321428Y-113154761D01*
X148226190Y-113202380D01*
X148130952Y-113202380D01*
X148035714Y-113154761D01*
X147988095Y-113107142D01*
X147940476Y-113011904D01*
X147892857Y-112821428D01*
X147892857Y-112583333D01*
X147940476Y-112392857D01*
X147988095Y-112297619D01*
X148035714Y-112250000D01*
X148130952Y-112202380D01*
X148892857Y-113202380D02*
X148892857Y-112202380D01*
X148988095Y-112821428D02*
X149273809Y-113202380D01*
X149273809Y-112535714D02*
X148892857Y-112916666D01*
X151202380Y-109607142D02*
X151154761Y-109654761D01*
X151011904Y-109702380D01*
X150916666Y-109702380D01*
X150773809Y-109654761D01*
X150678571Y-109559523D01*
X150630952Y-109464285D01*
X150583333Y-109273809D01*
X150583333Y-109130952D01*
X150630952Y-108940476D01*
X150678571Y-108845238D01*
X150773809Y-108750000D01*
X150916666Y-108702380D01*
X151011904Y-108702380D01*
X151154761Y-108750000D01*
X151202380Y-108797619D01*
X151535714Y-108702380D02*
X152154761Y-108702380D01*
X151821428Y-109083333D01*
X151964285Y-109083333D01*
X152059523Y-109130952D01*
X152107142Y-109178571D01*
X152154761Y-109273809D01*
X152154761Y-109511904D01*
X152107142Y-109607142D01*
X152059523Y-109654761D01*
X151964285Y-109702380D01*
X151678571Y-109702380D01*
X151583333Y-109654761D01*
X151535714Y-109607142D01*
X153535714Y-108702380D02*
X153630952Y-108702380D01*
X153726190Y-108750000D01*
X153773809Y-108797619D01*
X153821428Y-108892857D01*
X153869047Y-109083333D01*
X153869047Y-109321428D01*
X153821428Y-109511904D01*
X153773809Y-109607142D01*
X153726190Y-109654761D01*
X153630952Y-109702380D01*
X153535714Y-109702380D01*
X153440476Y-109654761D01*
X153392857Y-109607142D01*
X153345238Y-109511904D01*
X153297619Y-109321428D01*
X153297619Y-109083333D01*
X153345238Y-108892857D01*
X153392857Y-108797619D01*
X153440476Y-108750000D01*
X153535714Y-108702380D01*
X154297619Y-109607142D02*
X154345238Y-109654761D01*
X154297619Y-109702380D01*
X154250000Y-109654761D01*
X154297619Y-109607142D01*
X154297619Y-109702380D01*
X155297619Y-109702380D02*
X154726190Y-109702380D01*
X155011904Y-109702380D02*
X155011904Y-108702380D01*
X154916666Y-108845238D01*
X154821428Y-108940476D01*
X154726190Y-108988095D01*
X155726190Y-109035714D02*
X155726190Y-110035714D01*
X156202380Y-109559523D02*
X156250000Y-109654761D01*
X156345238Y-109702380D01*
X155726190Y-109559523D02*
X155773809Y-109654761D01*
X155869047Y-109702380D01*
X156059523Y-109702380D01*
X156154761Y-109654761D01*
X156202380Y-109559523D01*
X156202380Y-109035714D01*
X156630952Y-109035714D02*
X157011904Y-109035714D01*
X156773809Y-109702380D02*
X156773809Y-108845238D01*
X156821428Y-108750000D01*
X156916666Y-108702380D01*
X157011904Y-108702380D01*
X143559523Y-109607142D02*
X143511904Y-109654761D01*
X143369047Y-109702380D01*
X143273809Y-109702380D01*
X143130952Y-109654761D01*
X143035714Y-109559523D01*
X142988095Y-109464285D01*
X142940476Y-109273809D01*
X142940476Y-109130952D01*
X142988095Y-108940476D01*
X143035714Y-108845238D01*
X143130952Y-108750000D01*
X143273809Y-108702380D01*
X143369047Y-108702380D01*
X143511904Y-108750000D01*
X143559523Y-108797619D01*
X143940476Y-108797619D02*
X143988095Y-108750000D01*
X144083333Y-108702380D01*
X144321428Y-108702380D01*
X144416666Y-108750000D01*
X144464285Y-108797619D01*
X144511904Y-108892857D01*
X144511904Y-108988095D01*
X144464285Y-109130952D01*
X143892857Y-109702380D01*
X144511904Y-109702380D01*
X145892857Y-108702380D02*
X145988095Y-108702380D01*
X146083333Y-108750000D01*
X146130952Y-108797619D01*
X146178571Y-108892857D01*
X146226190Y-109083333D01*
X146226190Y-109321428D01*
X146178571Y-109511904D01*
X146130952Y-109607142D01*
X146083333Y-109654761D01*
X145988095Y-109702380D01*
X145892857Y-109702380D01*
X145797619Y-109654761D01*
X145750000Y-109607142D01*
X145702380Y-109511904D01*
X145654761Y-109321428D01*
X145654761Y-109083333D01*
X145702380Y-108892857D01*
X145750000Y-108797619D01*
X145797619Y-108750000D01*
X145892857Y-108702380D01*
X146654761Y-109607142D02*
X146702380Y-109654761D01*
X146654761Y-109702380D01*
X146607142Y-109654761D01*
X146654761Y-109607142D01*
X146654761Y-109702380D01*
X147654761Y-109702380D02*
X147083333Y-109702380D01*
X147369047Y-109702380D02*
X147369047Y-108702380D01*
X147273809Y-108845238D01*
X147178571Y-108940476D01*
X147083333Y-108988095D01*
X148083333Y-109035714D02*
X148083333Y-110035714D01*
X148559523Y-109559523D02*
X148607142Y-109654761D01*
X148702380Y-109702380D01*
X148083333Y-109559523D02*
X148130952Y-109654761D01*
X148226190Y-109702380D01*
X148416666Y-109702380D01*
X148511904Y-109654761D01*
X148559523Y-109559523D01*
X148559523Y-109035714D01*
X149464285Y-109178571D02*
X149130952Y-109178571D01*
X149130952Y-109702380D02*
X149130952Y-108702380D01*
X149607142Y-108702380D01*
X129833333Y-70452380D02*
X129500000Y-69976190D01*
X129261904Y-70452380D02*
X129261904Y-69452380D01*
X129642857Y-69452380D01*
X129738095Y-69500000D01*
X129785714Y-69547619D01*
X129833333Y-69642857D01*
X129833333Y-69785714D01*
X129785714Y-69880952D01*
X129738095Y-69928571D01*
X129642857Y-69976190D01*
X129261904Y-69976190D01*
X130214285Y-69547619D02*
X130261904Y-69500000D01*
X130357142Y-69452380D01*
X130595238Y-69452380D01*
X130690476Y-69500000D01*
X130738095Y-69547619D01*
X130785714Y-69642857D01*
X130785714Y-69738095D01*
X130738095Y-69880952D01*
X130166666Y-70452380D01*
X130785714Y-70452380D01*
X135723333Y-78602380D02*
X135390000Y-78126190D01*
X135151904Y-78602380D02*
X135151904Y-77602380D01*
X135532857Y-77602380D01*
X135628095Y-77650000D01*
X135675714Y-77697619D01*
X135723333Y-77792857D01*
X135723333Y-77935714D01*
X135675714Y-78030952D01*
X135628095Y-78078571D01*
X135532857Y-78126190D01*
X135151904Y-78126190D01*
X136675714Y-78602380D02*
X136104285Y-78602380D01*
X136390000Y-78602380D02*
X136390000Y-77602380D01*
X136294761Y-77745238D01*
X136199523Y-77840476D01*
X136104285Y-77888095D01*
X182904761Y-102047619D02*
X182809523Y-102000000D01*
X182714285Y-101904761D01*
X182571428Y-101761904D01*
X182476190Y-101714285D01*
X182380952Y-101714285D01*
X182428571Y-101952380D02*
X182333333Y-101904761D01*
X182238095Y-101809523D01*
X182190476Y-101619047D01*
X182190476Y-101285714D01*
X182238095Y-101095238D01*
X182333333Y-101000000D01*
X182428571Y-100952380D01*
X182619047Y-100952380D01*
X182714285Y-101000000D01*
X182809523Y-101095238D01*
X182857142Y-101285714D01*
X182857142Y-101619047D01*
X182809523Y-101809523D01*
X182714285Y-101904761D01*
X182619047Y-101952380D01*
X182428571Y-101952380D01*
X183714285Y-100952380D02*
X183523809Y-100952380D01*
X183428571Y-101000000D01*
X183380952Y-101047619D01*
X183285714Y-101190476D01*
X183238095Y-101380952D01*
X183238095Y-101761904D01*
X183285714Y-101857142D01*
X183333333Y-101904761D01*
X183428571Y-101952380D01*
X183619047Y-101952380D01*
X183714285Y-101904761D01*
X183761904Y-101857142D01*
X183809523Y-101761904D01*
X183809523Y-101523809D01*
X183761904Y-101428571D01*
X183714285Y-101380952D01*
X183619047Y-101333333D01*
X183428571Y-101333333D01*
X183333333Y-101380952D01*
X183285714Y-101428571D01*
X183238095Y-101523809D01*
X174904761Y-102047619D02*
X174809523Y-102000000D01*
X174714285Y-101904761D01*
X174571428Y-101761904D01*
X174476190Y-101714285D01*
X174380952Y-101714285D01*
X174428571Y-101952380D02*
X174333333Y-101904761D01*
X174238095Y-101809523D01*
X174190476Y-101619047D01*
X174190476Y-101285714D01*
X174238095Y-101095238D01*
X174333333Y-101000000D01*
X174428571Y-100952380D01*
X174619047Y-100952380D01*
X174714285Y-101000000D01*
X174809523Y-101095238D01*
X174857142Y-101285714D01*
X174857142Y-101619047D01*
X174809523Y-101809523D01*
X174714285Y-101904761D01*
X174619047Y-101952380D01*
X174428571Y-101952380D01*
X175761904Y-100952380D02*
X175285714Y-100952380D01*
X175238095Y-101428571D01*
X175285714Y-101380952D01*
X175380952Y-101333333D01*
X175619047Y-101333333D01*
X175714285Y-101380952D01*
X175761904Y-101428571D01*
X175809523Y-101523809D01*
X175809523Y-101761904D01*
X175761904Y-101857142D01*
X175714285Y-101904761D01*
X175619047Y-101952380D01*
X175380952Y-101952380D01*
X175285714Y-101904761D01*
X175238095Y-101857142D01*
X166904761Y-102047619D02*
X166809523Y-102000000D01*
X166714285Y-101904761D01*
X166571428Y-101761904D01*
X166476190Y-101714285D01*
X166380952Y-101714285D01*
X166428571Y-101952380D02*
X166333333Y-101904761D01*
X166238095Y-101809523D01*
X166190476Y-101619047D01*
X166190476Y-101285714D01*
X166238095Y-101095238D01*
X166333333Y-101000000D01*
X166428571Y-100952380D01*
X166619047Y-100952380D01*
X166714285Y-101000000D01*
X166809523Y-101095238D01*
X166857142Y-101285714D01*
X166857142Y-101619047D01*
X166809523Y-101809523D01*
X166714285Y-101904761D01*
X166619047Y-101952380D01*
X166428571Y-101952380D01*
X167714285Y-101285714D02*
X167714285Y-101952380D01*
X167476190Y-100904761D02*
X167238095Y-101619047D01*
X167857142Y-101619047D01*
X158904761Y-102047619D02*
X158809523Y-102000000D01*
X158714285Y-101904761D01*
X158571428Y-101761904D01*
X158476190Y-101714285D01*
X158380952Y-101714285D01*
X158428571Y-101952380D02*
X158333333Y-101904761D01*
X158238095Y-101809523D01*
X158190476Y-101619047D01*
X158190476Y-101285714D01*
X158238095Y-101095238D01*
X158333333Y-101000000D01*
X158428571Y-100952380D01*
X158619047Y-100952380D01*
X158714285Y-101000000D01*
X158809523Y-101095238D01*
X158857142Y-101285714D01*
X158857142Y-101619047D01*
X158809523Y-101809523D01*
X158714285Y-101904761D01*
X158619047Y-101952380D01*
X158428571Y-101952380D01*
X159190476Y-100952380D02*
X159809523Y-100952380D01*
X159476190Y-101333333D01*
X159619047Y-101333333D01*
X159714285Y-101380952D01*
X159761904Y-101428571D01*
X159809523Y-101523809D01*
X159809523Y-101761904D01*
X159761904Y-101857142D01*
X159714285Y-101904761D01*
X159619047Y-101952380D01*
X159333333Y-101952380D01*
X159238095Y-101904761D01*
X159190476Y-101857142D01*
X150904761Y-102047619D02*
X150809523Y-102000000D01*
X150714285Y-101904761D01*
X150571428Y-101761904D01*
X150476190Y-101714285D01*
X150380952Y-101714285D01*
X150428571Y-101952380D02*
X150333333Y-101904761D01*
X150238095Y-101809523D01*
X150190476Y-101619047D01*
X150190476Y-101285714D01*
X150238095Y-101095238D01*
X150333333Y-101000000D01*
X150428571Y-100952380D01*
X150619047Y-100952380D01*
X150714285Y-101000000D01*
X150809523Y-101095238D01*
X150857142Y-101285714D01*
X150857142Y-101619047D01*
X150809523Y-101809523D01*
X150714285Y-101904761D01*
X150619047Y-101952380D01*
X150428571Y-101952380D01*
X151238095Y-101047619D02*
X151285714Y-101000000D01*
X151380952Y-100952380D01*
X151619047Y-100952380D01*
X151714285Y-101000000D01*
X151761904Y-101047619D01*
X151809523Y-101142857D01*
X151809523Y-101238095D01*
X151761904Y-101380952D01*
X151190476Y-101952380D01*
X151809523Y-101952380D01*
X142904761Y-102047619D02*
X142809523Y-102000000D01*
X142714285Y-101904761D01*
X142571428Y-101761904D01*
X142476190Y-101714285D01*
X142380952Y-101714285D01*
X142428571Y-101952380D02*
X142333333Y-101904761D01*
X142238095Y-101809523D01*
X142190476Y-101619047D01*
X142190476Y-101285714D01*
X142238095Y-101095238D01*
X142333333Y-101000000D01*
X142428571Y-100952380D01*
X142619047Y-100952380D01*
X142714285Y-101000000D01*
X142809523Y-101095238D01*
X142857142Y-101285714D01*
X142857142Y-101619047D01*
X142809523Y-101809523D01*
X142714285Y-101904761D01*
X142619047Y-101952380D01*
X142428571Y-101952380D01*
X143809523Y-101952380D02*
X143238095Y-101952380D01*
X143523809Y-101952380D02*
X143523809Y-100952380D01*
X143428571Y-101095238D01*
X143333333Y-101190476D01*
X143238095Y-101238095D01*
M02*
