%TF.GenerationSoftware,KiCad,Pcbnew,(5.1.7)-1*%
%TF.CreationDate,2020-11-01T18:23:12+02:00*%
%TF.ProjectId,esp32_mc_dimmer,65737033-325f-46d6-935f-64696d6d6572,rev?*%
%TF.SameCoordinates,Original*%
%TF.FileFunction,Copper,L2,Bot*%
%TF.FilePolarity,Positive*%
%FSLAX46Y46*%
G04 Gerber Fmt 4.6, Leading zero omitted, Abs format (unit mm)*
G04 Created by KiCad (PCBNEW (5.1.7)-1) date 2020-11-01 18:23:12*
%MOMM*%
%LPD*%
G01*
G04 APERTURE LIST*
%TA.AperFunction,ComponentPad*%
%ADD10R,2.000000X2.000000*%
%TD*%
%TA.AperFunction,ComponentPad*%
%ADD11O,2.000000X2.500000*%
%TD*%
%TA.AperFunction,ComponentPad*%
%ADD12C,3.000000*%
%TD*%
%TA.AperFunction,ComponentPad*%
%ADD13O,1.600000X2.000000*%
%TD*%
%TA.AperFunction,ComponentPad*%
%ADD14C,1.600000*%
%TD*%
%TA.AperFunction,ComponentPad*%
%ADD15R,1.600000X1.600000*%
%TD*%
%TA.AperFunction,ComponentPad*%
%ADD16O,1.700000X1.700000*%
%TD*%
%TA.AperFunction,ComponentPad*%
%ADD17R,1.700000X1.700000*%
%TD*%
%TA.AperFunction,ComponentPad*%
%ADD18O,2.400000X2.400000*%
%TD*%
%TA.AperFunction,ComponentPad*%
%ADD19C,2.400000*%
%TD*%
%TA.AperFunction,SMDPad,CuDef*%
%ADD20C,0.100000*%
%TD*%
%TA.AperFunction,ComponentPad*%
%ADD21O,2.000000X1.905000*%
%TD*%
%TA.AperFunction,ComponentPad*%
%ADD22R,2.000000X1.905000*%
%TD*%
%TA.AperFunction,ViaPad*%
%ADD23C,1.200000*%
%TD*%
%TA.AperFunction,ViaPad*%
%ADD24C,0.500000*%
%TD*%
%TA.AperFunction,ViaPad*%
%ADD25C,0.800000*%
%TD*%
%TA.AperFunction,Conductor*%
%ADD26C,3.000000*%
%TD*%
%TA.AperFunction,Conductor*%
%ADD27C,0.500000*%
%TD*%
%TA.AperFunction,Conductor*%
%ADD28C,1.000000*%
%TD*%
%TA.AperFunction,Conductor*%
%ADD29C,0.250000*%
%TD*%
%TA.AperFunction,Conductor*%
%ADD30C,4.000000*%
%TD*%
%TA.AperFunction,Conductor*%
%ADD31C,6.000000*%
%TD*%
%TA.AperFunction,Conductor*%
%ADD32C,2.000000*%
%TD*%
%TA.AperFunction,Conductor*%
%ADD33C,0.254000*%
%TD*%
%TA.AperFunction,Conductor*%
%ADD34C,0.100000*%
%TD*%
G04 APERTURE END LIST*
D10*
X133985000Y-102870000D03*
D11*
X131445000Y-102870000D03*
X128905000Y-102870000D03*
X126365000Y-102870000D03*
D12*
X141500000Y-78000000D03*
X141500000Y-83000000D03*
X146500000Y-78000000D03*
X146500000Y-83000000D03*
X151500000Y-78000000D03*
X151500000Y-83000000D03*
X156500000Y-78000000D03*
X156500000Y-83000000D03*
X161500000Y-78000000D03*
X161500000Y-83000000D03*
X166500000Y-78000000D03*
X166500000Y-83000000D03*
X171500000Y-78000000D03*
X171500000Y-83000000D03*
X176500000Y-78000000D03*
X176500000Y-83000000D03*
X181500000Y-78000000D03*
X181500000Y-83000000D03*
X186500000Y-78000000D03*
X186500000Y-83000000D03*
D13*
X148220000Y-106800000D03*
X148220000Y-132200000D03*
X150760000Y-106800000D03*
X150760000Y-132200000D03*
X153300000Y-106800000D03*
X153300000Y-132200000D03*
X155840000Y-106800000D03*
X155840000Y-132200000D03*
X158380000Y-106800000D03*
X158380000Y-132200000D03*
X160920000Y-106800000D03*
X160920000Y-132200000D03*
X163460000Y-106800000D03*
X163460000Y-132200000D03*
X166000000Y-106800000D03*
X166000000Y-132200000D03*
X168540000Y-106800000D03*
X168540000Y-132200000D03*
X171080000Y-106800000D03*
X171080000Y-132200000D03*
X173620000Y-106800000D03*
X173620000Y-132200000D03*
X176160000Y-106800000D03*
X176160000Y-132200000D03*
X178700000Y-106800000D03*
X178700000Y-132200000D03*
X181240000Y-106800000D03*
X181240000Y-132200000D03*
X183780000Y-106800000D03*
X183780000Y-132200000D03*
D14*
X127305000Y-83815937D03*
D15*
X130505000Y-79974063D03*
D14*
X128905000Y-83145000D03*
D15*
X128905000Y-80645000D03*
D16*
X143510000Y-121920000D03*
X146050000Y-121920000D03*
X148590000Y-121920000D03*
X151130000Y-121920000D03*
X153670000Y-121920000D03*
D17*
X156210000Y-121920000D03*
D16*
X143510000Y-125476000D03*
X146050000Y-125476000D03*
X148590000Y-125476000D03*
X151130000Y-125476000D03*
X153670000Y-125476000D03*
D17*
X156210000Y-125476000D03*
D16*
X143040000Y-132000000D03*
D17*
X140500000Y-132000000D03*
D18*
X127920000Y-72000000D03*
D19*
X133000000Y-72000000D03*
%TA.AperFunction,SMDPad,CuDef*%
D20*
G36*
X135275000Y-76500000D02*
G01*
X134775000Y-77250000D01*
X133775000Y-77250000D01*
X133775000Y-75750000D01*
X134775000Y-75750000D01*
X135275000Y-76500000D01*
G37*
%TD.AperFunction*%
%TA.AperFunction,SMDPad,CuDef*%
G36*
X136225000Y-77250000D02*
G01*
X135075000Y-77250000D01*
X135575000Y-76500000D01*
X135075000Y-75750000D01*
X136225000Y-75750000D01*
X136225000Y-77250000D01*
G37*
%TD.AperFunction*%
D21*
X182000000Y-97580000D03*
X182000000Y-95040000D03*
D22*
X182000000Y-92500000D03*
D21*
X174000000Y-97580000D03*
X174000000Y-95040000D03*
D22*
X174000000Y-92500000D03*
D21*
X166000000Y-97580000D03*
X166000000Y-95040000D03*
D22*
X166000000Y-92500000D03*
D21*
X158000000Y-97580000D03*
X158000000Y-95040000D03*
D22*
X158000000Y-92500000D03*
D21*
X150000000Y-97580000D03*
X150000000Y-95040000D03*
D22*
X150000000Y-92500000D03*
D21*
X142000000Y-97580000D03*
X142000000Y-95040000D03*
D22*
X142000000Y-92500000D03*
D16*
X127000000Y-132200000D03*
X127000000Y-129660000D03*
X127000000Y-127120000D03*
X127000000Y-124580000D03*
X127000000Y-122040000D03*
D17*
X127000000Y-119500000D03*
D23*
X144500000Y-97500000D03*
X142000000Y-100000000D03*
X150000000Y-100000000D03*
X152500000Y-97500000D03*
X158000000Y-100000000D03*
X160500000Y-97500000D03*
X166000000Y-100000000D03*
X168500000Y-97500000D03*
X163500000Y-97500000D03*
X155500000Y-97500000D03*
X147500000Y-97500000D03*
X139500000Y-97500000D03*
X171500000Y-97500000D03*
X174000000Y-100000000D03*
X176500000Y-97500000D03*
X179500000Y-97500000D03*
X182000000Y-100000000D03*
X184500000Y-97500000D03*
D24*
X184500000Y-91000000D03*
X184500000Y-90000000D03*
X184500000Y-89000000D03*
X184500000Y-88000000D03*
X184500000Y-87000000D03*
X179000000Y-113500000D03*
X179000000Y-116500000D03*
X179000000Y-119500000D03*
X179000000Y-122500000D03*
X179000000Y-125500000D03*
X164000000Y-113500000D03*
D25*
X156500000Y-111000000D03*
X177500000Y-108500000D03*
D24*
X179943749Y-94556251D03*
X179193749Y-93806251D03*
X178500000Y-93000000D03*
X172250000Y-85250000D03*
X173000000Y-86000000D03*
X166500000Y-85500000D03*
X166500000Y-86500000D03*
X171943749Y-94556251D03*
X171443749Y-94056251D03*
X171000000Y-93500000D03*
X163943749Y-94556251D03*
X163193749Y-93806251D03*
X163000000Y-93000000D03*
X161500000Y-85500000D03*
X162250000Y-86250000D03*
X159806251Y-94806251D03*
X160500000Y-94000000D03*
X160500000Y-93000000D03*
X156500000Y-85500000D03*
X157250000Y-86250000D03*
X152000000Y-95000000D03*
X152750000Y-94250000D03*
X153500000Y-93500000D03*
X151500000Y-85500000D03*
X151500000Y-86500000D03*
X144250000Y-94750000D03*
X145000000Y-94000000D03*
X145750000Y-93250000D03*
X146500000Y-85500000D03*
X146500000Y-86500000D03*
D25*
X150000000Y-111000000D03*
X176500000Y-113000000D03*
X162200000Y-130800000D03*
X174012653Y-125725000D03*
X175500000Y-125000000D03*
D26*
X181500000Y-83000000D02*
X181500000Y-78000000D01*
D27*
X130505000Y-79974063D02*
X130505000Y-78395000D01*
X132400000Y-76500000D02*
X134275000Y-76500000D01*
X130505000Y-78395000D02*
X132400000Y-76500000D01*
D28*
X156500000Y-111000000D02*
X175000000Y-111000000D01*
X175000000Y-111000000D02*
X177500000Y-108500000D01*
D29*
X127000000Y-127120000D02*
X129880000Y-130000000D01*
X171080000Y-132000000D02*
X171080000Y-132200000D01*
X129880000Y-130000000D02*
X169080000Y-130000000D01*
X169080000Y-130000000D02*
X171080000Y-132000000D01*
X127000000Y-124580000D02*
X131969990Y-129549990D01*
X173620000Y-132000000D02*
X173620000Y-132200000D01*
X131969990Y-129549990D02*
X171169990Y-129549990D01*
X171169990Y-129549990D02*
X173620000Y-132000000D01*
X127000000Y-122040000D02*
X134059980Y-129099980D01*
X134059980Y-129099980D02*
X172599980Y-129099980D01*
X172599980Y-129099980D02*
X174000000Y-130500000D01*
X181240000Y-132000000D02*
X181240000Y-132200000D01*
X174000000Y-130500000D02*
X179740000Y-130500000D01*
X179740000Y-130500000D02*
X181240000Y-132000000D01*
X181629990Y-130049990D02*
X183722204Y-132142205D01*
X183722204Y-132142205D02*
X183710296Y-132173341D01*
X174186400Y-130049990D02*
X181629990Y-130049990D01*
X127000000Y-119500000D02*
X128100000Y-119500000D01*
X128100000Y-119500000D02*
X129500000Y-120900000D01*
X129500000Y-120900000D02*
X129500000Y-123903590D01*
X129500000Y-123903590D02*
X134246380Y-128649970D01*
X134246380Y-128649970D02*
X172786381Y-128649971D01*
X172786381Y-128649971D02*
X174186400Y-130049990D01*
D30*
X176500000Y-78000000D02*
X176500000Y-73000000D01*
X186500000Y-78000000D02*
X186500000Y-73500000D01*
X141500000Y-78000000D02*
X141500000Y-73000000D01*
D31*
X142500000Y-73000000D02*
X185500000Y-73000000D01*
D27*
X136325000Y-76500000D02*
X135725000Y-76500000D01*
X141500000Y-78000000D02*
X140000001Y-76500001D01*
X140000001Y-76500001D02*
X136325000Y-76500000D01*
X136199999Y-73199999D02*
X139500001Y-76500001D01*
X134199999Y-73199999D02*
X136199999Y-73199999D01*
X133000000Y-72000000D02*
X134199999Y-73199999D01*
X139000001Y-76500001D02*
X139500001Y-76500001D01*
X139500001Y-76500001D02*
X140000001Y-76500001D01*
D30*
X186500000Y-78000000D02*
X186500000Y-83000000D01*
X176500000Y-78000000D02*
X176500000Y-83000000D01*
X141500000Y-78000000D02*
X141500000Y-83000000D01*
D32*
X180427498Y-95040000D02*
X178500000Y-93112502D01*
X182000000Y-95040000D02*
X180427498Y-95040000D01*
X178500000Y-93112502D02*
X178500000Y-91500000D01*
X178500000Y-91500000D02*
X171500000Y-84500000D01*
X171500000Y-84500000D02*
X171500000Y-83000000D01*
D26*
X171500000Y-83000000D02*
X171500000Y-78000000D01*
D32*
X166500000Y-87000000D02*
X166500000Y-83000000D01*
X171000000Y-91500000D02*
X166500000Y-87000000D01*
X171000000Y-93612502D02*
X171000000Y-91500000D01*
X174000000Y-95040000D02*
X172427498Y-95040000D01*
X172427498Y-95040000D02*
X171000000Y-93612502D01*
D26*
X166500000Y-78000000D02*
X166500000Y-83000000D01*
D32*
X164427498Y-95040000D02*
X163000000Y-93612502D01*
X166000000Y-95040000D02*
X164427498Y-95040000D01*
X163000000Y-93612502D02*
X163000000Y-87000000D01*
X163000000Y-87000000D02*
X161500000Y-85500000D01*
X161500000Y-85500000D02*
X161500000Y-83000000D01*
D26*
X161500000Y-83000000D02*
X161500000Y-78000000D01*
D32*
X156500000Y-85500000D02*
X156500000Y-83000000D01*
X160500000Y-89500000D02*
X156500000Y-85500000D01*
X160500000Y-94112502D02*
X160500000Y-89500000D01*
X158000000Y-95040000D02*
X159572502Y-95040000D01*
X159572502Y-95040000D02*
X160500000Y-94112502D01*
D26*
X156500000Y-78000000D02*
X156500000Y-83000000D01*
D32*
X150000000Y-95040000D02*
X151960000Y-95040000D01*
X151960000Y-95040000D02*
X153500000Y-93500000D01*
X153500000Y-93500000D02*
X153500000Y-89500000D01*
X153500000Y-89500000D02*
X151500000Y-87500000D01*
X151500000Y-87500000D02*
X151500000Y-83000000D01*
D26*
X151500000Y-83000000D02*
X151500000Y-78000000D01*
D32*
X142000000Y-95040000D02*
X143960000Y-95040000D01*
X146500000Y-92500000D02*
X146500000Y-83000000D01*
X143960000Y-95040000D02*
X146500000Y-92500000D01*
D26*
X146500000Y-78000000D02*
X146500000Y-83000000D01*
D29*
X150000000Y-111000000D02*
X151500000Y-112500000D01*
X151500000Y-112500000D02*
X176000000Y-112500000D01*
X176000000Y-112500000D02*
X176500000Y-113000000D01*
X143040000Y-132000000D02*
X144540000Y-130500000D01*
X144540000Y-130500000D02*
X161900000Y-130500000D01*
X161900000Y-130500000D02*
X162200000Y-130800000D01*
X173112643Y-126625010D02*
X174012653Y-125725000D01*
X173112643Y-126625010D02*
X159761400Y-126625010D01*
X158682400Y-127704010D02*
X152088010Y-127704010D01*
X159761400Y-126625010D02*
X158682400Y-127704010D01*
X151130000Y-126746000D02*
X151130000Y-125476000D01*
X152088010Y-127704010D02*
X151130000Y-126746000D01*
X151130000Y-125476000D02*
X151130000Y-121920000D01*
X172324999Y-126175001D02*
X173500000Y-125000000D01*
X173500000Y-125000000D02*
X175500000Y-125000000D01*
X172324999Y-126175001D02*
X159574999Y-126175001D01*
X159574999Y-126175001D02*
X158496000Y-127254000D01*
X158496000Y-127254000D02*
X154432000Y-127254000D01*
X153670000Y-126492000D02*
X153670000Y-125476000D01*
X154432000Y-127254000D02*
X153670000Y-126492000D01*
X153670000Y-125476000D02*
X153670000Y-121920000D01*
D33*
X187453893Y-68207670D02*
X187890498Y-68339489D01*
X188293185Y-68553600D01*
X188646612Y-68841848D01*
X188937327Y-69193261D01*
X189154242Y-69594439D01*
X189289106Y-70030113D01*
X189340000Y-70514344D01*
X189340001Y-104873000D01*
X138000000Y-104873000D01*
X137975224Y-104875440D01*
X137951399Y-104882667D01*
X137929443Y-104894403D01*
X137910197Y-104910197D01*
X137894403Y-104929443D01*
X137882667Y-104951399D01*
X137875440Y-104975224D01*
X137873000Y-105000000D01*
X137873000Y-105500000D01*
X137875440Y-105524776D01*
X137882667Y-105548601D01*
X137894403Y-105570557D01*
X137910197Y-105589803D01*
X137929443Y-105605597D01*
X137951399Y-105617333D01*
X137975224Y-105624560D01*
X138000000Y-105627000D01*
X147162143Y-105627000D01*
X147021068Y-105798900D01*
X146887818Y-106048193D01*
X146805764Y-106318692D01*
X146785000Y-106529509D01*
X146785000Y-107070492D01*
X146805764Y-107281309D01*
X146887818Y-107551808D01*
X147021068Y-107801101D01*
X147200393Y-108019608D01*
X147418900Y-108198932D01*
X147668193Y-108332182D01*
X147938692Y-108414236D01*
X148220000Y-108441943D01*
X148501309Y-108414236D01*
X148771808Y-108332182D01*
X149021101Y-108198932D01*
X149239608Y-108019608D01*
X149418932Y-107801101D01*
X149488122Y-107671655D01*
X149495570Y-107689227D01*
X149654327Y-107922662D01*
X149855575Y-108120639D01*
X150091579Y-108275551D01*
X150353270Y-108381444D01*
X150410961Y-108391904D01*
X150633000Y-108269915D01*
X150633000Y-106927000D01*
X150613000Y-106927000D01*
X150613000Y-106673000D01*
X150633000Y-106673000D01*
X150633000Y-106653000D01*
X150887000Y-106653000D01*
X150887000Y-106673000D01*
X150907000Y-106673000D01*
X150907000Y-106927000D01*
X150887000Y-106927000D01*
X150887000Y-108269915D01*
X151109039Y-108391904D01*
X151166730Y-108381444D01*
X151428421Y-108275551D01*
X151664425Y-108120639D01*
X151865673Y-107922662D01*
X152024430Y-107689227D01*
X152031878Y-107671655D01*
X152101068Y-107801101D01*
X152280393Y-108019608D01*
X152498900Y-108198932D01*
X152748193Y-108332182D01*
X153018692Y-108414236D01*
X153300000Y-108441943D01*
X153581309Y-108414236D01*
X153851808Y-108332182D01*
X154101101Y-108198932D01*
X154319608Y-108019608D01*
X154498932Y-107801101D01*
X154570000Y-107668142D01*
X154641068Y-107801101D01*
X154820393Y-108019608D01*
X155038900Y-108198932D01*
X155288193Y-108332182D01*
X155558692Y-108414236D01*
X155840000Y-108441943D01*
X156121309Y-108414236D01*
X156391808Y-108332182D01*
X156641101Y-108198932D01*
X156859608Y-108019608D01*
X157038932Y-107801101D01*
X157110000Y-107668142D01*
X157181068Y-107801101D01*
X157360393Y-108019608D01*
X157578900Y-108198932D01*
X157828193Y-108332182D01*
X158098692Y-108414236D01*
X158380000Y-108441943D01*
X158661309Y-108414236D01*
X158931808Y-108332182D01*
X159181101Y-108198932D01*
X159399608Y-108019608D01*
X159578932Y-107801101D01*
X159650000Y-107668142D01*
X159721068Y-107801101D01*
X159900393Y-108019608D01*
X160118900Y-108198932D01*
X160368193Y-108332182D01*
X160638692Y-108414236D01*
X160920000Y-108441943D01*
X161201309Y-108414236D01*
X161471808Y-108332182D01*
X161721101Y-108198932D01*
X161939608Y-108019608D01*
X162118932Y-107801101D01*
X162190000Y-107668142D01*
X162261068Y-107801101D01*
X162440393Y-108019608D01*
X162658900Y-108198932D01*
X162908193Y-108332182D01*
X163178692Y-108414236D01*
X163460000Y-108441943D01*
X163741309Y-108414236D01*
X164011808Y-108332182D01*
X164261101Y-108198932D01*
X164479608Y-108019608D01*
X164658932Y-107801101D01*
X164730000Y-107668142D01*
X164801068Y-107801101D01*
X164980393Y-108019608D01*
X165198900Y-108198932D01*
X165448193Y-108332182D01*
X165718692Y-108414236D01*
X166000000Y-108441943D01*
X166281309Y-108414236D01*
X166551808Y-108332182D01*
X166801101Y-108198932D01*
X167019608Y-108019608D01*
X167198932Y-107801101D01*
X167270000Y-107668142D01*
X167341068Y-107801101D01*
X167520393Y-108019608D01*
X167738900Y-108198932D01*
X167988193Y-108332182D01*
X168258692Y-108414236D01*
X168540000Y-108441943D01*
X168821309Y-108414236D01*
X169091808Y-108332182D01*
X169341101Y-108198932D01*
X169559608Y-108019608D01*
X169738932Y-107801101D01*
X169810000Y-107668142D01*
X169881068Y-107801101D01*
X170060393Y-108019608D01*
X170278900Y-108198932D01*
X170528193Y-108332182D01*
X170798692Y-108414236D01*
X171080000Y-108441943D01*
X171361309Y-108414236D01*
X171631808Y-108332182D01*
X171881101Y-108198932D01*
X172099608Y-108019608D01*
X172278932Y-107801101D01*
X172350000Y-107668142D01*
X172421068Y-107801101D01*
X172600393Y-108019608D01*
X172818900Y-108198932D01*
X173068193Y-108332182D01*
X173338692Y-108414236D01*
X173620000Y-108441943D01*
X173901309Y-108414236D01*
X174171808Y-108332182D01*
X174421101Y-108198932D01*
X174639608Y-108019608D01*
X174818932Y-107801101D01*
X174890000Y-107668142D01*
X174961068Y-107801101D01*
X175140393Y-108019608D01*
X175358900Y-108198932D01*
X175608193Y-108332182D01*
X175878692Y-108414236D01*
X175971492Y-108423376D01*
X174529869Y-109865000D01*
X156444248Y-109865000D01*
X156277501Y-109881423D01*
X156063553Y-109946324D01*
X155866377Y-110051716D01*
X155693551Y-110193551D01*
X155551716Y-110366377D01*
X155446324Y-110563553D01*
X155381423Y-110777501D01*
X155359509Y-111000000D01*
X155381423Y-111222499D01*
X155446324Y-111436447D01*
X155551716Y-111633623D01*
X155639018Y-111740000D01*
X151814802Y-111740000D01*
X151035000Y-110960199D01*
X151035000Y-110898061D01*
X150995226Y-110698102D01*
X150917205Y-110509744D01*
X150803937Y-110340226D01*
X150659774Y-110196063D01*
X150490256Y-110082795D01*
X150301898Y-110004774D01*
X150101939Y-109965000D01*
X149898061Y-109965000D01*
X149698102Y-110004774D01*
X149509744Y-110082795D01*
X149340226Y-110196063D01*
X149196063Y-110340226D01*
X149082795Y-110509744D01*
X149004774Y-110698102D01*
X148965000Y-110898061D01*
X148965000Y-111101939D01*
X149004774Y-111301898D01*
X149082795Y-111490256D01*
X149196063Y-111659774D01*
X149340226Y-111803937D01*
X149509744Y-111917205D01*
X149698102Y-111995226D01*
X149898061Y-112035000D01*
X149960199Y-112035000D01*
X150936200Y-113011002D01*
X150959999Y-113040001D01*
X151075724Y-113134974D01*
X151207753Y-113205546D01*
X151351014Y-113249003D01*
X151462667Y-113260000D01*
X151462676Y-113260000D01*
X151499999Y-113263676D01*
X151537322Y-113260000D01*
X175496440Y-113260000D01*
X175504774Y-113301898D01*
X175582795Y-113490256D01*
X175696063Y-113659774D01*
X175840226Y-113803937D01*
X176009744Y-113917205D01*
X176198102Y-113995226D01*
X176398061Y-114035000D01*
X176601939Y-114035000D01*
X176801898Y-113995226D01*
X176990256Y-113917205D01*
X177159774Y-113803937D01*
X177303937Y-113659774D01*
X177417205Y-113490256D01*
X177495226Y-113301898D01*
X177535000Y-113101939D01*
X177535000Y-112898061D01*
X177495226Y-112698102D01*
X177417205Y-112509744D01*
X177303937Y-112340226D01*
X177159774Y-112196063D01*
X176990256Y-112082795D01*
X176801898Y-112004774D01*
X176601939Y-111965000D01*
X176544105Y-111965000D01*
X176540001Y-111959999D01*
X176424276Y-111865026D01*
X176292247Y-111794454D01*
X176148986Y-111750997D01*
X176037333Y-111740000D01*
X176037322Y-111740000D01*
X176000000Y-111736324D01*
X175962678Y-111740000D01*
X175865131Y-111740000D01*
X178341988Y-109263144D01*
X178448284Y-109133623D01*
X178553676Y-108936447D01*
X178618577Y-108722499D01*
X178640491Y-108500000D01*
X178634134Y-108435456D01*
X178700000Y-108441943D01*
X178981309Y-108414236D01*
X179251808Y-108332182D01*
X179501101Y-108198932D01*
X179719608Y-108019608D01*
X179873000Y-107832699D01*
X179873000Y-129289990D01*
X174501202Y-129289990D01*
X173350178Y-128138967D01*
X173326382Y-128109971D01*
X173297383Y-128086172D01*
X173210657Y-128014997D01*
X173078627Y-127944425D01*
X172978823Y-127914151D01*
X172935367Y-127900969D01*
X172823714Y-127889972D01*
X172786381Y-127886295D01*
X172749048Y-127889972D01*
X159571240Y-127889971D01*
X160076203Y-127385010D01*
X173075321Y-127385010D01*
X173112643Y-127388686D01*
X173149965Y-127385010D01*
X173149976Y-127385010D01*
X173261629Y-127374013D01*
X173404890Y-127330556D01*
X173536919Y-127259984D01*
X173652644Y-127165011D01*
X173676446Y-127136008D01*
X174052454Y-126760000D01*
X174114592Y-126760000D01*
X174314551Y-126720226D01*
X174502909Y-126642205D01*
X174672427Y-126528937D01*
X174816590Y-126384774D01*
X174929858Y-126215256D01*
X175007879Y-126026898D01*
X175028179Y-125924841D01*
X175198102Y-125995226D01*
X175398061Y-126035000D01*
X175601939Y-126035000D01*
X175801898Y-125995226D01*
X175990256Y-125917205D01*
X176159774Y-125803937D01*
X176303937Y-125659774D01*
X176417205Y-125490256D01*
X176495226Y-125301898D01*
X176535000Y-125101939D01*
X176535000Y-124898061D01*
X176495226Y-124698102D01*
X176417205Y-124509744D01*
X176303937Y-124340226D01*
X176159774Y-124196063D01*
X175990256Y-124082795D01*
X175801898Y-124004774D01*
X175601939Y-123965000D01*
X175398061Y-123965000D01*
X175198102Y-124004774D01*
X175009744Y-124082795D01*
X174840226Y-124196063D01*
X174796289Y-124240000D01*
X173537322Y-124240000D01*
X173499999Y-124236324D01*
X173462676Y-124240000D01*
X173462667Y-124240000D01*
X173351014Y-124250997D01*
X173207753Y-124294454D01*
X173075724Y-124365026D01*
X172959999Y-124459999D01*
X172936201Y-124488997D01*
X172010198Y-125415001D01*
X159612321Y-125415001D01*
X159574998Y-125411325D01*
X159537676Y-125415001D01*
X159537666Y-125415001D01*
X159426013Y-125425998D01*
X159282752Y-125469455D01*
X159150722Y-125540027D01*
X159106871Y-125576015D01*
X159034998Y-125635000D01*
X159011200Y-125663998D01*
X158181199Y-126494000D01*
X157672611Y-126494000D01*
X157685812Y-126450482D01*
X157698072Y-126326000D01*
X157698072Y-124626000D01*
X157685812Y-124501518D01*
X157649502Y-124381820D01*
X157590537Y-124271506D01*
X157511185Y-124174815D01*
X157414494Y-124095463D01*
X157304180Y-124036498D01*
X157184482Y-124000188D01*
X157060000Y-123987928D01*
X155360000Y-123987928D01*
X155235518Y-124000188D01*
X155115820Y-124036498D01*
X155005506Y-124095463D01*
X154908815Y-124174815D01*
X154829463Y-124271506D01*
X154770498Y-124381820D01*
X154748487Y-124454380D01*
X154616632Y-124322525D01*
X154430000Y-124197822D01*
X154430000Y-123198178D01*
X154616632Y-123073475D01*
X154748487Y-122941620D01*
X154770498Y-123014180D01*
X154829463Y-123124494D01*
X154908815Y-123221185D01*
X155005506Y-123300537D01*
X155115820Y-123359502D01*
X155235518Y-123395812D01*
X155360000Y-123408072D01*
X157060000Y-123408072D01*
X157184482Y-123395812D01*
X157304180Y-123359502D01*
X157414494Y-123300537D01*
X157511185Y-123221185D01*
X157590537Y-123124494D01*
X157649502Y-123014180D01*
X157685812Y-122894482D01*
X157698072Y-122770000D01*
X157698072Y-121070000D01*
X157685812Y-120945518D01*
X157649502Y-120825820D01*
X157590537Y-120715506D01*
X157511185Y-120618815D01*
X157414494Y-120539463D01*
X157304180Y-120480498D01*
X157184482Y-120444188D01*
X157060000Y-120431928D01*
X155360000Y-120431928D01*
X155235518Y-120444188D01*
X155115820Y-120480498D01*
X155005506Y-120539463D01*
X154908815Y-120618815D01*
X154829463Y-120715506D01*
X154770498Y-120825820D01*
X154748487Y-120898380D01*
X154616632Y-120766525D01*
X154373411Y-120604010D01*
X154103158Y-120492068D01*
X153816260Y-120435000D01*
X153523740Y-120435000D01*
X153236842Y-120492068D01*
X152966589Y-120604010D01*
X152723368Y-120766525D01*
X152516525Y-120973368D01*
X152400000Y-121147760D01*
X152283475Y-120973368D01*
X152076632Y-120766525D01*
X151833411Y-120604010D01*
X151563158Y-120492068D01*
X151276260Y-120435000D01*
X150983740Y-120435000D01*
X150696842Y-120492068D01*
X150426589Y-120604010D01*
X150183368Y-120766525D01*
X149976525Y-120973368D01*
X149860000Y-121147760D01*
X149743475Y-120973368D01*
X149536632Y-120766525D01*
X149293411Y-120604010D01*
X149023158Y-120492068D01*
X148736260Y-120435000D01*
X148443740Y-120435000D01*
X148156842Y-120492068D01*
X147886589Y-120604010D01*
X147643368Y-120766525D01*
X147436525Y-120973368D01*
X147320000Y-121147760D01*
X147203475Y-120973368D01*
X146996632Y-120766525D01*
X146753411Y-120604010D01*
X146483158Y-120492068D01*
X146196260Y-120435000D01*
X145903740Y-120435000D01*
X145616842Y-120492068D01*
X145346589Y-120604010D01*
X145103368Y-120766525D01*
X144896525Y-120973368D01*
X144774805Y-121155534D01*
X144705178Y-121038645D01*
X144510269Y-120822412D01*
X144276920Y-120648359D01*
X144014099Y-120523175D01*
X143866890Y-120478524D01*
X143637000Y-120599845D01*
X143637000Y-121793000D01*
X143657000Y-121793000D01*
X143657000Y-122047000D01*
X143637000Y-122047000D01*
X143637000Y-123240155D01*
X143866890Y-123361476D01*
X144014099Y-123316825D01*
X144276920Y-123191641D01*
X144510269Y-123017588D01*
X144705178Y-122801355D01*
X144774805Y-122684466D01*
X144896525Y-122866632D01*
X145103368Y-123073475D01*
X145346589Y-123235990D01*
X145616842Y-123347932D01*
X145903740Y-123405000D01*
X146196260Y-123405000D01*
X146483158Y-123347932D01*
X146753411Y-123235990D01*
X146996632Y-123073475D01*
X147203475Y-122866632D01*
X147320000Y-122692240D01*
X147436525Y-122866632D01*
X147643368Y-123073475D01*
X147886589Y-123235990D01*
X148156842Y-123347932D01*
X148443740Y-123405000D01*
X148736260Y-123405000D01*
X149023158Y-123347932D01*
X149293411Y-123235990D01*
X149536632Y-123073475D01*
X149743475Y-122866632D01*
X149860000Y-122692240D01*
X149976525Y-122866632D01*
X150183368Y-123073475D01*
X150370001Y-123198179D01*
X150370000Y-124197821D01*
X150183368Y-124322525D01*
X149976525Y-124529368D01*
X149860000Y-124703760D01*
X149743475Y-124529368D01*
X149536632Y-124322525D01*
X149293411Y-124160010D01*
X149023158Y-124048068D01*
X148736260Y-123991000D01*
X148443740Y-123991000D01*
X148156842Y-124048068D01*
X147886589Y-124160010D01*
X147643368Y-124322525D01*
X147436525Y-124529368D01*
X147314805Y-124711534D01*
X147245178Y-124594645D01*
X147050269Y-124378412D01*
X146816920Y-124204359D01*
X146554099Y-124079175D01*
X146406890Y-124034524D01*
X146177000Y-124155845D01*
X146177000Y-125349000D01*
X146197000Y-125349000D01*
X146197000Y-125603000D01*
X146177000Y-125603000D01*
X146177000Y-126796155D01*
X146406890Y-126917476D01*
X146554099Y-126872825D01*
X146816920Y-126747641D01*
X147050269Y-126573588D01*
X147245178Y-126357355D01*
X147314805Y-126240466D01*
X147436525Y-126422632D01*
X147643368Y-126629475D01*
X147886589Y-126791990D01*
X148156842Y-126903932D01*
X148443740Y-126961000D01*
X148736260Y-126961000D01*
X149023158Y-126903932D01*
X149293411Y-126791990D01*
X149536632Y-126629475D01*
X149743475Y-126422632D01*
X149860000Y-126248240D01*
X149976525Y-126422632D01*
X150183368Y-126629475D01*
X150366927Y-126752125D01*
X150370000Y-126783322D01*
X150370000Y-126783332D01*
X150380997Y-126894985D01*
X150413763Y-127003002D01*
X150424454Y-127038246D01*
X150495026Y-127170276D01*
X150534871Y-127218826D01*
X150589999Y-127286001D01*
X150619002Y-127309804D01*
X151199169Y-127889971D01*
X134561182Y-127889970D01*
X132000952Y-125329740D01*
X142025000Y-125329740D01*
X142025000Y-125622260D01*
X142082068Y-125909158D01*
X142194010Y-126179411D01*
X142356525Y-126422632D01*
X142563368Y-126629475D01*
X142806589Y-126791990D01*
X143076842Y-126903932D01*
X143363740Y-126961000D01*
X143656260Y-126961000D01*
X143943158Y-126903932D01*
X144213411Y-126791990D01*
X144456632Y-126629475D01*
X144663475Y-126422632D01*
X144785195Y-126240466D01*
X144854822Y-126357355D01*
X145049731Y-126573588D01*
X145283080Y-126747641D01*
X145545901Y-126872825D01*
X145693110Y-126917476D01*
X145923000Y-126796155D01*
X145923000Y-125603000D01*
X145903000Y-125603000D01*
X145903000Y-125349000D01*
X145923000Y-125349000D01*
X145923000Y-124155845D01*
X145693110Y-124034524D01*
X145545901Y-124079175D01*
X145283080Y-124204359D01*
X145049731Y-124378412D01*
X144854822Y-124594645D01*
X144785195Y-124711534D01*
X144663475Y-124529368D01*
X144456632Y-124322525D01*
X144213411Y-124160010D01*
X143943158Y-124048068D01*
X143656260Y-123991000D01*
X143363740Y-123991000D01*
X143076842Y-124048068D01*
X142806589Y-124160010D01*
X142563368Y-124322525D01*
X142356525Y-124529368D01*
X142194010Y-124772589D01*
X142082068Y-125042842D01*
X142025000Y-125329740D01*
X132000952Y-125329740D01*
X130260000Y-123588789D01*
X130260000Y-122276891D01*
X142068519Y-122276891D01*
X142165843Y-122551252D01*
X142314822Y-122801355D01*
X142509731Y-123017588D01*
X142743080Y-123191641D01*
X143005901Y-123316825D01*
X143153110Y-123361476D01*
X143383000Y-123240155D01*
X143383000Y-122047000D01*
X142189186Y-122047000D01*
X142068519Y-122276891D01*
X130260000Y-122276891D01*
X130260000Y-121563109D01*
X142068519Y-121563109D01*
X142189186Y-121793000D01*
X143383000Y-121793000D01*
X143383000Y-120599845D01*
X143153110Y-120478524D01*
X143005901Y-120523175D01*
X142743080Y-120648359D01*
X142509731Y-120822412D01*
X142314822Y-121038645D01*
X142165843Y-121288748D01*
X142068519Y-121563109D01*
X130260000Y-121563109D01*
X130260000Y-120937322D01*
X130263676Y-120900000D01*
X130260000Y-120862677D01*
X130260000Y-120862667D01*
X130249003Y-120751014D01*
X130205546Y-120607753D01*
X130169044Y-120539463D01*
X130134974Y-120475723D01*
X130063799Y-120388997D01*
X130040001Y-120359999D01*
X130011004Y-120336202D01*
X128663804Y-118989003D01*
X128640001Y-118959999D01*
X128524276Y-118865026D01*
X128488072Y-118845674D01*
X128488072Y-118650000D01*
X128475812Y-118525518D01*
X128439502Y-118405820D01*
X128380537Y-118295506D01*
X128301185Y-118198815D01*
X128204494Y-118119463D01*
X128094180Y-118060498D01*
X127974482Y-118024188D01*
X127850000Y-118011928D01*
X126150000Y-118011928D01*
X126025518Y-118024188D01*
X125905820Y-118060498D01*
X125795506Y-118119463D01*
X125698815Y-118198815D01*
X125619463Y-118295506D01*
X125560498Y-118405820D01*
X125524188Y-118525518D01*
X125511928Y-118650000D01*
X125511928Y-120350000D01*
X125524188Y-120474482D01*
X125560498Y-120594180D01*
X125619463Y-120704494D01*
X125698815Y-120801185D01*
X125795506Y-120880537D01*
X125905820Y-120939502D01*
X125978380Y-120961513D01*
X125846525Y-121093368D01*
X125684010Y-121336589D01*
X125572068Y-121606842D01*
X125515000Y-121893740D01*
X125515000Y-122186260D01*
X125572068Y-122473158D01*
X125684010Y-122743411D01*
X125846525Y-122986632D01*
X126053368Y-123193475D01*
X126227760Y-123310000D01*
X126053368Y-123426525D01*
X125846525Y-123633368D01*
X125684010Y-123876589D01*
X125572068Y-124146842D01*
X125515000Y-124433740D01*
X125515000Y-124726260D01*
X125572068Y-125013158D01*
X125684010Y-125283411D01*
X125846525Y-125526632D01*
X126053368Y-125733475D01*
X126227760Y-125850000D01*
X126053368Y-125966525D01*
X125846525Y-126173368D01*
X125684010Y-126416589D01*
X125572068Y-126686842D01*
X125515000Y-126973740D01*
X125515000Y-127266260D01*
X125572068Y-127553158D01*
X125684010Y-127823411D01*
X125846525Y-128066632D01*
X126053368Y-128273475D01*
X126235534Y-128395195D01*
X126118645Y-128464822D01*
X125902412Y-128659731D01*
X125728359Y-128893080D01*
X125603175Y-129155901D01*
X125558524Y-129303110D01*
X125679845Y-129533000D01*
X126873000Y-129533000D01*
X126873000Y-129513000D01*
X127127000Y-129513000D01*
X127127000Y-129533000D01*
X127147000Y-129533000D01*
X127147000Y-129787000D01*
X127127000Y-129787000D01*
X127127000Y-129807000D01*
X126873000Y-129807000D01*
X126873000Y-129787000D01*
X125679845Y-129787000D01*
X125558524Y-130016890D01*
X125603175Y-130164099D01*
X125728359Y-130426920D01*
X125902412Y-130660269D01*
X126118645Y-130855178D01*
X126235534Y-130924805D01*
X126053368Y-131046525D01*
X125846525Y-131253368D01*
X125684010Y-131496589D01*
X125572068Y-131766842D01*
X125515000Y-132053740D01*
X125515000Y-132346260D01*
X125572068Y-132633158D01*
X125684010Y-132903411D01*
X125846525Y-133146632D01*
X126053368Y-133353475D01*
X126296589Y-133515990D01*
X126566842Y-133627932D01*
X126853740Y-133685000D01*
X127146260Y-133685000D01*
X127433158Y-133627932D01*
X127703411Y-133515990D01*
X127946632Y-133353475D01*
X128153475Y-133146632D01*
X128315990Y-132903411D01*
X128338113Y-132850000D01*
X139011928Y-132850000D01*
X139024188Y-132974482D01*
X139060498Y-133094180D01*
X139119463Y-133204494D01*
X139198815Y-133301185D01*
X139295506Y-133380537D01*
X139405820Y-133439502D01*
X139525518Y-133475812D01*
X139650000Y-133488072D01*
X140214250Y-133485000D01*
X140373000Y-133326250D01*
X140373000Y-132127000D01*
X139173750Y-132127000D01*
X139015000Y-132285750D01*
X139011928Y-132850000D01*
X128338113Y-132850000D01*
X128427932Y-132633158D01*
X128485000Y-132346260D01*
X128485000Y-132053740D01*
X128427932Y-131766842D01*
X128315990Y-131496589D01*
X128153475Y-131253368D01*
X127946632Y-131046525D01*
X127764466Y-130924805D01*
X127881355Y-130855178D01*
X128097588Y-130660269D01*
X128271641Y-130426920D01*
X128396825Y-130164099D01*
X128441476Y-130016890D01*
X128320156Y-129787002D01*
X128485000Y-129787002D01*
X128485000Y-129679801D01*
X129316200Y-130511002D01*
X129339999Y-130540001D01*
X129368997Y-130563799D01*
X129455723Y-130634974D01*
X129549247Y-130684964D01*
X129587753Y-130705546D01*
X129731014Y-130749003D01*
X129842667Y-130760000D01*
X129842676Y-130760000D01*
X129879999Y-130763676D01*
X129917322Y-130760000D01*
X139148602Y-130760000D01*
X139119463Y-130795506D01*
X139060498Y-130905820D01*
X139024188Y-131025518D01*
X139011928Y-131150000D01*
X139015000Y-131714250D01*
X139173750Y-131873000D01*
X140373000Y-131873000D01*
X140373000Y-131853000D01*
X140627000Y-131853000D01*
X140627000Y-131873000D01*
X140647000Y-131873000D01*
X140647000Y-132127000D01*
X140627000Y-132127000D01*
X140627000Y-133326250D01*
X140785750Y-133485000D01*
X141350000Y-133488072D01*
X141474482Y-133475812D01*
X141594180Y-133439502D01*
X141704494Y-133380537D01*
X141801185Y-133301185D01*
X141880537Y-133204494D01*
X141939502Y-133094180D01*
X141961513Y-133021620D01*
X142093368Y-133153475D01*
X142336589Y-133315990D01*
X142606842Y-133427932D01*
X142893740Y-133485000D01*
X143186260Y-133485000D01*
X143473158Y-133427932D01*
X143743411Y-133315990D01*
X143986632Y-133153475D01*
X144193475Y-132946632D01*
X144355990Y-132703411D01*
X144467932Y-132433158D01*
X144525000Y-132146260D01*
X144525000Y-131853740D01*
X144481210Y-131633592D01*
X144854802Y-131260000D01*
X146988409Y-131260000D01*
X146887818Y-131448193D01*
X146805764Y-131718692D01*
X146785000Y-131929509D01*
X146785000Y-132470492D01*
X146805764Y-132681309D01*
X146887818Y-132951808D01*
X147021068Y-133201101D01*
X147200393Y-133419608D01*
X147418900Y-133598932D01*
X147668193Y-133732182D01*
X147938692Y-133814236D01*
X148220000Y-133841943D01*
X148501309Y-133814236D01*
X148771808Y-133732182D01*
X149021101Y-133598932D01*
X149239608Y-133419608D01*
X149418932Y-133201101D01*
X149488122Y-133071655D01*
X149495570Y-133089227D01*
X149654327Y-133322662D01*
X149855575Y-133520639D01*
X150091579Y-133675551D01*
X150353270Y-133781444D01*
X150410961Y-133791904D01*
X150633000Y-133669915D01*
X150633000Y-132327000D01*
X150613000Y-132327000D01*
X150613000Y-132073000D01*
X150633000Y-132073000D01*
X150633000Y-132053000D01*
X150887000Y-132053000D01*
X150887000Y-132073000D01*
X150907000Y-132073000D01*
X150907000Y-132327000D01*
X150887000Y-132327000D01*
X150887000Y-133669915D01*
X151109039Y-133791904D01*
X151166730Y-133781444D01*
X151428421Y-133675551D01*
X151664425Y-133520639D01*
X151865673Y-133322662D01*
X152024430Y-133089227D01*
X152031878Y-133071655D01*
X152101068Y-133201101D01*
X152280393Y-133419608D01*
X152498900Y-133598932D01*
X152748193Y-133732182D01*
X153018692Y-133814236D01*
X153300000Y-133841943D01*
X153581309Y-133814236D01*
X153851808Y-133732182D01*
X154101101Y-133598932D01*
X154319608Y-133419608D01*
X154498932Y-133201101D01*
X154570000Y-133068142D01*
X154641068Y-133201101D01*
X154820393Y-133419608D01*
X155038900Y-133598932D01*
X155288193Y-133732182D01*
X155558692Y-133814236D01*
X155840000Y-133841943D01*
X156121309Y-133814236D01*
X156391808Y-133732182D01*
X156641101Y-133598932D01*
X156859608Y-133419608D01*
X157038932Y-133201101D01*
X157110000Y-133068142D01*
X157181068Y-133201101D01*
X157360393Y-133419608D01*
X157578900Y-133598932D01*
X157828193Y-133732182D01*
X158098692Y-133814236D01*
X158380000Y-133841943D01*
X158661309Y-133814236D01*
X158931808Y-133732182D01*
X159181101Y-133598932D01*
X159399608Y-133419608D01*
X159578932Y-133201101D01*
X159650000Y-133068142D01*
X159721068Y-133201101D01*
X159900393Y-133419608D01*
X160118900Y-133598932D01*
X160368193Y-133732182D01*
X160638692Y-133814236D01*
X160920000Y-133841943D01*
X161201309Y-133814236D01*
X161471808Y-133732182D01*
X161721101Y-133598932D01*
X161939608Y-133419608D01*
X162118932Y-133201101D01*
X162190000Y-133068142D01*
X162261068Y-133201101D01*
X162440393Y-133419608D01*
X162658900Y-133598932D01*
X162908193Y-133732182D01*
X163178692Y-133814236D01*
X163460000Y-133841943D01*
X163741309Y-133814236D01*
X164011808Y-133732182D01*
X164261101Y-133598932D01*
X164479608Y-133419608D01*
X164658932Y-133201101D01*
X164730000Y-133068142D01*
X164801068Y-133201101D01*
X164980393Y-133419608D01*
X165198900Y-133598932D01*
X165448193Y-133732182D01*
X165718692Y-133814236D01*
X166000000Y-133841943D01*
X166281309Y-133814236D01*
X166551808Y-133732182D01*
X166801101Y-133598932D01*
X167019608Y-133419608D01*
X167198932Y-133201101D01*
X167270000Y-133068142D01*
X167341068Y-133201101D01*
X167520393Y-133419608D01*
X167738900Y-133598932D01*
X167988193Y-133732182D01*
X168258692Y-133814236D01*
X168540000Y-133841943D01*
X168821309Y-133814236D01*
X169091808Y-133732182D01*
X169341101Y-133598932D01*
X169559608Y-133419608D01*
X169738932Y-133201101D01*
X169810000Y-133068142D01*
X169881068Y-133201101D01*
X170060393Y-133419608D01*
X170278900Y-133598932D01*
X170528193Y-133732182D01*
X170798692Y-133814236D01*
X171080000Y-133841943D01*
X171361309Y-133814236D01*
X171631808Y-133732182D01*
X171881101Y-133598932D01*
X172099608Y-133419608D01*
X172278932Y-133201101D01*
X172350000Y-133068142D01*
X172421068Y-133201101D01*
X172600393Y-133419608D01*
X172818900Y-133598932D01*
X173068193Y-133732182D01*
X173338692Y-133814236D01*
X173620000Y-133841943D01*
X173901309Y-133814236D01*
X174171808Y-133732182D01*
X174421101Y-133598932D01*
X174639608Y-133419608D01*
X174818932Y-133201101D01*
X174890000Y-133068142D01*
X174961068Y-133201101D01*
X175140393Y-133419608D01*
X175358900Y-133598932D01*
X175608193Y-133732182D01*
X175878692Y-133814236D01*
X176160000Y-133841943D01*
X176441309Y-133814236D01*
X176711808Y-133732182D01*
X176961101Y-133598932D01*
X177179608Y-133419608D01*
X177358932Y-133201101D01*
X177430000Y-133068142D01*
X177501068Y-133201101D01*
X177680393Y-133419608D01*
X177898900Y-133598932D01*
X178148193Y-133732182D01*
X178418692Y-133814236D01*
X178700000Y-133841943D01*
X178981309Y-133814236D01*
X179251808Y-133732182D01*
X179501101Y-133598932D01*
X179719608Y-133419608D01*
X179873000Y-133232699D01*
X179873000Y-134840000D01*
X126032279Y-134840000D01*
X125546106Y-134792330D01*
X125109503Y-134660512D01*
X124706814Y-134446399D01*
X124353387Y-134158150D01*
X124062673Y-133806739D01*
X123845760Y-133405564D01*
X123710894Y-132969886D01*
X123660000Y-132485664D01*
X123660000Y-102539678D01*
X124730000Y-102539678D01*
X124730000Y-103200321D01*
X124753657Y-103440515D01*
X124847148Y-103748714D01*
X124998969Y-104032751D01*
X125203286Y-104281714D01*
X125452248Y-104486031D01*
X125736285Y-104637852D01*
X126044484Y-104731343D01*
X126365000Y-104762911D01*
X126685515Y-104731343D01*
X126993714Y-104637852D01*
X127277751Y-104486031D01*
X127526714Y-104281714D01*
X127635000Y-104149766D01*
X127743286Y-104281714D01*
X127992248Y-104486031D01*
X128276285Y-104637852D01*
X128584484Y-104731343D01*
X128905000Y-104762911D01*
X129225515Y-104731343D01*
X129533714Y-104637852D01*
X129817751Y-104486031D01*
X130066714Y-104281714D01*
X130170039Y-104155812D01*
X130381660Y-104374300D01*
X130646794Y-104557646D01*
X130942602Y-104685744D01*
X131064566Y-104710124D01*
X131318000Y-104590777D01*
X131318000Y-102997000D01*
X131298000Y-102997000D01*
X131298000Y-102743000D01*
X131318000Y-102743000D01*
X131318000Y-101149223D01*
X131572000Y-101149223D01*
X131572000Y-102743000D01*
X131592000Y-102743000D01*
X131592000Y-102997000D01*
X131572000Y-102997000D01*
X131572000Y-104590777D01*
X131825434Y-104710124D01*
X131947398Y-104685744D01*
X132243206Y-104557646D01*
X132508340Y-104374300D01*
X132548284Y-104333060D01*
X132630506Y-104400537D01*
X132740820Y-104459502D01*
X132860518Y-104495812D01*
X132985000Y-104508072D01*
X134985000Y-104508072D01*
X135109482Y-104495812D01*
X135229180Y-104459502D01*
X135339494Y-104400537D01*
X135436185Y-104321185D01*
X135515537Y-104224494D01*
X135574502Y-104114180D01*
X135610812Y-103994482D01*
X135623072Y-103870000D01*
X135623072Y-101870000D01*
X135610812Y-101745518D01*
X135574502Y-101625820D01*
X135515537Y-101515506D01*
X135436185Y-101418815D01*
X135339494Y-101339463D01*
X135229180Y-101280498D01*
X135109482Y-101244188D01*
X134985000Y-101231928D01*
X132985000Y-101231928D01*
X132860518Y-101244188D01*
X132740820Y-101280498D01*
X132630506Y-101339463D01*
X132548284Y-101406940D01*
X132508340Y-101365700D01*
X132243206Y-101182354D01*
X131947398Y-101054256D01*
X131825434Y-101029876D01*
X131572000Y-101149223D01*
X131318000Y-101149223D01*
X131064566Y-101029876D01*
X130942602Y-101054256D01*
X130646794Y-101182354D01*
X130381660Y-101365700D01*
X130170039Y-101584188D01*
X130066714Y-101458286D01*
X129817752Y-101253969D01*
X129533715Y-101102148D01*
X129225516Y-101008657D01*
X128905000Y-100977089D01*
X128584485Y-101008657D01*
X128276286Y-101102148D01*
X127992249Y-101253969D01*
X127743286Y-101458286D01*
X127635000Y-101590233D01*
X127526714Y-101458286D01*
X127277752Y-101253969D01*
X126993715Y-101102148D01*
X126685516Y-101008657D01*
X126365000Y-100977089D01*
X126044485Y-101008657D01*
X125736286Y-101102148D01*
X125452249Y-101253969D01*
X125203286Y-101458286D01*
X124998969Y-101707248D01*
X124847148Y-101991285D01*
X124753657Y-102299484D01*
X124730000Y-102539678D01*
X123660000Y-102539678D01*
X123660000Y-97952980D01*
X140409437Y-97952980D01*
X140480429Y-98171094D01*
X140624031Y-98446923D01*
X140818685Y-98689437D01*
X141056911Y-98889316D01*
X141329554Y-99038879D01*
X141626137Y-99132378D01*
X141873000Y-99005570D01*
X141873000Y-97707000D01*
X142127000Y-97707000D01*
X142127000Y-99005570D01*
X142373863Y-99132378D01*
X142670446Y-99038879D01*
X142943089Y-98889316D01*
X143181315Y-98689437D01*
X143375969Y-98446923D01*
X143519571Y-98171094D01*
X143590563Y-97952980D01*
X148409437Y-97952980D01*
X148480429Y-98171094D01*
X148624031Y-98446923D01*
X148818685Y-98689437D01*
X149056911Y-98889316D01*
X149329554Y-99038879D01*
X149626137Y-99132378D01*
X149873000Y-99005570D01*
X149873000Y-97707000D01*
X150127000Y-97707000D01*
X150127000Y-99005570D01*
X150373863Y-99132378D01*
X150670446Y-99038879D01*
X150943089Y-98889316D01*
X151181315Y-98689437D01*
X151375969Y-98446923D01*
X151519571Y-98171094D01*
X151590563Y-97952980D01*
X156409437Y-97952980D01*
X156480429Y-98171094D01*
X156624031Y-98446923D01*
X156818685Y-98689437D01*
X157056911Y-98889316D01*
X157329554Y-99038879D01*
X157626137Y-99132378D01*
X157873000Y-99005570D01*
X157873000Y-97707000D01*
X158127000Y-97707000D01*
X158127000Y-99005570D01*
X158373863Y-99132378D01*
X158670446Y-99038879D01*
X158943089Y-98889316D01*
X159181315Y-98689437D01*
X159375969Y-98446923D01*
X159519571Y-98171094D01*
X159590563Y-97952980D01*
X164409437Y-97952980D01*
X164480429Y-98171094D01*
X164624031Y-98446923D01*
X164818685Y-98689437D01*
X165056911Y-98889316D01*
X165329554Y-99038879D01*
X165626137Y-99132378D01*
X165873000Y-99005570D01*
X165873000Y-97707000D01*
X166127000Y-97707000D01*
X166127000Y-99005570D01*
X166373863Y-99132378D01*
X166670446Y-99038879D01*
X166943089Y-98889316D01*
X167181315Y-98689437D01*
X167375969Y-98446923D01*
X167519571Y-98171094D01*
X167590563Y-97952980D01*
X172409437Y-97952980D01*
X172480429Y-98171094D01*
X172624031Y-98446923D01*
X172818685Y-98689437D01*
X173056911Y-98889316D01*
X173329554Y-99038879D01*
X173626137Y-99132378D01*
X173873000Y-99005570D01*
X173873000Y-97707000D01*
X174127000Y-97707000D01*
X174127000Y-99005570D01*
X174373863Y-99132378D01*
X174670446Y-99038879D01*
X174943089Y-98889316D01*
X175181315Y-98689437D01*
X175375969Y-98446923D01*
X175519571Y-98171094D01*
X175590563Y-97952980D01*
X180409437Y-97952980D01*
X180480429Y-98171094D01*
X180624031Y-98446923D01*
X180818685Y-98689437D01*
X181056911Y-98889316D01*
X181329554Y-99038879D01*
X181626137Y-99132378D01*
X181873000Y-99005570D01*
X181873000Y-97707000D01*
X182127000Y-97707000D01*
X182127000Y-99005570D01*
X182373863Y-99132378D01*
X182670446Y-99038879D01*
X182943089Y-98889316D01*
X183181315Y-98689437D01*
X183375969Y-98446923D01*
X183519571Y-98171094D01*
X183590563Y-97952980D01*
X183470594Y-97707000D01*
X182127000Y-97707000D01*
X181873000Y-97707000D01*
X180529406Y-97707000D01*
X180409437Y-97952980D01*
X175590563Y-97952980D01*
X175470594Y-97707000D01*
X174127000Y-97707000D01*
X173873000Y-97707000D01*
X172529406Y-97707000D01*
X172409437Y-97952980D01*
X167590563Y-97952980D01*
X167470594Y-97707000D01*
X166127000Y-97707000D01*
X165873000Y-97707000D01*
X164529406Y-97707000D01*
X164409437Y-97952980D01*
X159590563Y-97952980D01*
X159470594Y-97707000D01*
X158127000Y-97707000D01*
X157873000Y-97707000D01*
X156529406Y-97707000D01*
X156409437Y-97952980D01*
X151590563Y-97952980D01*
X151470594Y-97707000D01*
X150127000Y-97707000D01*
X149873000Y-97707000D01*
X148529406Y-97707000D01*
X148409437Y-97952980D01*
X143590563Y-97952980D01*
X143470594Y-97707000D01*
X142127000Y-97707000D01*
X141873000Y-97707000D01*
X140529406Y-97707000D01*
X140409437Y-97952980D01*
X123660000Y-97952980D01*
X123660000Y-84808639D01*
X126491903Y-84808639D01*
X126563486Y-85052608D01*
X126818996Y-85173508D01*
X127093184Y-85242237D01*
X127375512Y-85256154D01*
X127655130Y-85214724D01*
X127921292Y-85119540D01*
X128046514Y-85052608D01*
X128118097Y-84808639D01*
X127305000Y-83995542D01*
X126491903Y-84808639D01*
X123660000Y-84808639D01*
X123660000Y-83886449D01*
X125864783Y-83886449D01*
X125906213Y-84166067D01*
X126001397Y-84432229D01*
X126068329Y-84557451D01*
X126312298Y-84629034D01*
X127125395Y-83815937D01*
X126312298Y-83002840D01*
X126068329Y-83074423D01*
X125947429Y-83329933D01*
X125878700Y-83604121D01*
X125864783Y-83886449D01*
X123660000Y-83886449D01*
X123660000Y-82823235D01*
X126491903Y-82823235D01*
X127305000Y-83636332D01*
X127319143Y-83622190D01*
X127498748Y-83801795D01*
X127484605Y-83815937D01*
X128297702Y-84629034D01*
X128541671Y-84557451D01*
X128551878Y-84535880D01*
X128693184Y-84571300D01*
X128975512Y-84585217D01*
X129255130Y-84543787D01*
X129521292Y-84448603D01*
X129646514Y-84381671D01*
X129718097Y-84137702D01*
X128905000Y-83324605D01*
X128890858Y-83338748D01*
X128711253Y-83159143D01*
X128725395Y-83145000D01*
X129084605Y-83145000D01*
X129897702Y-83958097D01*
X130141671Y-83886514D01*
X130262571Y-83631004D01*
X130331300Y-83356816D01*
X130345217Y-83074488D01*
X130303787Y-82794870D01*
X130208603Y-82528708D01*
X130141671Y-82403486D01*
X129897702Y-82331903D01*
X129084605Y-83145000D01*
X128725395Y-83145000D01*
X127912298Y-82331903D01*
X127668329Y-82403486D01*
X127658122Y-82425057D01*
X127516816Y-82389637D01*
X127234488Y-82375720D01*
X126954870Y-82417150D01*
X126688708Y-82512334D01*
X126563486Y-82579266D01*
X126491903Y-82823235D01*
X123660000Y-82823235D01*
X123660000Y-79845000D01*
X127466928Y-79845000D01*
X127466928Y-81445000D01*
X127479188Y-81569482D01*
X127515498Y-81689180D01*
X127574463Y-81799494D01*
X127653815Y-81896185D01*
X127750506Y-81975537D01*
X127860820Y-82034502D01*
X127980518Y-82070812D01*
X128105000Y-82083072D01*
X128112215Y-82083072D01*
X128091903Y-82152298D01*
X128905000Y-82965395D01*
X129718097Y-82152298D01*
X129697785Y-82083072D01*
X129705000Y-82083072D01*
X129829482Y-82070812D01*
X129949180Y-82034502D01*
X130059494Y-81975537D01*
X130156185Y-81896185D01*
X130235537Y-81799494D01*
X130294502Y-81689180D01*
X130330812Y-81569482D01*
X130343072Y-81445000D01*
X130343072Y-81412135D01*
X131305000Y-81412135D01*
X131429482Y-81399875D01*
X131549180Y-81363565D01*
X131659494Y-81304600D01*
X131756185Y-81225248D01*
X131835537Y-81128557D01*
X131894502Y-81018243D01*
X131930812Y-80898545D01*
X131943072Y-80774063D01*
X131943072Y-79174063D01*
X131930812Y-79049581D01*
X131894502Y-78929883D01*
X131835537Y-78819569D01*
X131756185Y-78722878D01*
X131659494Y-78643526D01*
X131560804Y-78590774D01*
X132766579Y-77385000D01*
X133152379Y-77385000D01*
X133185498Y-77494180D01*
X133244463Y-77604494D01*
X133323815Y-77701185D01*
X133420506Y-77780537D01*
X133530820Y-77839502D01*
X133650518Y-77875812D01*
X133775000Y-77888072D01*
X134775000Y-77888072D01*
X134900136Y-77875681D01*
X134925064Y-77868091D01*
X134950518Y-77875812D01*
X135075000Y-77888072D01*
X136225000Y-77888072D01*
X136349482Y-77875812D01*
X136469180Y-77839502D01*
X136579494Y-77780537D01*
X136676185Y-77701185D01*
X136755537Y-77604494D01*
X136814502Y-77494180D01*
X136847622Y-77384999D01*
X138865000Y-77385000D01*
X138865000Y-77870559D01*
X138865001Y-83129442D01*
X138903128Y-83516550D01*
X139053800Y-84013250D01*
X139298478Y-84471011D01*
X139627760Y-84872241D01*
X140028990Y-85201523D01*
X140486751Y-85446201D01*
X140983451Y-85596873D01*
X141500000Y-85647749D01*
X142016550Y-85596873D01*
X142513250Y-85446201D01*
X142971011Y-85201523D01*
X143372241Y-84872241D01*
X143701523Y-84471011D01*
X143946201Y-84013250D01*
X144096873Y-83516550D01*
X144135000Y-83129442D01*
X144135000Y-76635000D01*
X144845654Y-76635000D01*
X144841637Y-76639017D01*
X144783081Y-76726653D01*
X144716223Y-76808119D01*
X144666543Y-76901063D01*
X144607988Y-76988698D01*
X144567653Y-77086076D01*
X144517974Y-77179019D01*
X144487382Y-77279866D01*
X144447047Y-77377244D01*
X144426484Y-77480618D01*
X144395892Y-77581468D01*
X144385562Y-77686348D01*
X144365000Y-77789721D01*
X144365000Y-77895119D01*
X144365001Y-82789716D01*
X144365000Y-82789721D01*
X144365000Y-83210279D01*
X144385564Y-83313661D01*
X144395893Y-83418533D01*
X144426483Y-83519375D01*
X144447047Y-83622756D01*
X144487385Y-83720140D01*
X144517975Y-83820982D01*
X144567650Y-83913919D01*
X144607988Y-84011302D01*
X144666548Y-84098943D01*
X144716224Y-84191881D01*
X144783076Y-84273341D01*
X144841637Y-84360983D01*
X144865001Y-84384347D01*
X144865000Y-91822761D01*
X143638072Y-93049690D01*
X143638072Y-91547500D01*
X143625812Y-91423018D01*
X143589502Y-91303320D01*
X143530537Y-91193006D01*
X143451185Y-91096315D01*
X143354494Y-91016963D01*
X143244180Y-90957998D01*
X143124482Y-90921688D01*
X143000000Y-90909428D01*
X141000000Y-90909428D01*
X140875518Y-90921688D01*
X140755820Y-90957998D01*
X140645506Y-91016963D01*
X140548815Y-91096315D01*
X140469463Y-91193006D01*
X140410498Y-91303320D01*
X140374188Y-91423018D01*
X140361928Y-91547500D01*
X140361928Y-93452500D01*
X140374188Y-93576982D01*
X140410498Y-93696680D01*
X140469463Y-93806994D01*
X140548815Y-93903685D01*
X140645506Y-93983037D01*
X140719751Y-94022722D01*
X140633969Y-94127248D01*
X140482148Y-94411285D01*
X140388657Y-94719484D01*
X140357089Y-95040000D01*
X140388657Y-95360516D01*
X140482148Y-95668715D01*
X140633969Y-95952752D01*
X140838286Y-96201714D01*
X140990363Y-96326520D01*
X140818685Y-96470563D01*
X140624031Y-96713077D01*
X140480429Y-96988906D01*
X140409437Y-97207020D01*
X140529406Y-97453000D01*
X141873000Y-97453000D01*
X141873000Y-97433000D01*
X142127000Y-97433000D01*
X142127000Y-97453000D01*
X143470594Y-97453000D01*
X143590563Y-97207020D01*
X143519571Y-96988906D01*
X143375969Y-96713077D01*
X143345406Y-96675000D01*
X143879681Y-96675000D01*
X143960000Y-96682911D01*
X144040319Y-96675000D01*
X144040322Y-96675000D01*
X144280516Y-96651343D01*
X144588715Y-96557852D01*
X144872752Y-96406031D01*
X145121714Y-96201714D01*
X145172925Y-96139313D01*
X147599320Y-93712919D01*
X147661714Y-93661714D01*
X147866031Y-93412752D01*
X148017852Y-93128715D01*
X148111343Y-92820516D01*
X148135000Y-92580322D01*
X148135000Y-92580320D01*
X148142911Y-92500001D01*
X148135000Y-92419681D01*
X148135000Y-84384346D01*
X148158363Y-84360983D01*
X148216919Y-84273347D01*
X148283777Y-84191881D01*
X148333457Y-84098936D01*
X148392012Y-84011302D01*
X148432346Y-83913927D01*
X148482026Y-83820982D01*
X148512619Y-83720131D01*
X148552953Y-83622756D01*
X148573515Y-83519384D01*
X148604108Y-83418533D01*
X148614438Y-83313651D01*
X148635000Y-83210279D01*
X148635000Y-77789721D01*
X148614438Y-77686349D01*
X148604108Y-77581467D01*
X148573515Y-77480616D01*
X148552953Y-77377244D01*
X148512619Y-77279869D01*
X148482026Y-77179018D01*
X148432346Y-77086073D01*
X148392012Y-76988698D01*
X148333457Y-76901064D01*
X148283777Y-76808119D01*
X148216919Y-76726653D01*
X148158363Y-76639017D01*
X148154346Y-76635000D01*
X149845654Y-76635000D01*
X149841637Y-76639017D01*
X149783076Y-76726659D01*
X149716224Y-76808119D01*
X149666548Y-76901057D01*
X149607988Y-76988698D01*
X149567650Y-77086081D01*
X149517975Y-77179018D01*
X149487385Y-77279860D01*
X149447047Y-77377244D01*
X149426483Y-77480625D01*
X149395893Y-77581467D01*
X149385564Y-77686339D01*
X149365000Y-77789721D01*
X149365000Y-78210279D01*
X149365001Y-78210284D01*
X149365000Y-82789721D01*
X149365000Y-83210279D01*
X149385562Y-83313652D01*
X149395892Y-83418532D01*
X149426484Y-83519382D01*
X149447047Y-83622756D01*
X149487382Y-83720134D01*
X149517974Y-83820981D01*
X149567653Y-83913924D01*
X149607988Y-84011302D01*
X149666543Y-84098937D01*
X149716223Y-84191881D01*
X149783081Y-84273347D01*
X149841637Y-84360983D01*
X149865001Y-84384347D01*
X149865000Y-87419680D01*
X149857089Y-87500000D01*
X149865000Y-87580319D01*
X149865000Y-87580321D01*
X149888657Y-87820515D01*
X149982148Y-88128714D01*
X150133969Y-88412751D01*
X150338286Y-88661714D01*
X150400687Y-88712925D01*
X151865001Y-90177240D01*
X151865000Y-92822761D01*
X151638072Y-93049689D01*
X151638072Y-91547500D01*
X151625812Y-91423018D01*
X151589502Y-91303320D01*
X151530537Y-91193006D01*
X151451185Y-91096315D01*
X151354494Y-91016963D01*
X151244180Y-90957998D01*
X151124482Y-90921688D01*
X151000000Y-90909428D01*
X149000000Y-90909428D01*
X148875518Y-90921688D01*
X148755820Y-90957998D01*
X148645506Y-91016963D01*
X148548815Y-91096315D01*
X148469463Y-91193006D01*
X148410498Y-91303320D01*
X148374188Y-91423018D01*
X148361928Y-91547500D01*
X148361928Y-93452500D01*
X148374188Y-93576982D01*
X148410498Y-93696680D01*
X148469463Y-93806994D01*
X148548815Y-93903685D01*
X148645506Y-93983037D01*
X148719751Y-94022722D01*
X148633969Y-94127248D01*
X148482148Y-94411285D01*
X148388657Y-94719484D01*
X148357089Y-95040000D01*
X148388657Y-95360516D01*
X148482148Y-95668715D01*
X148633969Y-95952752D01*
X148838286Y-96201714D01*
X148990363Y-96326520D01*
X148818685Y-96470563D01*
X148624031Y-96713077D01*
X148480429Y-96988906D01*
X148409437Y-97207020D01*
X148529406Y-97453000D01*
X149873000Y-97453000D01*
X149873000Y-97433000D01*
X150127000Y-97433000D01*
X150127000Y-97453000D01*
X151470594Y-97453000D01*
X151590563Y-97207020D01*
X151519571Y-96988906D01*
X151375969Y-96713077D01*
X151345406Y-96675000D01*
X151879681Y-96675000D01*
X151960000Y-96682911D01*
X152040319Y-96675000D01*
X152040322Y-96675000D01*
X152280516Y-96651343D01*
X152588715Y-96557852D01*
X152872752Y-96406031D01*
X153121714Y-96201714D01*
X153172925Y-96139314D01*
X154599320Y-94712919D01*
X154661714Y-94661714D01*
X154866031Y-94412752D01*
X155017852Y-94128715D01*
X155111343Y-93820516D01*
X155135000Y-93580322D01*
X155135000Y-93580320D01*
X155142911Y-93500000D01*
X155135000Y-93419681D01*
X155135000Y-89580319D01*
X155142911Y-89499999D01*
X155135000Y-89419678D01*
X155111343Y-89179484D01*
X155017852Y-88871285D01*
X154866031Y-88587248D01*
X154661714Y-88338286D01*
X154599318Y-88287080D01*
X153135000Y-86822762D01*
X153135000Y-84384346D01*
X153158363Y-84360983D01*
X153216919Y-84273347D01*
X153283777Y-84191881D01*
X153333457Y-84098936D01*
X153392012Y-84011302D01*
X153432346Y-83913927D01*
X153482026Y-83820982D01*
X153512619Y-83720131D01*
X153552953Y-83622756D01*
X153573515Y-83519384D01*
X153604108Y-83418533D01*
X153614438Y-83313651D01*
X153635000Y-83210279D01*
X153635000Y-77789721D01*
X153614438Y-77686349D01*
X153604108Y-77581467D01*
X153573515Y-77480616D01*
X153552953Y-77377244D01*
X153512619Y-77279869D01*
X153482026Y-77179018D01*
X153432346Y-77086073D01*
X153392012Y-76988698D01*
X153333457Y-76901064D01*
X153283777Y-76808119D01*
X153216919Y-76726653D01*
X153158363Y-76639017D01*
X153154346Y-76635000D01*
X154845654Y-76635000D01*
X154841637Y-76639017D01*
X154783081Y-76726653D01*
X154716223Y-76808119D01*
X154666543Y-76901063D01*
X154607988Y-76988698D01*
X154567653Y-77086076D01*
X154517974Y-77179019D01*
X154487382Y-77279866D01*
X154447047Y-77377244D01*
X154426484Y-77480618D01*
X154395892Y-77581468D01*
X154385562Y-77686348D01*
X154365000Y-77789721D01*
X154365000Y-77895119D01*
X154365001Y-82789716D01*
X154365000Y-82789721D01*
X154365000Y-83210279D01*
X154385564Y-83313661D01*
X154395893Y-83418533D01*
X154426483Y-83519375D01*
X154447047Y-83622756D01*
X154487385Y-83720140D01*
X154517975Y-83820982D01*
X154567650Y-83913919D01*
X154607988Y-84011302D01*
X154666548Y-84098943D01*
X154716224Y-84191881D01*
X154783076Y-84273341D01*
X154841637Y-84360983D01*
X154865000Y-84384346D01*
X154865000Y-85419680D01*
X154857089Y-85500000D01*
X154865000Y-85580319D01*
X154865000Y-85580321D01*
X154888657Y-85820515D01*
X154982148Y-86128714D01*
X155133969Y-86412751D01*
X155338286Y-86661714D01*
X155400687Y-86712925D01*
X158865001Y-90177240D01*
X158865001Y-90909428D01*
X157000000Y-90909428D01*
X156875518Y-90921688D01*
X156755820Y-90957998D01*
X156645506Y-91016963D01*
X156548815Y-91096315D01*
X156469463Y-91193006D01*
X156410498Y-91303320D01*
X156374188Y-91423018D01*
X156361928Y-91547500D01*
X156361928Y-93452500D01*
X156374188Y-93576982D01*
X156410498Y-93696680D01*
X156469463Y-93806994D01*
X156548815Y-93903685D01*
X156645506Y-93983037D01*
X156719751Y-94022722D01*
X156633969Y-94127248D01*
X156482148Y-94411285D01*
X156388657Y-94719484D01*
X156357089Y-95040000D01*
X156388657Y-95360516D01*
X156482148Y-95668715D01*
X156633969Y-95952752D01*
X156838286Y-96201714D01*
X156990363Y-96326520D01*
X156818685Y-96470563D01*
X156624031Y-96713077D01*
X156480429Y-96988906D01*
X156409437Y-97207020D01*
X156529406Y-97453000D01*
X157873000Y-97453000D01*
X157873000Y-97433000D01*
X158127000Y-97433000D01*
X158127000Y-97453000D01*
X159470594Y-97453000D01*
X159590563Y-97207020D01*
X159519571Y-96988906D01*
X159375969Y-96713077D01*
X159345406Y-96675000D01*
X159492183Y-96675000D01*
X159572502Y-96682911D01*
X159652821Y-96675000D01*
X159652824Y-96675000D01*
X159893018Y-96651343D01*
X160201217Y-96557852D01*
X160485254Y-96406031D01*
X160734216Y-96201714D01*
X160785427Y-96139313D01*
X161599314Y-95325426D01*
X161661714Y-95274216D01*
X161866031Y-95025254D01*
X161947708Y-94872448D01*
X163214577Y-96139318D01*
X163265784Y-96201714D01*
X163514746Y-96406031D01*
X163798783Y-96557852D01*
X164106982Y-96651343D01*
X164347176Y-96675000D01*
X164347178Y-96675000D01*
X164427497Y-96682911D01*
X164507817Y-96675000D01*
X164654594Y-96675000D01*
X164624031Y-96713077D01*
X164480429Y-96988906D01*
X164409437Y-97207020D01*
X164529406Y-97453000D01*
X165873000Y-97453000D01*
X165873000Y-97433000D01*
X166127000Y-97433000D01*
X166127000Y-97453000D01*
X167470594Y-97453000D01*
X167590563Y-97207020D01*
X167519571Y-96988906D01*
X167375969Y-96713077D01*
X167181315Y-96470563D01*
X167009637Y-96326520D01*
X167161714Y-96201714D01*
X167366031Y-95952752D01*
X167517852Y-95668715D01*
X167611343Y-95360516D01*
X167642911Y-95040000D01*
X167611343Y-94719484D01*
X167517852Y-94411285D01*
X167366031Y-94127248D01*
X167280249Y-94022722D01*
X167354494Y-93983037D01*
X167451185Y-93903685D01*
X167530537Y-93806994D01*
X167589502Y-93696680D01*
X167625812Y-93576982D01*
X167638072Y-93452500D01*
X167638072Y-91547500D01*
X167625812Y-91423018D01*
X167589502Y-91303320D01*
X167530537Y-91193006D01*
X167451185Y-91096315D01*
X167354494Y-91016963D01*
X167244180Y-90957998D01*
X167124482Y-90921688D01*
X167000000Y-90909428D01*
X165000000Y-90909428D01*
X164875518Y-90921688D01*
X164755820Y-90957998D01*
X164645506Y-91016963D01*
X164635000Y-91025585D01*
X164635000Y-87080319D01*
X164642911Y-86999999D01*
X164634953Y-86919205D01*
X164611343Y-86679484D01*
X164517852Y-86371285D01*
X164366031Y-86087248D01*
X164161714Y-85838286D01*
X164099318Y-85787079D01*
X163135000Y-84822762D01*
X163135000Y-84384346D01*
X163158363Y-84360983D01*
X163216919Y-84273347D01*
X163283777Y-84191881D01*
X163333457Y-84098936D01*
X163392012Y-84011302D01*
X163432346Y-83913927D01*
X163482026Y-83820982D01*
X163512619Y-83720131D01*
X163552953Y-83622756D01*
X163573515Y-83519384D01*
X163604108Y-83418533D01*
X163614438Y-83313651D01*
X163635000Y-83210279D01*
X163635000Y-77789721D01*
X163614438Y-77686349D01*
X163604108Y-77581467D01*
X163573515Y-77480616D01*
X163552953Y-77377244D01*
X163512619Y-77279869D01*
X163482026Y-77179018D01*
X163432346Y-77086073D01*
X163392012Y-76988698D01*
X163333457Y-76901064D01*
X163283777Y-76808119D01*
X163216919Y-76726653D01*
X163158363Y-76639017D01*
X163154346Y-76635000D01*
X164845654Y-76635000D01*
X164841637Y-76639017D01*
X164783081Y-76726653D01*
X164716223Y-76808119D01*
X164666543Y-76901063D01*
X164607988Y-76988698D01*
X164567653Y-77086076D01*
X164517974Y-77179019D01*
X164487382Y-77279866D01*
X164447047Y-77377244D01*
X164426484Y-77480618D01*
X164395892Y-77581468D01*
X164385562Y-77686348D01*
X164365000Y-77789721D01*
X164365000Y-77895119D01*
X164365001Y-82789716D01*
X164365000Y-82789721D01*
X164365000Y-83210279D01*
X164385564Y-83313661D01*
X164395893Y-83418533D01*
X164426483Y-83519375D01*
X164447047Y-83622756D01*
X164487385Y-83720140D01*
X164517975Y-83820982D01*
X164567650Y-83913919D01*
X164607988Y-84011302D01*
X164666548Y-84098943D01*
X164716224Y-84191881D01*
X164783076Y-84273341D01*
X164841637Y-84360983D01*
X164865001Y-84384347D01*
X164865000Y-86919678D01*
X164857089Y-87000000D01*
X164865000Y-87080319D01*
X164865000Y-87080321D01*
X164888657Y-87320515D01*
X164982148Y-87628714D01*
X165133969Y-87912751D01*
X165338286Y-88161714D01*
X165400687Y-88212925D01*
X169365001Y-92177240D01*
X169365000Y-93532182D01*
X169357089Y-93612502D01*
X169365000Y-93692821D01*
X169365000Y-93692823D01*
X169388657Y-93933017D01*
X169482148Y-94241216D01*
X169633969Y-94525253D01*
X169838286Y-94774216D01*
X169900686Y-94825426D01*
X171214577Y-96139318D01*
X171265784Y-96201714D01*
X171514746Y-96406031D01*
X171798783Y-96557852D01*
X172106982Y-96651343D01*
X172347176Y-96675000D01*
X172347178Y-96675000D01*
X172427497Y-96682911D01*
X172507817Y-96675000D01*
X172654594Y-96675000D01*
X172624031Y-96713077D01*
X172480429Y-96988906D01*
X172409437Y-97207020D01*
X172529406Y-97453000D01*
X173873000Y-97453000D01*
X173873000Y-97433000D01*
X174127000Y-97433000D01*
X174127000Y-97453000D01*
X175470594Y-97453000D01*
X175590563Y-97207020D01*
X175519571Y-96988906D01*
X175375969Y-96713077D01*
X175181315Y-96470563D01*
X175009637Y-96326520D01*
X175161714Y-96201714D01*
X175366031Y-95952752D01*
X175517852Y-95668715D01*
X175611343Y-95360516D01*
X175642911Y-95040000D01*
X175611343Y-94719484D01*
X175517852Y-94411285D01*
X175366031Y-94127248D01*
X175280249Y-94022722D01*
X175354494Y-93983037D01*
X175451185Y-93903685D01*
X175530537Y-93806994D01*
X175589502Y-93696680D01*
X175625812Y-93576982D01*
X175638072Y-93452500D01*
X175638072Y-91547500D01*
X175625812Y-91423018D01*
X175589502Y-91303320D01*
X175530537Y-91193006D01*
X175451185Y-91096315D01*
X175354494Y-91016963D01*
X175244180Y-90957998D01*
X175124482Y-90921688D01*
X175000000Y-90909428D01*
X173000000Y-90909428D01*
X172875518Y-90921688D01*
X172755820Y-90957998D01*
X172645506Y-91016963D01*
X172578679Y-91071806D01*
X172517852Y-90871285D01*
X172366031Y-90587248D01*
X172161714Y-90338286D01*
X172099319Y-90287080D01*
X168135000Y-86322762D01*
X168135000Y-84384346D01*
X168158363Y-84360983D01*
X168216919Y-84273347D01*
X168283777Y-84191881D01*
X168333457Y-84098936D01*
X168392012Y-84011302D01*
X168432346Y-83913927D01*
X168482026Y-83820982D01*
X168512619Y-83720131D01*
X168552953Y-83622756D01*
X168573515Y-83519384D01*
X168604108Y-83418533D01*
X168614438Y-83313651D01*
X168635000Y-83210279D01*
X168635000Y-77789721D01*
X168614438Y-77686349D01*
X168604108Y-77581467D01*
X168573515Y-77480616D01*
X168552953Y-77377244D01*
X168512619Y-77279869D01*
X168482026Y-77179018D01*
X168432346Y-77086073D01*
X168392012Y-76988698D01*
X168333457Y-76901064D01*
X168283777Y-76808119D01*
X168216919Y-76726653D01*
X168158363Y-76639017D01*
X168154346Y-76635000D01*
X169845654Y-76635000D01*
X169841637Y-76639017D01*
X169783076Y-76726659D01*
X169716224Y-76808119D01*
X169666548Y-76901057D01*
X169607988Y-76988698D01*
X169567650Y-77086081D01*
X169517975Y-77179018D01*
X169487385Y-77279860D01*
X169447047Y-77377244D01*
X169426483Y-77480625D01*
X169395893Y-77581467D01*
X169385564Y-77686339D01*
X169365000Y-77789721D01*
X169365000Y-78210279D01*
X169365001Y-78210284D01*
X169365000Y-82789721D01*
X169365000Y-83210279D01*
X169385562Y-83313652D01*
X169395892Y-83418532D01*
X169426484Y-83519382D01*
X169447047Y-83622756D01*
X169487382Y-83720134D01*
X169517974Y-83820981D01*
X169567653Y-83913924D01*
X169607988Y-84011302D01*
X169666543Y-84098937D01*
X169716223Y-84191881D01*
X169783081Y-84273347D01*
X169841637Y-84360983D01*
X169865000Y-84384346D01*
X169865000Y-84419681D01*
X169857089Y-84500000D01*
X169865000Y-84580319D01*
X169865000Y-84580321D01*
X169888657Y-84820515D01*
X169982148Y-85128714D01*
X170133969Y-85412751D01*
X170338286Y-85661714D01*
X170400687Y-85712925D01*
X176865000Y-92177239D01*
X176865000Y-93032183D01*
X176857089Y-93112502D01*
X176865000Y-93192821D01*
X176865000Y-93192823D01*
X176888657Y-93433017D01*
X176982148Y-93741216D01*
X177133969Y-94025253D01*
X177338286Y-94274216D01*
X177400687Y-94325427D01*
X179214577Y-96139318D01*
X179265784Y-96201714D01*
X179514746Y-96406031D01*
X179798783Y-96557852D01*
X180106981Y-96651343D01*
X180427498Y-96682911D01*
X180507820Y-96675000D01*
X180654594Y-96675000D01*
X180624031Y-96713077D01*
X180480429Y-96988906D01*
X180409437Y-97207020D01*
X180529406Y-97453000D01*
X181873000Y-97453000D01*
X181873000Y-97433000D01*
X182127000Y-97433000D01*
X182127000Y-97453000D01*
X183470594Y-97453000D01*
X183590563Y-97207020D01*
X183519571Y-96988906D01*
X183375969Y-96713077D01*
X183181315Y-96470563D01*
X183009637Y-96326520D01*
X183161714Y-96201714D01*
X183366031Y-95952752D01*
X183517852Y-95668715D01*
X183611343Y-95360516D01*
X183642911Y-95040000D01*
X183611343Y-94719484D01*
X183517852Y-94411285D01*
X183366031Y-94127248D01*
X183280249Y-94022722D01*
X183354494Y-93983037D01*
X183451185Y-93903685D01*
X183530537Y-93806994D01*
X183589502Y-93696680D01*
X183625812Y-93576982D01*
X183638072Y-93452500D01*
X183638072Y-91547500D01*
X183625812Y-91423018D01*
X183589502Y-91303320D01*
X183530537Y-91193006D01*
X183451185Y-91096315D01*
X183354494Y-91016963D01*
X183244180Y-90957998D01*
X183124482Y-90921688D01*
X183000000Y-90909428D01*
X181000000Y-90909428D01*
X180875518Y-90921688D01*
X180755820Y-90957998D01*
X180645506Y-91016963D01*
X180548815Y-91096315D01*
X180469463Y-91193006D01*
X180410498Y-91303320D01*
X180374188Y-91423018D01*
X180361928Y-91547500D01*
X180361928Y-92662192D01*
X180135000Y-92435264D01*
X180135000Y-91580319D01*
X180142911Y-91500000D01*
X180135000Y-91419678D01*
X180111343Y-91179484D01*
X180017852Y-90871285D01*
X179866031Y-90587248D01*
X179661714Y-90338286D01*
X179599319Y-90287080D01*
X173364586Y-84052348D01*
X173392012Y-84011302D01*
X173432346Y-83913927D01*
X173482026Y-83820982D01*
X173512619Y-83720131D01*
X173552953Y-83622756D01*
X173573515Y-83519384D01*
X173604108Y-83418533D01*
X173614438Y-83313651D01*
X173635000Y-83210279D01*
X173635000Y-77789721D01*
X173614438Y-77686349D01*
X173604108Y-77581467D01*
X173573515Y-77480616D01*
X173552953Y-77377244D01*
X173512619Y-77279869D01*
X173482026Y-77179018D01*
X173432346Y-77086073D01*
X173392012Y-76988698D01*
X173333457Y-76901064D01*
X173283777Y-76808119D01*
X173216919Y-76726653D01*
X173158363Y-76639017D01*
X173154346Y-76635000D01*
X173865000Y-76635000D01*
X173865000Y-77870559D01*
X173865001Y-83129442D01*
X173903128Y-83516550D01*
X174053800Y-84013250D01*
X174298478Y-84471011D01*
X174627760Y-84872241D01*
X175028990Y-85201523D01*
X175486751Y-85446201D01*
X175983451Y-85596873D01*
X176500000Y-85647749D01*
X177016550Y-85596873D01*
X177513250Y-85446201D01*
X177971011Y-85201523D01*
X178372241Y-84872241D01*
X178684582Y-84491653D01*
X180187952Y-84491653D01*
X180343962Y-84807214D01*
X180718745Y-84998020D01*
X181123551Y-85112044D01*
X181542824Y-85144902D01*
X181960451Y-85095334D01*
X182360383Y-84965243D01*
X182656038Y-84807214D01*
X182812048Y-84491653D01*
X181500000Y-83179605D01*
X180187952Y-84491653D01*
X178684582Y-84491653D01*
X178701523Y-84471011D01*
X178946201Y-84013250D01*
X179096873Y-83516550D01*
X179135000Y-83129442D01*
X179135000Y-83042824D01*
X179355098Y-83042824D01*
X179404666Y-83460451D01*
X179534757Y-83860383D01*
X179692786Y-84156038D01*
X180008347Y-84312048D01*
X181320395Y-83000000D01*
X181679605Y-83000000D01*
X182991653Y-84312048D01*
X183307214Y-84156038D01*
X183498020Y-83781255D01*
X183612044Y-83376449D01*
X183644902Y-82957176D01*
X183595334Y-82539549D01*
X183465243Y-82139617D01*
X183307214Y-81843962D01*
X182991653Y-81687952D01*
X181679605Y-83000000D01*
X181320395Y-83000000D01*
X180008347Y-81687952D01*
X179692786Y-81843962D01*
X179501980Y-82218745D01*
X179387956Y-82623551D01*
X179355098Y-83042824D01*
X179135000Y-83042824D01*
X179135000Y-81508347D01*
X180187952Y-81508347D01*
X181500000Y-82820395D01*
X182812048Y-81508347D01*
X182656038Y-81192786D01*
X182281255Y-81001980D01*
X181876449Y-80887956D01*
X181457176Y-80855098D01*
X181039549Y-80904666D01*
X180639617Y-81034757D01*
X180343962Y-81192786D01*
X180187952Y-81508347D01*
X179135000Y-81508347D01*
X179135000Y-79491653D01*
X180187952Y-79491653D01*
X180343962Y-79807214D01*
X180718745Y-79998020D01*
X181123551Y-80112044D01*
X181542824Y-80144902D01*
X181960451Y-80095334D01*
X182360383Y-79965243D01*
X182656038Y-79807214D01*
X182812048Y-79491653D01*
X181500000Y-78179605D01*
X180187952Y-79491653D01*
X179135000Y-79491653D01*
X179135000Y-76635000D01*
X179955392Y-76635000D01*
X180008345Y-76687953D01*
X179692786Y-76843962D01*
X179501980Y-77218745D01*
X179387956Y-77623551D01*
X179355098Y-78042824D01*
X179404666Y-78460451D01*
X179534757Y-78860383D01*
X179692786Y-79156038D01*
X180008347Y-79312048D01*
X181320395Y-78000000D01*
X181306253Y-77985858D01*
X181485858Y-77806253D01*
X181500000Y-77820395D01*
X181514143Y-77806253D01*
X181693748Y-77985858D01*
X181679605Y-78000000D01*
X182991653Y-79312048D01*
X183307214Y-79156038D01*
X183498020Y-78781255D01*
X183612044Y-78376449D01*
X183644902Y-77957176D01*
X183595334Y-77539549D01*
X183465243Y-77139617D01*
X183307214Y-76843962D01*
X182991655Y-76687953D01*
X183044608Y-76635000D01*
X183865000Y-76635000D01*
X183865000Y-77870559D01*
X183865001Y-83129442D01*
X183903128Y-83516550D01*
X184053800Y-84013250D01*
X184298478Y-84471011D01*
X184627760Y-84872241D01*
X185028990Y-85201523D01*
X185486751Y-85446201D01*
X185983451Y-85596873D01*
X186500000Y-85647749D01*
X187016550Y-85596873D01*
X187513250Y-85446201D01*
X187971011Y-85201523D01*
X188372241Y-84872241D01*
X188701523Y-84471011D01*
X188946201Y-84013250D01*
X189096873Y-83516550D01*
X189135000Y-83129442D01*
X189135000Y-73370558D01*
X189125546Y-73274567D01*
X189152588Y-73000000D01*
X189082405Y-72287415D01*
X188874551Y-71602215D01*
X188537016Y-70970731D01*
X188082770Y-70417230D01*
X187529269Y-69962984D01*
X186897785Y-69625449D01*
X186212585Y-69417595D01*
X185678575Y-69365000D01*
X142321425Y-69365000D01*
X141787415Y-69417595D01*
X141102215Y-69625449D01*
X140470731Y-69962984D01*
X139917230Y-70417230D01*
X139462984Y-70970731D01*
X139125449Y-71602215D01*
X138917595Y-72287415D01*
X138847412Y-73000000D01*
X138865001Y-73178585D01*
X138865001Y-74613422D01*
X136856533Y-72604955D01*
X136828816Y-72571182D01*
X136694058Y-72460588D01*
X136540312Y-72378410D01*
X136373489Y-72327804D01*
X136243476Y-72314999D01*
X136243468Y-72314999D01*
X136199999Y-72310718D01*
X136156530Y-72314999D01*
X134808293Y-72314999D01*
X134835000Y-72180732D01*
X134835000Y-71819268D01*
X134764482Y-71464750D01*
X134626156Y-71130801D01*
X134425338Y-70830256D01*
X134169744Y-70574662D01*
X133869199Y-70373844D01*
X133535250Y-70235518D01*
X133180732Y-70165000D01*
X132819268Y-70165000D01*
X132464750Y-70235518D01*
X132130801Y-70373844D01*
X131830256Y-70574662D01*
X131574662Y-70830256D01*
X131373844Y-71130801D01*
X131235518Y-71464750D01*
X131165000Y-71819268D01*
X131165000Y-72180732D01*
X131235518Y-72535250D01*
X131373844Y-72869199D01*
X131574662Y-73169744D01*
X131830256Y-73425338D01*
X132130801Y-73626156D01*
X132464750Y-73764482D01*
X132819268Y-73835000D01*
X133180732Y-73835000D01*
X133516611Y-73768190D01*
X133543469Y-73795048D01*
X133571182Y-73828816D01*
X133604950Y-73856529D01*
X133604952Y-73856531D01*
X133705940Y-73939410D01*
X133859686Y-74021588D01*
X134026509Y-74072194D01*
X134156522Y-74084999D01*
X134156530Y-74084999D01*
X134199999Y-74089280D01*
X134243468Y-74084999D01*
X135833421Y-74084999D01*
X137363422Y-75615001D01*
X136847621Y-75615000D01*
X136814502Y-75505820D01*
X136755537Y-75395506D01*
X136676185Y-75298815D01*
X136579494Y-75219463D01*
X136469180Y-75160498D01*
X136349482Y-75124188D01*
X136225000Y-75111928D01*
X135075000Y-75111928D01*
X134951173Y-75124059D01*
X134925065Y-75131949D01*
X134899482Y-75124188D01*
X134775000Y-75111928D01*
X133775000Y-75111928D01*
X133650518Y-75124188D01*
X133530820Y-75160498D01*
X133420506Y-75219463D01*
X133323815Y-75298815D01*
X133244463Y-75395506D01*
X133185498Y-75505820D01*
X133152379Y-75615000D01*
X132443469Y-75615000D01*
X132400000Y-75610719D01*
X132356531Y-75615000D01*
X132356523Y-75615000D01*
X132226510Y-75627805D01*
X132059687Y-75678411D01*
X131927000Y-75749333D01*
X131905941Y-75760589D01*
X131804953Y-75843468D01*
X131804952Y-75843469D01*
X131771183Y-75871183D01*
X131743470Y-75904951D01*
X129909951Y-77738471D01*
X129876184Y-77766183D01*
X129848471Y-77799951D01*
X129848468Y-77799954D01*
X129765590Y-77900941D01*
X129683412Y-78054687D01*
X129632805Y-78221510D01*
X129615719Y-78395000D01*
X129620001Y-78438479D01*
X129620001Y-78544362D01*
X129580518Y-78548251D01*
X129460820Y-78584561D01*
X129350506Y-78643526D01*
X129253815Y-78722878D01*
X129174463Y-78819569D01*
X129115498Y-78929883D01*
X129079188Y-79049581D01*
X129066928Y-79174063D01*
X129066928Y-79206928D01*
X128105000Y-79206928D01*
X127980518Y-79219188D01*
X127860820Y-79255498D01*
X127750506Y-79314463D01*
X127653815Y-79393815D01*
X127574463Y-79490506D01*
X127515498Y-79600820D01*
X127479188Y-79720518D01*
X127466928Y-79845000D01*
X123660000Y-79845000D01*
X123660000Y-71819268D01*
X126085000Y-71819268D01*
X126085000Y-72180732D01*
X126155518Y-72535250D01*
X126293844Y-72869199D01*
X126494662Y-73169744D01*
X126750256Y-73425338D01*
X127050801Y-73626156D01*
X127384750Y-73764482D01*
X127739268Y-73835000D01*
X128100732Y-73835000D01*
X128455250Y-73764482D01*
X128789199Y-73626156D01*
X129089744Y-73425338D01*
X129345338Y-73169744D01*
X129546156Y-72869199D01*
X129684482Y-72535250D01*
X129755000Y-72180732D01*
X129755000Y-71819268D01*
X129684482Y-71464750D01*
X129546156Y-71130801D01*
X129345338Y-70830256D01*
X129089744Y-70574662D01*
X128789199Y-70373844D01*
X128455250Y-70235518D01*
X128100732Y-70165000D01*
X127739268Y-70165000D01*
X127384750Y-70235518D01*
X127050801Y-70373844D01*
X126750256Y-70574662D01*
X126494662Y-70830256D01*
X126293844Y-71130801D01*
X126155518Y-71464750D01*
X126085000Y-71819268D01*
X123660000Y-71819268D01*
X123660000Y-70532279D01*
X123707670Y-70046107D01*
X123839489Y-69609502D01*
X124053600Y-69206815D01*
X124341848Y-68853388D01*
X124693261Y-68562673D01*
X125094439Y-68345758D01*
X125530113Y-68210894D01*
X126014344Y-68160000D01*
X186967721Y-68160000D01*
X187453893Y-68207670D01*
%TA.AperFunction,Conductor*%
D34*
G36*
X187453893Y-68207670D02*
G01*
X187890498Y-68339489D01*
X188293185Y-68553600D01*
X188646612Y-68841848D01*
X188937327Y-69193261D01*
X189154242Y-69594439D01*
X189289106Y-70030113D01*
X189340000Y-70514344D01*
X189340001Y-104873000D01*
X138000000Y-104873000D01*
X137975224Y-104875440D01*
X137951399Y-104882667D01*
X137929443Y-104894403D01*
X137910197Y-104910197D01*
X137894403Y-104929443D01*
X137882667Y-104951399D01*
X137875440Y-104975224D01*
X137873000Y-105000000D01*
X137873000Y-105500000D01*
X137875440Y-105524776D01*
X137882667Y-105548601D01*
X137894403Y-105570557D01*
X137910197Y-105589803D01*
X137929443Y-105605597D01*
X137951399Y-105617333D01*
X137975224Y-105624560D01*
X138000000Y-105627000D01*
X147162143Y-105627000D01*
X147021068Y-105798900D01*
X146887818Y-106048193D01*
X146805764Y-106318692D01*
X146785000Y-106529509D01*
X146785000Y-107070492D01*
X146805764Y-107281309D01*
X146887818Y-107551808D01*
X147021068Y-107801101D01*
X147200393Y-108019608D01*
X147418900Y-108198932D01*
X147668193Y-108332182D01*
X147938692Y-108414236D01*
X148220000Y-108441943D01*
X148501309Y-108414236D01*
X148771808Y-108332182D01*
X149021101Y-108198932D01*
X149239608Y-108019608D01*
X149418932Y-107801101D01*
X149488122Y-107671655D01*
X149495570Y-107689227D01*
X149654327Y-107922662D01*
X149855575Y-108120639D01*
X150091579Y-108275551D01*
X150353270Y-108381444D01*
X150410961Y-108391904D01*
X150633000Y-108269915D01*
X150633000Y-106927000D01*
X150613000Y-106927000D01*
X150613000Y-106673000D01*
X150633000Y-106673000D01*
X150633000Y-106653000D01*
X150887000Y-106653000D01*
X150887000Y-106673000D01*
X150907000Y-106673000D01*
X150907000Y-106927000D01*
X150887000Y-106927000D01*
X150887000Y-108269915D01*
X151109039Y-108391904D01*
X151166730Y-108381444D01*
X151428421Y-108275551D01*
X151664425Y-108120639D01*
X151865673Y-107922662D01*
X152024430Y-107689227D01*
X152031878Y-107671655D01*
X152101068Y-107801101D01*
X152280393Y-108019608D01*
X152498900Y-108198932D01*
X152748193Y-108332182D01*
X153018692Y-108414236D01*
X153300000Y-108441943D01*
X153581309Y-108414236D01*
X153851808Y-108332182D01*
X154101101Y-108198932D01*
X154319608Y-108019608D01*
X154498932Y-107801101D01*
X154570000Y-107668142D01*
X154641068Y-107801101D01*
X154820393Y-108019608D01*
X155038900Y-108198932D01*
X155288193Y-108332182D01*
X155558692Y-108414236D01*
X155840000Y-108441943D01*
X156121309Y-108414236D01*
X156391808Y-108332182D01*
X156641101Y-108198932D01*
X156859608Y-108019608D01*
X157038932Y-107801101D01*
X157110000Y-107668142D01*
X157181068Y-107801101D01*
X157360393Y-108019608D01*
X157578900Y-108198932D01*
X157828193Y-108332182D01*
X158098692Y-108414236D01*
X158380000Y-108441943D01*
X158661309Y-108414236D01*
X158931808Y-108332182D01*
X159181101Y-108198932D01*
X159399608Y-108019608D01*
X159578932Y-107801101D01*
X159650000Y-107668142D01*
X159721068Y-107801101D01*
X159900393Y-108019608D01*
X160118900Y-108198932D01*
X160368193Y-108332182D01*
X160638692Y-108414236D01*
X160920000Y-108441943D01*
X161201309Y-108414236D01*
X161471808Y-108332182D01*
X161721101Y-108198932D01*
X161939608Y-108019608D01*
X162118932Y-107801101D01*
X162190000Y-107668142D01*
X162261068Y-107801101D01*
X162440393Y-108019608D01*
X162658900Y-108198932D01*
X162908193Y-108332182D01*
X163178692Y-108414236D01*
X163460000Y-108441943D01*
X163741309Y-108414236D01*
X164011808Y-108332182D01*
X164261101Y-108198932D01*
X164479608Y-108019608D01*
X164658932Y-107801101D01*
X164730000Y-107668142D01*
X164801068Y-107801101D01*
X164980393Y-108019608D01*
X165198900Y-108198932D01*
X165448193Y-108332182D01*
X165718692Y-108414236D01*
X166000000Y-108441943D01*
X166281309Y-108414236D01*
X166551808Y-108332182D01*
X166801101Y-108198932D01*
X167019608Y-108019608D01*
X167198932Y-107801101D01*
X167270000Y-107668142D01*
X167341068Y-107801101D01*
X167520393Y-108019608D01*
X167738900Y-108198932D01*
X167988193Y-108332182D01*
X168258692Y-108414236D01*
X168540000Y-108441943D01*
X168821309Y-108414236D01*
X169091808Y-108332182D01*
X169341101Y-108198932D01*
X169559608Y-108019608D01*
X169738932Y-107801101D01*
X169810000Y-107668142D01*
X169881068Y-107801101D01*
X170060393Y-108019608D01*
X170278900Y-108198932D01*
X170528193Y-108332182D01*
X170798692Y-108414236D01*
X171080000Y-108441943D01*
X171361309Y-108414236D01*
X171631808Y-108332182D01*
X171881101Y-108198932D01*
X172099608Y-108019608D01*
X172278932Y-107801101D01*
X172350000Y-107668142D01*
X172421068Y-107801101D01*
X172600393Y-108019608D01*
X172818900Y-108198932D01*
X173068193Y-108332182D01*
X173338692Y-108414236D01*
X173620000Y-108441943D01*
X173901309Y-108414236D01*
X174171808Y-108332182D01*
X174421101Y-108198932D01*
X174639608Y-108019608D01*
X174818932Y-107801101D01*
X174890000Y-107668142D01*
X174961068Y-107801101D01*
X175140393Y-108019608D01*
X175358900Y-108198932D01*
X175608193Y-108332182D01*
X175878692Y-108414236D01*
X175971492Y-108423376D01*
X174529869Y-109865000D01*
X156444248Y-109865000D01*
X156277501Y-109881423D01*
X156063553Y-109946324D01*
X155866377Y-110051716D01*
X155693551Y-110193551D01*
X155551716Y-110366377D01*
X155446324Y-110563553D01*
X155381423Y-110777501D01*
X155359509Y-111000000D01*
X155381423Y-111222499D01*
X155446324Y-111436447D01*
X155551716Y-111633623D01*
X155639018Y-111740000D01*
X151814802Y-111740000D01*
X151035000Y-110960199D01*
X151035000Y-110898061D01*
X150995226Y-110698102D01*
X150917205Y-110509744D01*
X150803937Y-110340226D01*
X150659774Y-110196063D01*
X150490256Y-110082795D01*
X150301898Y-110004774D01*
X150101939Y-109965000D01*
X149898061Y-109965000D01*
X149698102Y-110004774D01*
X149509744Y-110082795D01*
X149340226Y-110196063D01*
X149196063Y-110340226D01*
X149082795Y-110509744D01*
X149004774Y-110698102D01*
X148965000Y-110898061D01*
X148965000Y-111101939D01*
X149004774Y-111301898D01*
X149082795Y-111490256D01*
X149196063Y-111659774D01*
X149340226Y-111803937D01*
X149509744Y-111917205D01*
X149698102Y-111995226D01*
X149898061Y-112035000D01*
X149960199Y-112035000D01*
X150936200Y-113011002D01*
X150959999Y-113040001D01*
X151075724Y-113134974D01*
X151207753Y-113205546D01*
X151351014Y-113249003D01*
X151462667Y-113260000D01*
X151462676Y-113260000D01*
X151499999Y-113263676D01*
X151537322Y-113260000D01*
X175496440Y-113260000D01*
X175504774Y-113301898D01*
X175582795Y-113490256D01*
X175696063Y-113659774D01*
X175840226Y-113803937D01*
X176009744Y-113917205D01*
X176198102Y-113995226D01*
X176398061Y-114035000D01*
X176601939Y-114035000D01*
X176801898Y-113995226D01*
X176990256Y-113917205D01*
X177159774Y-113803937D01*
X177303937Y-113659774D01*
X177417205Y-113490256D01*
X177495226Y-113301898D01*
X177535000Y-113101939D01*
X177535000Y-112898061D01*
X177495226Y-112698102D01*
X177417205Y-112509744D01*
X177303937Y-112340226D01*
X177159774Y-112196063D01*
X176990256Y-112082795D01*
X176801898Y-112004774D01*
X176601939Y-111965000D01*
X176544105Y-111965000D01*
X176540001Y-111959999D01*
X176424276Y-111865026D01*
X176292247Y-111794454D01*
X176148986Y-111750997D01*
X176037333Y-111740000D01*
X176037322Y-111740000D01*
X176000000Y-111736324D01*
X175962678Y-111740000D01*
X175865131Y-111740000D01*
X178341988Y-109263144D01*
X178448284Y-109133623D01*
X178553676Y-108936447D01*
X178618577Y-108722499D01*
X178640491Y-108500000D01*
X178634134Y-108435456D01*
X178700000Y-108441943D01*
X178981309Y-108414236D01*
X179251808Y-108332182D01*
X179501101Y-108198932D01*
X179719608Y-108019608D01*
X179873000Y-107832699D01*
X179873000Y-129289990D01*
X174501202Y-129289990D01*
X173350178Y-128138967D01*
X173326382Y-128109971D01*
X173297383Y-128086172D01*
X173210657Y-128014997D01*
X173078627Y-127944425D01*
X172978823Y-127914151D01*
X172935367Y-127900969D01*
X172823714Y-127889972D01*
X172786381Y-127886295D01*
X172749048Y-127889972D01*
X159571240Y-127889971D01*
X160076203Y-127385010D01*
X173075321Y-127385010D01*
X173112643Y-127388686D01*
X173149965Y-127385010D01*
X173149976Y-127385010D01*
X173261629Y-127374013D01*
X173404890Y-127330556D01*
X173536919Y-127259984D01*
X173652644Y-127165011D01*
X173676446Y-127136008D01*
X174052454Y-126760000D01*
X174114592Y-126760000D01*
X174314551Y-126720226D01*
X174502909Y-126642205D01*
X174672427Y-126528937D01*
X174816590Y-126384774D01*
X174929858Y-126215256D01*
X175007879Y-126026898D01*
X175028179Y-125924841D01*
X175198102Y-125995226D01*
X175398061Y-126035000D01*
X175601939Y-126035000D01*
X175801898Y-125995226D01*
X175990256Y-125917205D01*
X176159774Y-125803937D01*
X176303937Y-125659774D01*
X176417205Y-125490256D01*
X176495226Y-125301898D01*
X176535000Y-125101939D01*
X176535000Y-124898061D01*
X176495226Y-124698102D01*
X176417205Y-124509744D01*
X176303937Y-124340226D01*
X176159774Y-124196063D01*
X175990256Y-124082795D01*
X175801898Y-124004774D01*
X175601939Y-123965000D01*
X175398061Y-123965000D01*
X175198102Y-124004774D01*
X175009744Y-124082795D01*
X174840226Y-124196063D01*
X174796289Y-124240000D01*
X173537322Y-124240000D01*
X173499999Y-124236324D01*
X173462676Y-124240000D01*
X173462667Y-124240000D01*
X173351014Y-124250997D01*
X173207753Y-124294454D01*
X173075724Y-124365026D01*
X172959999Y-124459999D01*
X172936201Y-124488997D01*
X172010198Y-125415001D01*
X159612321Y-125415001D01*
X159574998Y-125411325D01*
X159537676Y-125415001D01*
X159537666Y-125415001D01*
X159426013Y-125425998D01*
X159282752Y-125469455D01*
X159150722Y-125540027D01*
X159106871Y-125576015D01*
X159034998Y-125635000D01*
X159011200Y-125663998D01*
X158181199Y-126494000D01*
X157672611Y-126494000D01*
X157685812Y-126450482D01*
X157698072Y-126326000D01*
X157698072Y-124626000D01*
X157685812Y-124501518D01*
X157649502Y-124381820D01*
X157590537Y-124271506D01*
X157511185Y-124174815D01*
X157414494Y-124095463D01*
X157304180Y-124036498D01*
X157184482Y-124000188D01*
X157060000Y-123987928D01*
X155360000Y-123987928D01*
X155235518Y-124000188D01*
X155115820Y-124036498D01*
X155005506Y-124095463D01*
X154908815Y-124174815D01*
X154829463Y-124271506D01*
X154770498Y-124381820D01*
X154748487Y-124454380D01*
X154616632Y-124322525D01*
X154430000Y-124197822D01*
X154430000Y-123198178D01*
X154616632Y-123073475D01*
X154748487Y-122941620D01*
X154770498Y-123014180D01*
X154829463Y-123124494D01*
X154908815Y-123221185D01*
X155005506Y-123300537D01*
X155115820Y-123359502D01*
X155235518Y-123395812D01*
X155360000Y-123408072D01*
X157060000Y-123408072D01*
X157184482Y-123395812D01*
X157304180Y-123359502D01*
X157414494Y-123300537D01*
X157511185Y-123221185D01*
X157590537Y-123124494D01*
X157649502Y-123014180D01*
X157685812Y-122894482D01*
X157698072Y-122770000D01*
X157698072Y-121070000D01*
X157685812Y-120945518D01*
X157649502Y-120825820D01*
X157590537Y-120715506D01*
X157511185Y-120618815D01*
X157414494Y-120539463D01*
X157304180Y-120480498D01*
X157184482Y-120444188D01*
X157060000Y-120431928D01*
X155360000Y-120431928D01*
X155235518Y-120444188D01*
X155115820Y-120480498D01*
X155005506Y-120539463D01*
X154908815Y-120618815D01*
X154829463Y-120715506D01*
X154770498Y-120825820D01*
X154748487Y-120898380D01*
X154616632Y-120766525D01*
X154373411Y-120604010D01*
X154103158Y-120492068D01*
X153816260Y-120435000D01*
X153523740Y-120435000D01*
X153236842Y-120492068D01*
X152966589Y-120604010D01*
X152723368Y-120766525D01*
X152516525Y-120973368D01*
X152400000Y-121147760D01*
X152283475Y-120973368D01*
X152076632Y-120766525D01*
X151833411Y-120604010D01*
X151563158Y-120492068D01*
X151276260Y-120435000D01*
X150983740Y-120435000D01*
X150696842Y-120492068D01*
X150426589Y-120604010D01*
X150183368Y-120766525D01*
X149976525Y-120973368D01*
X149860000Y-121147760D01*
X149743475Y-120973368D01*
X149536632Y-120766525D01*
X149293411Y-120604010D01*
X149023158Y-120492068D01*
X148736260Y-120435000D01*
X148443740Y-120435000D01*
X148156842Y-120492068D01*
X147886589Y-120604010D01*
X147643368Y-120766525D01*
X147436525Y-120973368D01*
X147320000Y-121147760D01*
X147203475Y-120973368D01*
X146996632Y-120766525D01*
X146753411Y-120604010D01*
X146483158Y-120492068D01*
X146196260Y-120435000D01*
X145903740Y-120435000D01*
X145616842Y-120492068D01*
X145346589Y-120604010D01*
X145103368Y-120766525D01*
X144896525Y-120973368D01*
X144774805Y-121155534D01*
X144705178Y-121038645D01*
X144510269Y-120822412D01*
X144276920Y-120648359D01*
X144014099Y-120523175D01*
X143866890Y-120478524D01*
X143637000Y-120599845D01*
X143637000Y-121793000D01*
X143657000Y-121793000D01*
X143657000Y-122047000D01*
X143637000Y-122047000D01*
X143637000Y-123240155D01*
X143866890Y-123361476D01*
X144014099Y-123316825D01*
X144276920Y-123191641D01*
X144510269Y-123017588D01*
X144705178Y-122801355D01*
X144774805Y-122684466D01*
X144896525Y-122866632D01*
X145103368Y-123073475D01*
X145346589Y-123235990D01*
X145616842Y-123347932D01*
X145903740Y-123405000D01*
X146196260Y-123405000D01*
X146483158Y-123347932D01*
X146753411Y-123235990D01*
X146996632Y-123073475D01*
X147203475Y-122866632D01*
X147320000Y-122692240D01*
X147436525Y-122866632D01*
X147643368Y-123073475D01*
X147886589Y-123235990D01*
X148156842Y-123347932D01*
X148443740Y-123405000D01*
X148736260Y-123405000D01*
X149023158Y-123347932D01*
X149293411Y-123235990D01*
X149536632Y-123073475D01*
X149743475Y-122866632D01*
X149860000Y-122692240D01*
X149976525Y-122866632D01*
X150183368Y-123073475D01*
X150370001Y-123198179D01*
X150370000Y-124197821D01*
X150183368Y-124322525D01*
X149976525Y-124529368D01*
X149860000Y-124703760D01*
X149743475Y-124529368D01*
X149536632Y-124322525D01*
X149293411Y-124160010D01*
X149023158Y-124048068D01*
X148736260Y-123991000D01*
X148443740Y-123991000D01*
X148156842Y-124048068D01*
X147886589Y-124160010D01*
X147643368Y-124322525D01*
X147436525Y-124529368D01*
X147314805Y-124711534D01*
X147245178Y-124594645D01*
X147050269Y-124378412D01*
X146816920Y-124204359D01*
X146554099Y-124079175D01*
X146406890Y-124034524D01*
X146177000Y-124155845D01*
X146177000Y-125349000D01*
X146197000Y-125349000D01*
X146197000Y-125603000D01*
X146177000Y-125603000D01*
X146177000Y-126796155D01*
X146406890Y-126917476D01*
X146554099Y-126872825D01*
X146816920Y-126747641D01*
X147050269Y-126573588D01*
X147245178Y-126357355D01*
X147314805Y-126240466D01*
X147436525Y-126422632D01*
X147643368Y-126629475D01*
X147886589Y-126791990D01*
X148156842Y-126903932D01*
X148443740Y-126961000D01*
X148736260Y-126961000D01*
X149023158Y-126903932D01*
X149293411Y-126791990D01*
X149536632Y-126629475D01*
X149743475Y-126422632D01*
X149860000Y-126248240D01*
X149976525Y-126422632D01*
X150183368Y-126629475D01*
X150366927Y-126752125D01*
X150370000Y-126783322D01*
X150370000Y-126783332D01*
X150380997Y-126894985D01*
X150413763Y-127003002D01*
X150424454Y-127038246D01*
X150495026Y-127170276D01*
X150534871Y-127218826D01*
X150589999Y-127286001D01*
X150619002Y-127309804D01*
X151199169Y-127889971D01*
X134561182Y-127889970D01*
X132000952Y-125329740D01*
X142025000Y-125329740D01*
X142025000Y-125622260D01*
X142082068Y-125909158D01*
X142194010Y-126179411D01*
X142356525Y-126422632D01*
X142563368Y-126629475D01*
X142806589Y-126791990D01*
X143076842Y-126903932D01*
X143363740Y-126961000D01*
X143656260Y-126961000D01*
X143943158Y-126903932D01*
X144213411Y-126791990D01*
X144456632Y-126629475D01*
X144663475Y-126422632D01*
X144785195Y-126240466D01*
X144854822Y-126357355D01*
X145049731Y-126573588D01*
X145283080Y-126747641D01*
X145545901Y-126872825D01*
X145693110Y-126917476D01*
X145923000Y-126796155D01*
X145923000Y-125603000D01*
X145903000Y-125603000D01*
X145903000Y-125349000D01*
X145923000Y-125349000D01*
X145923000Y-124155845D01*
X145693110Y-124034524D01*
X145545901Y-124079175D01*
X145283080Y-124204359D01*
X145049731Y-124378412D01*
X144854822Y-124594645D01*
X144785195Y-124711534D01*
X144663475Y-124529368D01*
X144456632Y-124322525D01*
X144213411Y-124160010D01*
X143943158Y-124048068D01*
X143656260Y-123991000D01*
X143363740Y-123991000D01*
X143076842Y-124048068D01*
X142806589Y-124160010D01*
X142563368Y-124322525D01*
X142356525Y-124529368D01*
X142194010Y-124772589D01*
X142082068Y-125042842D01*
X142025000Y-125329740D01*
X132000952Y-125329740D01*
X130260000Y-123588789D01*
X130260000Y-122276891D01*
X142068519Y-122276891D01*
X142165843Y-122551252D01*
X142314822Y-122801355D01*
X142509731Y-123017588D01*
X142743080Y-123191641D01*
X143005901Y-123316825D01*
X143153110Y-123361476D01*
X143383000Y-123240155D01*
X143383000Y-122047000D01*
X142189186Y-122047000D01*
X142068519Y-122276891D01*
X130260000Y-122276891D01*
X130260000Y-121563109D01*
X142068519Y-121563109D01*
X142189186Y-121793000D01*
X143383000Y-121793000D01*
X143383000Y-120599845D01*
X143153110Y-120478524D01*
X143005901Y-120523175D01*
X142743080Y-120648359D01*
X142509731Y-120822412D01*
X142314822Y-121038645D01*
X142165843Y-121288748D01*
X142068519Y-121563109D01*
X130260000Y-121563109D01*
X130260000Y-120937322D01*
X130263676Y-120900000D01*
X130260000Y-120862677D01*
X130260000Y-120862667D01*
X130249003Y-120751014D01*
X130205546Y-120607753D01*
X130169044Y-120539463D01*
X130134974Y-120475723D01*
X130063799Y-120388997D01*
X130040001Y-120359999D01*
X130011004Y-120336202D01*
X128663804Y-118989003D01*
X128640001Y-118959999D01*
X128524276Y-118865026D01*
X128488072Y-118845674D01*
X128488072Y-118650000D01*
X128475812Y-118525518D01*
X128439502Y-118405820D01*
X128380537Y-118295506D01*
X128301185Y-118198815D01*
X128204494Y-118119463D01*
X128094180Y-118060498D01*
X127974482Y-118024188D01*
X127850000Y-118011928D01*
X126150000Y-118011928D01*
X126025518Y-118024188D01*
X125905820Y-118060498D01*
X125795506Y-118119463D01*
X125698815Y-118198815D01*
X125619463Y-118295506D01*
X125560498Y-118405820D01*
X125524188Y-118525518D01*
X125511928Y-118650000D01*
X125511928Y-120350000D01*
X125524188Y-120474482D01*
X125560498Y-120594180D01*
X125619463Y-120704494D01*
X125698815Y-120801185D01*
X125795506Y-120880537D01*
X125905820Y-120939502D01*
X125978380Y-120961513D01*
X125846525Y-121093368D01*
X125684010Y-121336589D01*
X125572068Y-121606842D01*
X125515000Y-121893740D01*
X125515000Y-122186260D01*
X125572068Y-122473158D01*
X125684010Y-122743411D01*
X125846525Y-122986632D01*
X126053368Y-123193475D01*
X126227760Y-123310000D01*
X126053368Y-123426525D01*
X125846525Y-123633368D01*
X125684010Y-123876589D01*
X125572068Y-124146842D01*
X125515000Y-124433740D01*
X125515000Y-124726260D01*
X125572068Y-125013158D01*
X125684010Y-125283411D01*
X125846525Y-125526632D01*
X126053368Y-125733475D01*
X126227760Y-125850000D01*
X126053368Y-125966525D01*
X125846525Y-126173368D01*
X125684010Y-126416589D01*
X125572068Y-126686842D01*
X125515000Y-126973740D01*
X125515000Y-127266260D01*
X125572068Y-127553158D01*
X125684010Y-127823411D01*
X125846525Y-128066632D01*
X126053368Y-128273475D01*
X126235534Y-128395195D01*
X126118645Y-128464822D01*
X125902412Y-128659731D01*
X125728359Y-128893080D01*
X125603175Y-129155901D01*
X125558524Y-129303110D01*
X125679845Y-129533000D01*
X126873000Y-129533000D01*
X126873000Y-129513000D01*
X127127000Y-129513000D01*
X127127000Y-129533000D01*
X127147000Y-129533000D01*
X127147000Y-129787000D01*
X127127000Y-129787000D01*
X127127000Y-129807000D01*
X126873000Y-129807000D01*
X126873000Y-129787000D01*
X125679845Y-129787000D01*
X125558524Y-130016890D01*
X125603175Y-130164099D01*
X125728359Y-130426920D01*
X125902412Y-130660269D01*
X126118645Y-130855178D01*
X126235534Y-130924805D01*
X126053368Y-131046525D01*
X125846525Y-131253368D01*
X125684010Y-131496589D01*
X125572068Y-131766842D01*
X125515000Y-132053740D01*
X125515000Y-132346260D01*
X125572068Y-132633158D01*
X125684010Y-132903411D01*
X125846525Y-133146632D01*
X126053368Y-133353475D01*
X126296589Y-133515990D01*
X126566842Y-133627932D01*
X126853740Y-133685000D01*
X127146260Y-133685000D01*
X127433158Y-133627932D01*
X127703411Y-133515990D01*
X127946632Y-133353475D01*
X128153475Y-133146632D01*
X128315990Y-132903411D01*
X128338113Y-132850000D01*
X139011928Y-132850000D01*
X139024188Y-132974482D01*
X139060498Y-133094180D01*
X139119463Y-133204494D01*
X139198815Y-133301185D01*
X139295506Y-133380537D01*
X139405820Y-133439502D01*
X139525518Y-133475812D01*
X139650000Y-133488072D01*
X140214250Y-133485000D01*
X140373000Y-133326250D01*
X140373000Y-132127000D01*
X139173750Y-132127000D01*
X139015000Y-132285750D01*
X139011928Y-132850000D01*
X128338113Y-132850000D01*
X128427932Y-132633158D01*
X128485000Y-132346260D01*
X128485000Y-132053740D01*
X128427932Y-131766842D01*
X128315990Y-131496589D01*
X128153475Y-131253368D01*
X127946632Y-131046525D01*
X127764466Y-130924805D01*
X127881355Y-130855178D01*
X128097588Y-130660269D01*
X128271641Y-130426920D01*
X128396825Y-130164099D01*
X128441476Y-130016890D01*
X128320156Y-129787002D01*
X128485000Y-129787002D01*
X128485000Y-129679801D01*
X129316200Y-130511002D01*
X129339999Y-130540001D01*
X129368997Y-130563799D01*
X129455723Y-130634974D01*
X129549247Y-130684964D01*
X129587753Y-130705546D01*
X129731014Y-130749003D01*
X129842667Y-130760000D01*
X129842676Y-130760000D01*
X129879999Y-130763676D01*
X129917322Y-130760000D01*
X139148602Y-130760000D01*
X139119463Y-130795506D01*
X139060498Y-130905820D01*
X139024188Y-131025518D01*
X139011928Y-131150000D01*
X139015000Y-131714250D01*
X139173750Y-131873000D01*
X140373000Y-131873000D01*
X140373000Y-131853000D01*
X140627000Y-131853000D01*
X140627000Y-131873000D01*
X140647000Y-131873000D01*
X140647000Y-132127000D01*
X140627000Y-132127000D01*
X140627000Y-133326250D01*
X140785750Y-133485000D01*
X141350000Y-133488072D01*
X141474482Y-133475812D01*
X141594180Y-133439502D01*
X141704494Y-133380537D01*
X141801185Y-133301185D01*
X141880537Y-133204494D01*
X141939502Y-133094180D01*
X141961513Y-133021620D01*
X142093368Y-133153475D01*
X142336589Y-133315990D01*
X142606842Y-133427932D01*
X142893740Y-133485000D01*
X143186260Y-133485000D01*
X143473158Y-133427932D01*
X143743411Y-133315990D01*
X143986632Y-133153475D01*
X144193475Y-132946632D01*
X144355990Y-132703411D01*
X144467932Y-132433158D01*
X144525000Y-132146260D01*
X144525000Y-131853740D01*
X144481210Y-131633592D01*
X144854802Y-131260000D01*
X146988409Y-131260000D01*
X146887818Y-131448193D01*
X146805764Y-131718692D01*
X146785000Y-131929509D01*
X146785000Y-132470492D01*
X146805764Y-132681309D01*
X146887818Y-132951808D01*
X147021068Y-133201101D01*
X147200393Y-133419608D01*
X147418900Y-133598932D01*
X147668193Y-133732182D01*
X147938692Y-133814236D01*
X148220000Y-133841943D01*
X148501309Y-133814236D01*
X148771808Y-133732182D01*
X149021101Y-133598932D01*
X149239608Y-133419608D01*
X149418932Y-133201101D01*
X149488122Y-133071655D01*
X149495570Y-133089227D01*
X149654327Y-133322662D01*
X149855575Y-133520639D01*
X150091579Y-133675551D01*
X150353270Y-133781444D01*
X150410961Y-133791904D01*
X150633000Y-133669915D01*
X150633000Y-132327000D01*
X150613000Y-132327000D01*
X150613000Y-132073000D01*
X150633000Y-132073000D01*
X150633000Y-132053000D01*
X150887000Y-132053000D01*
X150887000Y-132073000D01*
X150907000Y-132073000D01*
X150907000Y-132327000D01*
X150887000Y-132327000D01*
X150887000Y-133669915D01*
X151109039Y-133791904D01*
X151166730Y-133781444D01*
X151428421Y-133675551D01*
X151664425Y-133520639D01*
X151865673Y-133322662D01*
X152024430Y-133089227D01*
X152031878Y-133071655D01*
X152101068Y-133201101D01*
X152280393Y-133419608D01*
X152498900Y-133598932D01*
X152748193Y-133732182D01*
X153018692Y-133814236D01*
X153300000Y-133841943D01*
X153581309Y-133814236D01*
X153851808Y-133732182D01*
X154101101Y-133598932D01*
X154319608Y-133419608D01*
X154498932Y-133201101D01*
X154570000Y-133068142D01*
X154641068Y-133201101D01*
X154820393Y-133419608D01*
X155038900Y-133598932D01*
X155288193Y-133732182D01*
X155558692Y-133814236D01*
X155840000Y-133841943D01*
X156121309Y-133814236D01*
X156391808Y-133732182D01*
X156641101Y-133598932D01*
X156859608Y-133419608D01*
X157038932Y-133201101D01*
X157110000Y-133068142D01*
X157181068Y-133201101D01*
X157360393Y-133419608D01*
X157578900Y-133598932D01*
X157828193Y-133732182D01*
X158098692Y-133814236D01*
X158380000Y-133841943D01*
X158661309Y-133814236D01*
X158931808Y-133732182D01*
X159181101Y-133598932D01*
X159399608Y-133419608D01*
X159578932Y-133201101D01*
X159650000Y-133068142D01*
X159721068Y-133201101D01*
X159900393Y-133419608D01*
X160118900Y-133598932D01*
X160368193Y-133732182D01*
X160638692Y-133814236D01*
X160920000Y-133841943D01*
X161201309Y-133814236D01*
X161471808Y-133732182D01*
X161721101Y-133598932D01*
X161939608Y-133419608D01*
X162118932Y-133201101D01*
X162190000Y-133068142D01*
X162261068Y-133201101D01*
X162440393Y-133419608D01*
X162658900Y-133598932D01*
X162908193Y-133732182D01*
X163178692Y-133814236D01*
X163460000Y-133841943D01*
X163741309Y-133814236D01*
X164011808Y-133732182D01*
X164261101Y-133598932D01*
X164479608Y-133419608D01*
X164658932Y-133201101D01*
X164730000Y-133068142D01*
X164801068Y-133201101D01*
X164980393Y-133419608D01*
X165198900Y-133598932D01*
X165448193Y-133732182D01*
X165718692Y-133814236D01*
X166000000Y-133841943D01*
X166281309Y-133814236D01*
X166551808Y-133732182D01*
X166801101Y-133598932D01*
X167019608Y-133419608D01*
X167198932Y-133201101D01*
X167270000Y-133068142D01*
X167341068Y-133201101D01*
X167520393Y-133419608D01*
X167738900Y-133598932D01*
X167988193Y-133732182D01*
X168258692Y-133814236D01*
X168540000Y-133841943D01*
X168821309Y-133814236D01*
X169091808Y-133732182D01*
X169341101Y-133598932D01*
X169559608Y-133419608D01*
X169738932Y-133201101D01*
X169810000Y-133068142D01*
X169881068Y-133201101D01*
X170060393Y-133419608D01*
X170278900Y-133598932D01*
X170528193Y-133732182D01*
X170798692Y-133814236D01*
X171080000Y-133841943D01*
X171361309Y-133814236D01*
X171631808Y-133732182D01*
X171881101Y-133598932D01*
X172099608Y-133419608D01*
X172278932Y-133201101D01*
X172350000Y-133068142D01*
X172421068Y-133201101D01*
X172600393Y-133419608D01*
X172818900Y-133598932D01*
X173068193Y-133732182D01*
X173338692Y-133814236D01*
X173620000Y-133841943D01*
X173901309Y-133814236D01*
X174171808Y-133732182D01*
X174421101Y-133598932D01*
X174639608Y-133419608D01*
X174818932Y-133201101D01*
X174890000Y-133068142D01*
X174961068Y-133201101D01*
X175140393Y-133419608D01*
X175358900Y-133598932D01*
X175608193Y-133732182D01*
X175878692Y-133814236D01*
X176160000Y-133841943D01*
X176441309Y-133814236D01*
X176711808Y-133732182D01*
X176961101Y-133598932D01*
X177179608Y-133419608D01*
X177358932Y-133201101D01*
X177430000Y-133068142D01*
X177501068Y-133201101D01*
X177680393Y-133419608D01*
X177898900Y-133598932D01*
X178148193Y-133732182D01*
X178418692Y-133814236D01*
X178700000Y-133841943D01*
X178981309Y-133814236D01*
X179251808Y-133732182D01*
X179501101Y-133598932D01*
X179719608Y-133419608D01*
X179873000Y-133232699D01*
X179873000Y-134840000D01*
X126032279Y-134840000D01*
X125546106Y-134792330D01*
X125109503Y-134660512D01*
X124706814Y-134446399D01*
X124353387Y-134158150D01*
X124062673Y-133806739D01*
X123845760Y-133405564D01*
X123710894Y-132969886D01*
X123660000Y-132485664D01*
X123660000Y-102539678D01*
X124730000Y-102539678D01*
X124730000Y-103200321D01*
X124753657Y-103440515D01*
X124847148Y-103748714D01*
X124998969Y-104032751D01*
X125203286Y-104281714D01*
X125452248Y-104486031D01*
X125736285Y-104637852D01*
X126044484Y-104731343D01*
X126365000Y-104762911D01*
X126685515Y-104731343D01*
X126993714Y-104637852D01*
X127277751Y-104486031D01*
X127526714Y-104281714D01*
X127635000Y-104149766D01*
X127743286Y-104281714D01*
X127992248Y-104486031D01*
X128276285Y-104637852D01*
X128584484Y-104731343D01*
X128905000Y-104762911D01*
X129225515Y-104731343D01*
X129533714Y-104637852D01*
X129817751Y-104486031D01*
X130066714Y-104281714D01*
X130170039Y-104155812D01*
X130381660Y-104374300D01*
X130646794Y-104557646D01*
X130942602Y-104685744D01*
X131064566Y-104710124D01*
X131318000Y-104590777D01*
X131318000Y-102997000D01*
X131298000Y-102997000D01*
X131298000Y-102743000D01*
X131318000Y-102743000D01*
X131318000Y-101149223D01*
X131572000Y-101149223D01*
X131572000Y-102743000D01*
X131592000Y-102743000D01*
X131592000Y-102997000D01*
X131572000Y-102997000D01*
X131572000Y-104590777D01*
X131825434Y-104710124D01*
X131947398Y-104685744D01*
X132243206Y-104557646D01*
X132508340Y-104374300D01*
X132548284Y-104333060D01*
X132630506Y-104400537D01*
X132740820Y-104459502D01*
X132860518Y-104495812D01*
X132985000Y-104508072D01*
X134985000Y-104508072D01*
X135109482Y-104495812D01*
X135229180Y-104459502D01*
X135339494Y-104400537D01*
X135436185Y-104321185D01*
X135515537Y-104224494D01*
X135574502Y-104114180D01*
X135610812Y-103994482D01*
X135623072Y-103870000D01*
X135623072Y-101870000D01*
X135610812Y-101745518D01*
X135574502Y-101625820D01*
X135515537Y-101515506D01*
X135436185Y-101418815D01*
X135339494Y-101339463D01*
X135229180Y-101280498D01*
X135109482Y-101244188D01*
X134985000Y-101231928D01*
X132985000Y-101231928D01*
X132860518Y-101244188D01*
X132740820Y-101280498D01*
X132630506Y-101339463D01*
X132548284Y-101406940D01*
X132508340Y-101365700D01*
X132243206Y-101182354D01*
X131947398Y-101054256D01*
X131825434Y-101029876D01*
X131572000Y-101149223D01*
X131318000Y-101149223D01*
X131064566Y-101029876D01*
X130942602Y-101054256D01*
X130646794Y-101182354D01*
X130381660Y-101365700D01*
X130170039Y-101584188D01*
X130066714Y-101458286D01*
X129817752Y-101253969D01*
X129533715Y-101102148D01*
X129225516Y-101008657D01*
X128905000Y-100977089D01*
X128584485Y-101008657D01*
X128276286Y-101102148D01*
X127992249Y-101253969D01*
X127743286Y-101458286D01*
X127635000Y-101590233D01*
X127526714Y-101458286D01*
X127277752Y-101253969D01*
X126993715Y-101102148D01*
X126685516Y-101008657D01*
X126365000Y-100977089D01*
X126044485Y-101008657D01*
X125736286Y-101102148D01*
X125452249Y-101253969D01*
X125203286Y-101458286D01*
X124998969Y-101707248D01*
X124847148Y-101991285D01*
X124753657Y-102299484D01*
X124730000Y-102539678D01*
X123660000Y-102539678D01*
X123660000Y-97952980D01*
X140409437Y-97952980D01*
X140480429Y-98171094D01*
X140624031Y-98446923D01*
X140818685Y-98689437D01*
X141056911Y-98889316D01*
X141329554Y-99038879D01*
X141626137Y-99132378D01*
X141873000Y-99005570D01*
X141873000Y-97707000D01*
X142127000Y-97707000D01*
X142127000Y-99005570D01*
X142373863Y-99132378D01*
X142670446Y-99038879D01*
X142943089Y-98889316D01*
X143181315Y-98689437D01*
X143375969Y-98446923D01*
X143519571Y-98171094D01*
X143590563Y-97952980D01*
X148409437Y-97952980D01*
X148480429Y-98171094D01*
X148624031Y-98446923D01*
X148818685Y-98689437D01*
X149056911Y-98889316D01*
X149329554Y-99038879D01*
X149626137Y-99132378D01*
X149873000Y-99005570D01*
X149873000Y-97707000D01*
X150127000Y-97707000D01*
X150127000Y-99005570D01*
X150373863Y-99132378D01*
X150670446Y-99038879D01*
X150943089Y-98889316D01*
X151181315Y-98689437D01*
X151375969Y-98446923D01*
X151519571Y-98171094D01*
X151590563Y-97952980D01*
X156409437Y-97952980D01*
X156480429Y-98171094D01*
X156624031Y-98446923D01*
X156818685Y-98689437D01*
X157056911Y-98889316D01*
X157329554Y-99038879D01*
X157626137Y-99132378D01*
X157873000Y-99005570D01*
X157873000Y-97707000D01*
X158127000Y-97707000D01*
X158127000Y-99005570D01*
X158373863Y-99132378D01*
X158670446Y-99038879D01*
X158943089Y-98889316D01*
X159181315Y-98689437D01*
X159375969Y-98446923D01*
X159519571Y-98171094D01*
X159590563Y-97952980D01*
X164409437Y-97952980D01*
X164480429Y-98171094D01*
X164624031Y-98446923D01*
X164818685Y-98689437D01*
X165056911Y-98889316D01*
X165329554Y-99038879D01*
X165626137Y-99132378D01*
X165873000Y-99005570D01*
X165873000Y-97707000D01*
X166127000Y-97707000D01*
X166127000Y-99005570D01*
X166373863Y-99132378D01*
X166670446Y-99038879D01*
X166943089Y-98889316D01*
X167181315Y-98689437D01*
X167375969Y-98446923D01*
X167519571Y-98171094D01*
X167590563Y-97952980D01*
X172409437Y-97952980D01*
X172480429Y-98171094D01*
X172624031Y-98446923D01*
X172818685Y-98689437D01*
X173056911Y-98889316D01*
X173329554Y-99038879D01*
X173626137Y-99132378D01*
X173873000Y-99005570D01*
X173873000Y-97707000D01*
X174127000Y-97707000D01*
X174127000Y-99005570D01*
X174373863Y-99132378D01*
X174670446Y-99038879D01*
X174943089Y-98889316D01*
X175181315Y-98689437D01*
X175375969Y-98446923D01*
X175519571Y-98171094D01*
X175590563Y-97952980D01*
X180409437Y-97952980D01*
X180480429Y-98171094D01*
X180624031Y-98446923D01*
X180818685Y-98689437D01*
X181056911Y-98889316D01*
X181329554Y-99038879D01*
X181626137Y-99132378D01*
X181873000Y-99005570D01*
X181873000Y-97707000D01*
X182127000Y-97707000D01*
X182127000Y-99005570D01*
X182373863Y-99132378D01*
X182670446Y-99038879D01*
X182943089Y-98889316D01*
X183181315Y-98689437D01*
X183375969Y-98446923D01*
X183519571Y-98171094D01*
X183590563Y-97952980D01*
X183470594Y-97707000D01*
X182127000Y-97707000D01*
X181873000Y-97707000D01*
X180529406Y-97707000D01*
X180409437Y-97952980D01*
X175590563Y-97952980D01*
X175470594Y-97707000D01*
X174127000Y-97707000D01*
X173873000Y-97707000D01*
X172529406Y-97707000D01*
X172409437Y-97952980D01*
X167590563Y-97952980D01*
X167470594Y-97707000D01*
X166127000Y-97707000D01*
X165873000Y-97707000D01*
X164529406Y-97707000D01*
X164409437Y-97952980D01*
X159590563Y-97952980D01*
X159470594Y-97707000D01*
X158127000Y-97707000D01*
X157873000Y-97707000D01*
X156529406Y-97707000D01*
X156409437Y-97952980D01*
X151590563Y-97952980D01*
X151470594Y-97707000D01*
X150127000Y-97707000D01*
X149873000Y-97707000D01*
X148529406Y-97707000D01*
X148409437Y-97952980D01*
X143590563Y-97952980D01*
X143470594Y-97707000D01*
X142127000Y-97707000D01*
X141873000Y-97707000D01*
X140529406Y-97707000D01*
X140409437Y-97952980D01*
X123660000Y-97952980D01*
X123660000Y-84808639D01*
X126491903Y-84808639D01*
X126563486Y-85052608D01*
X126818996Y-85173508D01*
X127093184Y-85242237D01*
X127375512Y-85256154D01*
X127655130Y-85214724D01*
X127921292Y-85119540D01*
X128046514Y-85052608D01*
X128118097Y-84808639D01*
X127305000Y-83995542D01*
X126491903Y-84808639D01*
X123660000Y-84808639D01*
X123660000Y-83886449D01*
X125864783Y-83886449D01*
X125906213Y-84166067D01*
X126001397Y-84432229D01*
X126068329Y-84557451D01*
X126312298Y-84629034D01*
X127125395Y-83815937D01*
X126312298Y-83002840D01*
X126068329Y-83074423D01*
X125947429Y-83329933D01*
X125878700Y-83604121D01*
X125864783Y-83886449D01*
X123660000Y-83886449D01*
X123660000Y-82823235D01*
X126491903Y-82823235D01*
X127305000Y-83636332D01*
X127319143Y-83622190D01*
X127498748Y-83801795D01*
X127484605Y-83815937D01*
X128297702Y-84629034D01*
X128541671Y-84557451D01*
X128551878Y-84535880D01*
X128693184Y-84571300D01*
X128975512Y-84585217D01*
X129255130Y-84543787D01*
X129521292Y-84448603D01*
X129646514Y-84381671D01*
X129718097Y-84137702D01*
X128905000Y-83324605D01*
X128890858Y-83338748D01*
X128711253Y-83159143D01*
X128725395Y-83145000D01*
X129084605Y-83145000D01*
X129897702Y-83958097D01*
X130141671Y-83886514D01*
X130262571Y-83631004D01*
X130331300Y-83356816D01*
X130345217Y-83074488D01*
X130303787Y-82794870D01*
X130208603Y-82528708D01*
X130141671Y-82403486D01*
X129897702Y-82331903D01*
X129084605Y-83145000D01*
X128725395Y-83145000D01*
X127912298Y-82331903D01*
X127668329Y-82403486D01*
X127658122Y-82425057D01*
X127516816Y-82389637D01*
X127234488Y-82375720D01*
X126954870Y-82417150D01*
X126688708Y-82512334D01*
X126563486Y-82579266D01*
X126491903Y-82823235D01*
X123660000Y-82823235D01*
X123660000Y-79845000D01*
X127466928Y-79845000D01*
X127466928Y-81445000D01*
X127479188Y-81569482D01*
X127515498Y-81689180D01*
X127574463Y-81799494D01*
X127653815Y-81896185D01*
X127750506Y-81975537D01*
X127860820Y-82034502D01*
X127980518Y-82070812D01*
X128105000Y-82083072D01*
X128112215Y-82083072D01*
X128091903Y-82152298D01*
X128905000Y-82965395D01*
X129718097Y-82152298D01*
X129697785Y-82083072D01*
X129705000Y-82083072D01*
X129829482Y-82070812D01*
X129949180Y-82034502D01*
X130059494Y-81975537D01*
X130156185Y-81896185D01*
X130235537Y-81799494D01*
X130294502Y-81689180D01*
X130330812Y-81569482D01*
X130343072Y-81445000D01*
X130343072Y-81412135D01*
X131305000Y-81412135D01*
X131429482Y-81399875D01*
X131549180Y-81363565D01*
X131659494Y-81304600D01*
X131756185Y-81225248D01*
X131835537Y-81128557D01*
X131894502Y-81018243D01*
X131930812Y-80898545D01*
X131943072Y-80774063D01*
X131943072Y-79174063D01*
X131930812Y-79049581D01*
X131894502Y-78929883D01*
X131835537Y-78819569D01*
X131756185Y-78722878D01*
X131659494Y-78643526D01*
X131560804Y-78590774D01*
X132766579Y-77385000D01*
X133152379Y-77385000D01*
X133185498Y-77494180D01*
X133244463Y-77604494D01*
X133323815Y-77701185D01*
X133420506Y-77780537D01*
X133530820Y-77839502D01*
X133650518Y-77875812D01*
X133775000Y-77888072D01*
X134775000Y-77888072D01*
X134900136Y-77875681D01*
X134925064Y-77868091D01*
X134950518Y-77875812D01*
X135075000Y-77888072D01*
X136225000Y-77888072D01*
X136349482Y-77875812D01*
X136469180Y-77839502D01*
X136579494Y-77780537D01*
X136676185Y-77701185D01*
X136755537Y-77604494D01*
X136814502Y-77494180D01*
X136847622Y-77384999D01*
X138865000Y-77385000D01*
X138865000Y-77870559D01*
X138865001Y-83129442D01*
X138903128Y-83516550D01*
X139053800Y-84013250D01*
X139298478Y-84471011D01*
X139627760Y-84872241D01*
X140028990Y-85201523D01*
X140486751Y-85446201D01*
X140983451Y-85596873D01*
X141500000Y-85647749D01*
X142016550Y-85596873D01*
X142513250Y-85446201D01*
X142971011Y-85201523D01*
X143372241Y-84872241D01*
X143701523Y-84471011D01*
X143946201Y-84013250D01*
X144096873Y-83516550D01*
X144135000Y-83129442D01*
X144135000Y-76635000D01*
X144845654Y-76635000D01*
X144841637Y-76639017D01*
X144783081Y-76726653D01*
X144716223Y-76808119D01*
X144666543Y-76901063D01*
X144607988Y-76988698D01*
X144567653Y-77086076D01*
X144517974Y-77179019D01*
X144487382Y-77279866D01*
X144447047Y-77377244D01*
X144426484Y-77480618D01*
X144395892Y-77581468D01*
X144385562Y-77686348D01*
X144365000Y-77789721D01*
X144365000Y-77895119D01*
X144365001Y-82789716D01*
X144365000Y-82789721D01*
X144365000Y-83210279D01*
X144385564Y-83313661D01*
X144395893Y-83418533D01*
X144426483Y-83519375D01*
X144447047Y-83622756D01*
X144487385Y-83720140D01*
X144517975Y-83820982D01*
X144567650Y-83913919D01*
X144607988Y-84011302D01*
X144666548Y-84098943D01*
X144716224Y-84191881D01*
X144783076Y-84273341D01*
X144841637Y-84360983D01*
X144865001Y-84384347D01*
X144865000Y-91822761D01*
X143638072Y-93049690D01*
X143638072Y-91547500D01*
X143625812Y-91423018D01*
X143589502Y-91303320D01*
X143530537Y-91193006D01*
X143451185Y-91096315D01*
X143354494Y-91016963D01*
X143244180Y-90957998D01*
X143124482Y-90921688D01*
X143000000Y-90909428D01*
X141000000Y-90909428D01*
X140875518Y-90921688D01*
X140755820Y-90957998D01*
X140645506Y-91016963D01*
X140548815Y-91096315D01*
X140469463Y-91193006D01*
X140410498Y-91303320D01*
X140374188Y-91423018D01*
X140361928Y-91547500D01*
X140361928Y-93452500D01*
X140374188Y-93576982D01*
X140410498Y-93696680D01*
X140469463Y-93806994D01*
X140548815Y-93903685D01*
X140645506Y-93983037D01*
X140719751Y-94022722D01*
X140633969Y-94127248D01*
X140482148Y-94411285D01*
X140388657Y-94719484D01*
X140357089Y-95040000D01*
X140388657Y-95360516D01*
X140482148Y-95668715D01*
X140633969Y-95952752D01*
X140838286Y-96201714D01*
X140990363Y-96326520D01*
X140818685Y-96470563D01*
X140624031Y-96713077D01*
X140480429Y-96988906D01*
X140409437Y-97207020D01*
X140529406Y-97453000D01*
X141873000Y-97453000D01*
X141873000Y-97433000D01*
X142127000Y-97433000D01*
X142127000Y-97453000D01*
X143470594Y-97453000D01*
X143590563Y-97207020D01*
X143519571Y-96988906D01*
X143375969Y-96713077D01*
X143345406Y-96675000D01*
X143879681Y-96675000D01*
X143960000Y-96682911D01*
X144040319Y-96675000D01*
X144040322Y-96675000D01*
X144280516Y-96651343D01*
X144588715Y-96557852D01*
X144872752Y-96406031D01*
X145121714Y-96201714D01*
X145172925Y-96139313D01*
X147599320Y-93712919D01*
X147661714Y-93661714D01*
X147866031Y-93412752D01*
X148017852Y-93128715D01*
X148111343Y-92820516D01*
X148135000Y-92580322D01*
X148135000Y-92580320D01*
X148142911Y-92500001D01*
X148135000Y-92419681D01*
X148135000Y-84384346D01*
X148158363Y-84360983D01*
X148216919Y-84273347D01*
X148283777Y-84191881D01*
X148333457Y-84098936D01*
X148392012Y-84011302D01*
X148432346Y-83913927D01*
X148482026Y-83820982D01*
X148512619Y-83720131D01*
X148552953Y-83622756D01*
X148573515Y-83519384D01*
X148604108Y-83418533D01*
X148614438Y-83313651D01*
X148635000Y-83210279D01*
X148635000Y-77789721D01*
X148614438Y-77686349D01*
X148604108Y-77581467D01*
X148573515Y-77480616D01*
X148552953Y-77377244D01*
X148512619Y-77279869D01*
X148482026Y-77179018D01*
X148432346Y-77086073D01*
X148392012Y-76988698D01*
X148333457Y-76901064D01*
X148283777Y-76808119D01*
X148216919Y-76726653D01*
X148158363Y-76639017D01*
X148154346Y-76635000D01*
X149845654Y-76635000D01*
X149841637Y-76639017D01*
X149783076Y-76726659D01*
X149716224Y-76808119D01*
X149666548Y-76901057D01*
X149607988Y-76988698D01*
X149567650Y-77086081D01*
X149517975Y-77179018D01*
X149487385Y-77279860D01*
X149447047Y-77377244D01*
X149426483Y-77480625D01*
X149395893Y-77581467D01*
X149385564Y-77686339D01*
X149365000Y-77789721D01*
X149365000Y-78210279D01*
X149365001Y-78210284D01*
X149365000Y-82789721D01*
X149365000Y-83210279D01*
X149385562Y-83313652D01*
X149395892Y-83418532D01*
X149426484Y-83519382D01*
X149447047Y-83622756D01*
X149487382Y-83720134D01*
X149517974Y-83820981D01*
X149567653Y-83913924D01*
X149607988Y-84011302D01*
X149666543Y-84098937D01*
X149716223Y-84191881D01*
X149783081Y-84273347D01*
X149841637Y-84360983D01*
X149865001Y-84384347D01*
X149865000Y-87419680D01*
X149857089Y-87500000D01*
X149865000Y-87580319D01*
X149865000Y-87580321D01*
X149888657Y-87820515D01*
X149982148Y-88128714D01*
X150133969Y-88412751D01*
X150338286Y-88661714D01*
X150400687Y-88712925D01*
X151865001Y-90177240D01*
X151865000Y-92822761D01*
X151638072Y-93049689D01*
X151638072Y-91547500D01*
X151625812Y-91423018D01*
X151589502Y-91303320D01*
X151530537Y-91193006D01*
X151451185Y-91096315D01*
X151354494Y-91016963D01*
X151244180Y-90957998D01*
X151124482Y-90921688D01*
X151000000Y-90909428D01*
X149000000Y-90909428D01*
X148875518Y-90921688D01*
X148755820Y-90957998D01*
X148645506Y-91016963D01*
X148548815Y-91096315D01*
X148469463Y-91193006D01*
X148410498Y-91303320D01*
X148374188Y-91423018D01*
X148361928Y-91547500D01*
X148361928Y-93452500D01*
X148374188Y-93576982D01*
X148410498Y-93696680D01*
X148469463Y-93806994D01*
X148548815Y-93903685D01*
X148645506Y-93983037D01*
X148719751Y-94022722D01*
X148633969Y-94127248D01*
X148482148Y-94411285D01*
X148388657Y-94719484D01*
X148357089Y-95040000D01*
X148388657Y-95360516D01*
X148482148Y-95668715D01*
X148633969Y-95952752D01*
X148838286Y-96201714D01*
X148990363Y-96326520D01*
X148818685Y-96470563D01*
X148624031Y-96713077D01*
X148480429Y-96988906D01*
X148409437Y-97207020D01*
X148529406Y-97453000D01*
X149873000Y-97453000D01*
X149873000Y-97433000D01*
X150127000Y-97433000D01*
X150127000Y-97453000D01*
X151470594Y-97453000D01*
X151590563Y-97207020D01*
X151519571Y-96988906D01*
X151375969Y-96713077D01*
X151345406Y-96675000D01*
X151879681Y-96675000D01*
X151960000Y-96682911D01*
X152040319Y-96675000D01*
X152040322Y-96675000D01*
X152280516Y-96651343D01*
X152588715Y-96557852D01*
X152872752Y-96406031D01*
X153121714Y-96201714D01*
X153172925Y-96139314D01*
X154599320Y-94712919D01*
X154661714Y-94661714D01*
X154866031Y-94412752D01*
X155017852Y-94128715D01*
X155111343Y-93820516D01*
X155135000Y-93580322D01*
X155135000Y-93580320D01*
X155142911Y-93500000D01*
X155135000Y-93419681D01*
X155135000Y-89580319D01*
X155142911Y-89499999D01*
X155135000Y-89419678D01*
X155111343Y-89179484D01*
X155017852Y-88871285D01*
X154866031Y-88587248D01*
X154661714Y-88338286D01*
X154599318Y-88287080D01*
X153135000Y-86822762D01*
X153135000Y-84384346D01*
X153158363Y-84360983D01*
X153216919Y-84273347D01*
X153283777Y-84191881D01*
X153333457Y-84098936D01*
X153392012Y-84011302D01*
X153432346Y-83913927D01*
X153482026Y-83820982D01*
X153512619Y-83720131D01*
X153552953Y-83622756D01*
X153573515Y-83519384D01*
X153604108Y-83418533D01*
X153614438Y-83313651D01*
X153635000Y-83210279D01*
X153635000Y-77789721D01*
X153614438Y-77686349D01*
X153604108Y-77581467D01*
X153573515Y-77480616D01*
X153552953Y-77377244D01*
X153512619Y-77279869D01*
X153482026Y-77179018D01*
X153432346Y-77086073D01*
X153392012Y-76988698D01*
X153333457Y-76901064D01*
X153283777Y-76808119D01*
X153216919Y-76726653D01*
X153158363Y-76639017D01*
X153154346Y-76635000D01*
X154845654Y-76635000D01*
X154841637Y-76639017D01*
X154783081Y-76726653D01*
X154716223Y-76808119D01*
X154666543Y-76901063D01*
X154607988Y-76988698D01*
X154567653Y-77086076D01*
X154517974Y-77179019D01*
X154487382Y-77279866D01*
X154447047Y-77377244D01*
X154426484Y-77480618D01*
X154395892Y-77581468D01*
X154385562Y-77686348D01*
X154365000Y-77789721D01*
X154365000Y-77895119D01*
X154365001Y-82789716D01*
X154365000Y-82789721D01*
X154365000Y-83210279D01*
X154385564Y-83313661D01*
X154395893Y-83418533D01*
X154426483Y-83519375D01*
X154447047Y-83622756D01*
X154487385Y-83720140D01*
X154517975Y-83820982D01*
X154567650Y-83913919D01*
X154607988Y-84011302D01*
X154666548Y-84098943D01*
X154716224Y-84191881D01*
X154783076Y-84273341D01*
X154841637Y-84360983D01*
X154865000Y-84384346D01*
X154865000Y-85419680D01*
X154857089Y-85500000D01*
X154865000Y-85580319D01*
X154865000Y-85580321D01*
X154888657Y-85820515D01*
X154982148Y-86128714D01*
X155133969Y-86412751D01*
X155338286Y-86661714D01*
X155400687Y-86712925D01*
X158865001Y-90177240D01*
X158865001Y-90909428D01*
X157000000Y-90909428D01*
X156875518Y-90921688D01*
X156755820Y-90957998D01*
X156645506Y-91016963D01*
X156548815Y-91096315D01*
X156469463Y-91193006D01*
X156410498Y-91303320D01*
X156374188Y-91423018D01*
X156361928Y-91547500D01*
X156361928Y-93452500D01*
X156374188Y-93576982D01*
X156410498Y-93696680D01*
X156469463Y-93806994D01*
X156548815Y-93903685D01*
X156645506Y-93983037D01*
X156719751Y-94022722D01*
X156633969Y-94127248D01*
X156482148Y-94411285D01*
X156388657Y-94719484D01*
X156357089Y-95040000D01*
X156388657Y-95360516D01*
X156482148Y-95668715D01*
X156633969Y-95952752D01*
X156838286Y-96201714D01*
X156990363Y-96326520D01*
X156818685Y-96470563D01*
X156624031Y-96713077D01*
X156480429Y-96988906D01*
X156409437Y-97207020D01*
X156529406Y-97453000D01*
X157873000Y-97453000D01*
X157873000Y-97433000D01*
X158127000Y-97433000D01*
X158127000Y-97453000D01*
X159470594Y-97453000D01*
X159590563Y-97207020D01*
X159519571Y-96988906D01*
X159375969Y-96713077D01*
X159345406Y-96675000D01*
X159492183Y-96675000D01*
X159572502Y-96682911D01*
X159652821Y-96675000D01*
X159652824Y-96675000D01*
X159893018Y-96651343D01*
X160201217Y-96557852D01*
X160485254Y-96406031D01*
X160734216Y-96201714D01*
X160785427Y-96139313D01*
X161599314Y-95325426D01*
X161661714Y-95274216D01*
X161866031Y-95025254D01*
X161947708Y-94872448D01*
X163214577Y-96139318D01*
X163265784Y-96201714D01*
X163514746Y-96406031D01*
X163798783Y-96557852D01*
X164106982Y-96651343D01*
X164347176Y-96675000D01*
X164347178Y-96675000D01*
X164427497Y-96682911D01*
X164507817Y-96675000D01*
X164654594Y-96675000D01*
X164624031Y-96713077D01*
X164480429Y-96988906D01*
X164409437Y-97207020D01*
X164529406Y-97453000D01*
X165873000Y-97453000D01*
X165873000Y-97433000D01*
X166127000Y-97433000D01*
X166127000Y-97453000D01*
X167470594Y-97453000D01*
X167590563Y-97207020D01*
X167519571Y-96988906D01*
X167375969Y-96713077D01*
X167181315Y-96470563D01*
X167009637Y-96326520D01*
X167161714Y-96201714D01*
X167366031Y-95952752D01*
X167517852Y-95668715D01*
X167611343Y-95360516D01*
X167642911Y-95040000D01*
X167611343Y-94719484D01*
X167517852Y-94411285D01*
X167366031Y-94127248D01*
X167280249Y-94022722D01*
X167354494Y-93983037D01*
X167451185Y-93903685D01*
X167530537Y-93806994D01*
X167589502Y-93696680D01*
X167625812Y-93576982D01*
X167638072Y-93452500D01*
X167638072Y-91547500D01*
X167625812Y-91423018D01*
X167589502Y-91303320D01*
X167530537Y-91193006D01*
X167451185Y-91096315D01*
X167354494Y-91016963D01*
X167244180Y-90957998D01*
X167124482Y-90921688D01*
X167000000Y-90909428D01*
X165000000Y-90909428D01*
X164875518Y-90921688D01*
X164755820Y-90957998D01*
X164645506Y-91016963D01*
X164635000Y-91025585D01*
X164635000Y-87080319D01*
X164642911Y-86999999D01*
X164634953Y-86919205D01*
X164611343Y-86679484D01*
X164517852Y-86371285D01*
X164366031Y-86087248D01*
X164161714Y-85838286D01*
X164099318Y-85787079D01*
X163135000Y-84822762D01*
X163135000Y-84384346D01*
X163158363Y-84360983D01*
X163216919Y-84273347D01*
X163283777Y-84191881D01*
X163333457Y-84098936D01*
X163392012Y-84011302D01*
X163432346Y-83913927D01*
X163482026Y-83820982D01*
X163512619Y-83720131D01*
X163552953Y-83622756D01*
X163573515Y-83519384D01*
X163604108Y-83418533D01*
X163614438Y-83313651D01*
X163635000Y-83210279D01*
X163635000Y-77789721D01*
X163614438Y-77686349D01*
X163604108Y-77581467D01*
X163573515Y-77480616D01*
X163552953Y-77377244D01*
X163512619Y-77279869D01*
X163482026Y-77179018D01*
X163432346Y-77086073D01*
X163392012Y-76988698D01*
X163333457Y-76901064D01*
X163283777Y-76808119D01*
X163216919Y-76726653D01*
X163158363Y-76639017D01*
X163154346Y-76635000D01*
X164845654Y-76635000D01*
X164841637Y-76639017D01*
X164783081Y-76726653D01*
X164716223Y-76808119D01*
X164666543Y-76901063D01*
X164607988Y-76988698D01*
X164567653Y-77086076D01*
X164517974Y-77179019D01*
X164487382Y-77279866D01*
X164447047Y-77377244D01*
X164426484Y-77480618D01*
X164395892Y-77581468D01*
X164385562Y-77686348D01*
X164365000Y-77789721D01*
X164365000Y-77895119D01*
X164365001Y-82789716D01*
X164365000Y-82789721D01*
X164365000Y-83210279D01*
X164385564Y-83313661D01*
X164395893Y-83418533D01*
X164426483Y-83519375D01*
X164447047Y-83622756D01*
X164487385Y-83720140D01*
X164517975Y-83820982D01*
X164567650Y-83913919D01*
X164607988Y-84011302D01*
X164666548Y-84098943D01*
X164716224Y-84191881D01*
X164783076Y-84273341D01*
X164841637Y-84360983D01*
X164865001Y-84384347D01*
X164865000Y-86919678D01*
X164857089Y-87000000D01*
X164865000Y-87080319D01*
X164865000Y-87080321D01*
X164888657Y-87320515D01*
X164982148Y-87628714D01*
X165133969Y-87912751D01*
X165338286Y-88161714D01*
X165400687Y-88212925D01*
X169365001Y-92177240D01*
X169365000Y-93532182D01*
X169357089Y-93612502D01*
X169365000Y-93692821D01*
X169365000Y-93692823D01*
X169388657Y-93933017D01*
X169482148Y-94241216D01*
X169633969Y-94525253D01*
X169838286Y-94774216D01*
X169900686Y-94825426D01*
X171214577Y-96139318D01*
X171265784Y-96201714D01*
X171514746Y-96406031D01*
X171798783Y-96557852D01*
X172106982Y-96651343D01*
X172347176Y-96675000D01*
X172347178Y-96675000D01*
X172427497Y-96682911D01*
X172507817Y-96675000D01*
X172654594Y-96675000D01*
X172624031Y-96713077D01*
X172480429Y-96988906D01*
X172409437Y-97207020D01*
X172529406Y-97453000D01*
X173873000Y-97453000D01*
X173873000Y-97433000D01*
X174127000Y-97433000D01*
X174127000Y-97453000D01*
X175470594Y-97453000D01*
X175590563Y-97207020D01*
X175519571Y-96988906D01*
X175375969Y-96713077D01*
X175181315Y-96470563D01*
X175009637Y-96326520D01*
X175161714Y-96201714D01*
X175366031Y-95952752D01*
X175517852Y-95668715D01*
X175611343Y-95360516D01*
X175642911Y-95040000D01*
X175611343Y-94719484D01*
X175517852Y-94411285D01*
X175366031Y-94127248D01*
X175280249Y-94022722D01*
X175354494Y-93983037D01*
X175451185Y-93903685D01*
X175530537Y-93806994D01*
X175589502Y-93696680D01*
X175625812Y-93576982D01*
X175638072Y-93452500D01*
X175638072Y-91547500D01*
X175625812Y-91423018D01*
X175589502Y-91303320D01*
X175530537Y-91193006D01*
X175451185Y-91096315D01*
X175354494Y-91016963D01*
X175244180Y-90957998D01*
X175124482Y-90921688D01*
X175000000Y-90909428D01*
X173000000Y-90909428D01*
X172875518Y-90921688D01*
X172755820Y-90957998D01*
X172645506Y-91016963D01*
X172578679Y-91071806D01*
X172517852Y-90871285D01*
X172366031Y-90587248D01*
X172161714Y-90338286D01*
X172099319Y-90287080D01*
X168135000Y-86322762D01*
X168135000Y-84384346D01*
X168158363Y-84360983D01*
X168216919Y-84273347D01*
X168283777Y-84191881D01*
X168333457Y-84098936D01*
X168392012Y-84011302D01*
X168432346Y-83913927D01*
X168482026Y-83820982D01*
X168512619Y-83720131D01*
X168552953Y-83622756D01*
X168573515Y-83519384D01*
X168604108Y-83418533D01*
X168614438Y-83313651D01*
X168635000Y-83210279D01*
X168635000Y-77789721D01*
X168614438Y-77686349D01*
X168604108Y-77581467D01*
X168573515Y-77480616D01*
X168552953Y-77377244D01*
X168512619Y-77279869D01*
X168482026Y-77179018D01*
X168432346Y-77086073D01*
X168392012Y-76988698D01*
X168333457Y-76901064D01*
X168283777Y-76808119D01*
X168216919Y-76726653D01*
X168158363Y-76639017D01*
X168154346Y-76635000D01*
X169845654Y-76635000D01*
X169841637Y-76639017D01*
X169783076Y-76726659D01*
X169716224Y-76808119D01*
X169666548Y-76901057D01*
X169607988Y-76988698D01*
X169567650Y-77086081D01*
X169517975Y-77179018D01*
X169487385Y-77279860D01*
X169447047Y-77377244D01*
X169426483Y-77480625D01*
X169395893Y-77581467D01*
X169385564Y-77686339D01*
X169365000Y-77789721D01*
X169365000Y-78210279D01*
X169365001Y-78210284D01*
X169365000Y-82789721D01*
X169365000Y-83210279D01*
X169385562Y-83313652D01*
X169395892Y-83418532D01*
X169426484Y-83519382D01*
X169447047Y-83622756D01*
X169487382Y-83720134D01*
X169517974Y-83820981D01*
X169567653Y-83913924D01*
X169607988Y-84011302D01*
X169666543Y-84098937D01*
X169716223Y-84191881D01*
X169783081Y-84273347D01*
X169841637Y-84360983D01*
X169865000Y-84384346D01*
X169865000Y-84419681D01*
X169857089Y-84500000D01*
X169865000Y-84580319D01*
X169865000Y-84580321D01*
X169888657Y-84820515D01*
X169982148Y-85128714D01*
X170133969Y-85412751D01*
X170338286Y-85661714D01*
X170400687Y-85712925D01*
X176865000Y-92177239D01*
X176865000Y-93032183D01*
X176857089Y-93112502D01*
X176865000Y-93192821D01*
X176865000Y-93192823D01*
X176888657Y-93433017D01*
X176982148Y-93741216D01*
X177133969Y-94025253D01*
X177338286Y-94274216D01*
X177400687Y-94325427D01*
X179214577Y-96139318D01*
X179265784Y-96201714D01*
X179514746Y-96406031D01*
X179798783Y-96557852D01*
X180106981Y-96651343D01*
X180427498Y-96682911D01*
X180507820Y-96675000D01*
X180654594Y-96675000D01*
X180624031Y-96713077D01*
X180480429Y-96988906D01*
X180409437Y-97207020D01*
X180529406Y-97453000D01*
X181873000Y-97453000D01*
X181873000Y-97433000D01*
X182127000Y-97433000D01*
X182127000Y-97453000D01*
X183470594Y-97453000D01*
X183590563Y-97207020D01*
X183519571Y-96988906D01*
X183375969Y-96713077D01*
X183181315Y-96470563D01*
X183009637Y-96326520D01*
X183161714Y-96201714D01*
X183366031Y-95952752D01*
X183517852Y-95668715D01*
X183611343Y-95360516D01*
X183642911Y-95040000D01*
X183611343Y-94719484D01*
X183517852Y-94411285D01*
X183366031Y-94127248D01*
X183280249Y-94022722D01*
X183354494Y-93983037D01*
X183451185Y-93903685D01*
X183530537Y-93806994D01*
X183589502Y-93696680D01*
X183625812Y-93576982D01*
X183638072Y-93452500D01*
X183638072Y-91547500D01*
X183625812Y-91423018D01*
X183589502Y-91303320D01*
X183530537Y-91193006D01*
X183451185Y-91096315D01*
X183354494Y-91016963D01*
X183244180Y-90957998D01*
X183124482Y-90921688D01*
X183000000Y-90909428D01*
X181000000Y-90909428D01*
X180875518Y-90921688D01*
X180755820Y-90957998D01*
X180645506Y-91016963D01*
X180548815Y-91096315D01*
X180469463Y-91193006D01*
X180410498Y-91303320D01*
X180374188Y-91423018D01*
X180361928Y-91547500D01*
X180361928Y-92662192D01*
X180135000Y-92435264D01*
X180135000Y-91580319D01*
X180142911Y-91500000D01*
X180135000Y-91419678D01*
X180111343Y-91179484D01*
X180017852Y-90871285D01*
X179866031Y-90587248D01*
X179661714Y-90338286D01*
X179599319Y-90287080D01*
X173364586Y-84052348D01*
X173392012Y-84011302D01*
X173432346Y-83913927D01*
X173482026Y-83820982D01*
X173512619Y-83720131D01*
X173552953Y-83622756D01*
X173573515Y-83519384D01*
X173604108Y-83418533D01*
X173614438Y-83313651D01*
X173635000Y-83210279D01*
X173635000Y-77789721D01*
X173614438Y-77686349D01*
X173604108Y-77581467D01*
X173573515Y-77480616D01*
X173552953Y-77377244D01*
X173512619Y-77279869D01*
X173482026Y-77179018D01*
X173432346Y-77086073D01*
X173392012Y-76988698D01*
X173333457Y-76901064D01*
X173283777Y-76808119D01*
X173216919Y-76726653D01*
X173158363Y-76639017D01*
X173154346Y-76635000D01*
X173865000Y-76635000D01*
X173865000Y-77870559D01*
X173865001Y-83129442D01*
X173903128Y-83516550D01*
X174053800Y-84013250D01*
X174298478Y-84471011D01*
X174627760Y-84872241D01*
X175028990Y-85201523D01*
X175486751Y-85446201D01*
X175983451Y-85596873D01*
X176500000Y-85647749D01*
X177016550Y-85596873D01*
X177513250Y-85446201D01*
X177971011Y-85201523D01*
X178372241Y-84872241D01*
X178684582Y-84491653D01*
X180187952Y-84491653D01*
X180343962Y-84807214D01*
X180718745Y-84998020D01*
X181123551Y-85112044D01*
X181542824Y-85144902D01*
X181960451Y-85095334D01*
X182360383Y-84965243D01*
X182656038Y-84807214D01*
X182812048Y-84491653D01*
X181500000Y-83179605D01*
X180187952Y-84491653D01*
X178684582Y-84491653D01*
X178701523Y-84471011D01*
X178946201Y-84013250D01*
X179096873Y-83516550D01*
X179135000Y-83129442D01*
X179135000Y-83042824D01*
X179355098Y-83042824D01*
X179404666Y-83460451D01*
X179534757Y-83860383D01*
X179692786Y-84156038D01*
X180008347Y-84312048D01*
X181320395Y-83000000D01*
X181679605Y-83000000D01*
X182991653Y-84312048D01*
X183307214Y-84156038D01*
X183498020Y-83781255D01*
X183612044Y-83376449D01*
X183644902Y-82957176D01*
X183595334Y-82539549D01*
X183465243Y-82139617D01*
X183307214Y-81843962D01*
X182991653Y-81687952D01*
X181679605Y-83000000D01*
X181320395Y-83000000D01*
X180008347Y-81687952D01*
X179692786Y-81843962D01*
X179501980Y-82218745D01*
X179387956Y-82623551D01*
X179355098Y-83042824D01*
X179135000Y-83042824D01*
X179135000Y-81508347D01*
X180187952Y-81508347D01*
X181500000Y-82820395D01*
X182812048Y-81508347D01*
X182656038Y-81192786D01*
X182281255Y-81001980D01*
X181876449Y-80887956D01*
X181457176Y-80855098D01*
X181039549Y-80904666D01*
X180639617Y-81034757D01*
X180343962Y-81192786D01*
X180187952Y-81508347D01*
X179135000Y-81508347D01*
X179135000Y-79491653D01*
X180187952Y-79491653D01*
X180343962Y-79807214D01*
X180718745Y-79998020D01*
X181123551Y-80112044D01*
X181542824Y-80144902D01*
X181960451Y-80095334D01*
X182360383Y-79965243D01*
X182656038Y-79807214D01*
X182812048Y-79491653D01*
X181500000Y-78179605D01*
X180187952Y-79491653D01*
X179135000Y-79491653D01*
X179135000Y-76635000D01*
X179955392Y-76635000D01*
X180008345Y-76687953D01*
X179692786Y-76843962D01*
X179501980Y-77218745D01*
X179387956Y-77623551D01*
X179355098Y-78042824D01*
X179404666Y-78460451D01*
X179534757Y-78860383D01*
X179692786Y-79156038D01*
X180008347Y-79312048D01*
X181320395Y-78000000D01*
X181306253Y-77985858D01*
X181485858Y-77806253D01*
X181500000Y-77820395D01*
X181514143Y-77806253D01*
X181693748Y-77985858D01*
X181679605Y-78000000D01*
X182991653Y-79312048D01*
X183307214Y-79156038D01*
X183498020Y-78781255D01*
X183612044Y-78376449D01*
X183644902Y-77957176D01*
X183595334Y-77539549D01*
X183465243Y-77139617D01*
X183307214Y-76843962D01*
X182991655Y-76687953D01*
X183044608Y-76635000D01*
X183865000Y-76635000D01*
X183865000Y-77870559D01*
X183865001Y-83129442D01*
X183903128Y-83516550D01*
X184053800Y-84013250D01*
X184298478Y-84471011D01*
X184627760Y-84872241D01*
X185028990Y-85201523D01*
X185486751Y-85446201D01*
X185983451Y-85596873D01*
X186500000Y-85647749D01*
X187016550Y-85596873D01*
X187513250Y-85446201D01*
X187971011Y-85201523D01*
X188372241Y-84872241D01*
X188701523Y-84471011D01*
X188946201Y-84013250D01*
X189096873Y-83516550D01*
X189135000Y-83129442D01*
X189135000Y-73370558D01*
X189125546Y-73274567D01*
X189152588Y-73000000D01*
X189082405Y-72287415D01*
X188874551Y-71602215D01*
X188537016Y-70970731D01*
X188082770Y-70417230D01*
X187529269Y-69962984D01*
X186897785Y-69625449D01*
X186212585Y-69417595D01*
X185678575Y-69365000D01*
X142321425Y-69365000D01*
X141787415Y-69417595D01*
X141102215Y-69625449D01*
X140470731Y-69962984D01*
X139917230Y-70417230D01*
X139462984Y-70970731D01*
X139125449Y-71602215D01*
X138917595Y-72287415D01*
X138847412Y-73000000D01*
X138865001Y-73178585D01*
X138865001Y-74613422D01*
X136856533Y-72604955D01*
X136828816Y-72571182D01*
X136694058Y-72460588D01*
X136540312Y-72378410D01*
X136373489Y-72327804D01*
X136243476Y-72314999D01*
X136243468Y-72314999D01*
X136199999Y-72310718D01*
X136156530Y-72314999D01*
X134808293Y-72314999D01*
X134835000Y-72180732D01*
X134835000Y-71819268D01*
X134764482Y-71464750D01*
X134626156Y-71130801D01*
X134425338Y-70830256D01*
X134169744Y-70574662D01*
X133869199Y-70373844D01*
X133535250Y-70235518D01*
X133180732Y-70165000D01*
X132819268Y-70165000D01*
X132464750Y-70235518D01*
X132130801Y-70373844D01*
X131830256Y-70574662D01*
X131574662Y-70830256D01*
X131373844Y-71130801D01*
X131235518Y-71464750D01*
X131165000Y-71819268D01*
X131165000Y-72180732D01*
X131235518Y-72535250D01*
X131373844Y-72869199D01*
X131574662Y-73169744D01*
X131830256Y-73425338D01*
X132130801Y-73626156D01*
X132464750Y-73764482D01*
X132819268Y-73835000D01*
X133180732Y-73835000D01*
X133516611Y-73768190D01*
X133543469Y-73795048D01*
X133571182Y-73828816D01*
X133604950Y-73856529D01*
X133604952Y-73856531D01*
X133705940Y-73939410D01*
X133859686Y-74021588D01*
X134026509Y-74072194D01*
X134156522Y-74084999D01*
X134156530Y-74084999D01*
X134199999Y-74089280D01*
X134243468Y-74084999D01*
X135833421Y-74084999D01*
X137363422Y-75615001D01*
X136847621Y-75615000D01*
X136814502Y-75505820D01*
X136755537Y-75395506D01*
X136676185Y-75298815D01*
X136579494Y-75219463D01*
X136469180Y-75160498D01*
X136349482Y-75124188D01*
X136225000Y-75111928D01*
X135075000Y-75111928D01*
X134951173Y-75124059D01*
X134925065Y-75131949D01*
X134899482Y-75124188D01*
X134775000Y-75111928D01*
X133775000Y-75111928D01*
X133650518Y-75124188D01*
X133530820Y-75160498D01*
X133420506Y-75219463D01*
X133323815Y-75298815D01*
X133244463Y-75395506D01*
X133185498Y-75505820D01*
X133152379Y-75615000D01*
X132443469Y-75615000D01*
X132400000Y-75610719D01*
X132356531Y-75615000D01*
X132356523Y-75615000D01*
X132226510Y-75627805D01*
X132059687Y-75678411D01*
X131927000Y-75749333D01*
X131905941Y-75760589D01*
X131804953Y-75843468D01*
X131804952Y-75843469D01*
X131771183Y-75871183D01*
X131743470Y-75904951D01*
X129909951Y-77738471D01*
X129876184Y-77766183D01*
X129848471Y-77799951D01*
X129848468Y-77799954D01*
X129765590Y-77900941D01*
X129683412Y-78054687D01*
X129632805Y-78221510D01*
X129615719Y-78395000D01*
X129620001Y-78438479D01*
X129620001Y-78544362D01*
X129580518Y-78548251D01*
X129460820Y-78584561D01*
X129350506Y-78643526D01*
X129253815Y-78722878D01*
X129174463Y-78819569D01*
X129115498Y-78929883D01*
X129079188Y-79049581D01*
X129066928Y-79174063D01*
X129066928Y-79206928D01*
X128105000Y-79206928D01*
X127980518Y-79219188D01*
X127860820Y-79255498D01*
X127750506Y-79314463D01*
X127653815Y-79393815D01*
X127574463Y-79490506D01*
X127515498Y-79600820D01*
X127479188Y-79720518D01*
X127466928Y-79845000D01*
X123660000Y-79845000D01*
X123660000Y-71819268D01*
X126085000Y-71819268D01*
X126085000Y-72180732D01*
X126155518Y-72535250D01*
X126293844Y-72869199D01*
X126494662Y-73169744D01*
X126750256Y-73425338D01*
X127050801Y-73626156D01*
X127384750Y-73764482D01*
X127739268Y-73835000D01*
X128100732Y-73835000D01*
X128455250Y-73764482D01*
X128789199Y-73626156D01*
X129089744Y-73425338D01*
X129345338Y-73169744D01*
X129546156Y-72869199D01*
X129684482Y-72535250D01*
X129755000Y-72180732D01*
X129755000Y-71819268D01*
X129684482Y-71464750D01*
X129546156Y-71130801D01*
X129345338Y-70830256D01*
X129089744Y-70574662D01*
X128789199Y-70373844D01*
X128455250Y-70235518D01*
X128100732Y-70165000D01*
X127739268Y-70165000D01*
X127384750Y-70235518D01*
X127050801Y-70373844D01*
X126750256Y-70574662D01*
X126494662Y-70830256D01*
X126293844Y-71130801D01*
X126155518Y-71464750D01*
X126085000Y-71819268D01*
X123660000Y-71819268D01*
X123660000Y-70532279D01*
X123707670Y-70046107D01*
X123839489Y-69609502D01*
X124053600Y-69206815D01*
X124341848Y-68853388D01*
X124693261Y-68562673D01*
X125094439Y-68345758D01*
X125530113Y-68210894D01*
X126014344Y-68160000D01*
X186967721Y-68160000D01*
X187453893Y-68207670D01*
G37*
%TD.AperFunction*%
D33*
X187453893Y-68207670D02*
X187890498Y-68339489D01*
X188293185Y-68553600D01*
X188646612Y-68841848D01*
X188937327Y-69193261D01*
X189154242Y-69594439D01*
X189289106Y-70030113D01*
X189340000Y-70514344D01*
X189340001Y-101829089D01*
X189296819Y-102027593D01*
X189203444Y-102277940D01*
X189075395Y-102512445D01*
X188915276Y-102726338D01*
X188726338Y-102915276D01*
X188512445Y-103075395D01*
X188277940Y-103203444D01*
X188027593Y-103296819D01*
X187766504Y-103353615D01*
X187495470Y-103373000D01*
X140504530Y-103373000D01*
X140233496Y-103353615D01*
X139972407Y-103296819D01*
X139722060Y-103203444D01*
X139487555Y-103075395D01*
X139273662Y-102915276D01*
X139084724Y-102726338D01*
X138924605Y-102512445D01*
X138796556Y-102277940D01*
X138703181Y-102027593D01*
X138646385Y-101766504D01*
X138627000Y-101495470D01*
X138627000Y-98139872D01*
X140801994Y-98139872D01*
X140877768Y-98263116D01*
X141031688Y-98459660D01*
X141220994Y-98622399D01*
X141438412Y-98745079D01*
X141627000Y-98729406D01*
X141627000Y-97953000D01*
X142373000Y-97953000D01*
X142373000Y-98729406D01*
X142561588Y-98745079D01*
X142779006Y-98622399D01*
X142968312Y-98459660D01*
X143122232Y-98263116D01*
X143198006Y-98139872D01*
X148801994Y-98139872D01*
X148877768Y-98263116D01*
X149031688Y-98459660D01*
X149220994Y-98622399D01*
X149438412Y-98745079D01*
X149627000Y-98729406D01*
X149627000Y-97953000D01*
X150373000Y-97953000D01*
X150373000Y-98729406D01*
X150561588Y-98745079D01*
X150779006Y-98622399D01*
X150968312Y-98459660D01*
X151122232Y-98263116D01*
X151198006Y-98139872D01*
X156801994Y-98139872D01*
X156877768Y-98263116D01*
X157031688Y-98459660D01*
X157220994Y-98622399D01*
X157438412Y-98745079D01*
X157627000Y-98729406D01*
X157627000Y-97953000D01*
X158373000Y-97953000D01*
X158373000Y-98729406D01*
X158561588Y-98745079D01*
X158779006Y-98622399D01*
X158968312Y-98459660D01*
X159122232Y-98263116D01*
X159198006Y-98139872D01*
X164801994Y-98139872D01*
X164877768Y-98263116D01*
X165031688Y-98459660D01*
X165220994Y-98622399D01*
X165438412Y-98745079D01*
X165627000Y-98729406D01*
X165627000Y-97953000D01*
X166373000Y-97953000D01*
X166373000Y-98729406D01*
X166561588Y-98745079D01*
X166779006Y-98622399D01*
X166968312Y-98459660D01*
X167122232Y-98263116D01*
X167198006Y-98139872D01*
X172801994Y-98139872D01*
X172877768Y-98263116D01*
X173031688Y-98459660D01*
X173220994Y-98622399D01*
X173438412Y-98745079D01*
X173627000Y-98729406D01*
X173627000Y-97953000D01*
X174373000Y-97953000D01*
X174373000Y-98729406D01*
X174561588Y-98745079D01*
X174779006Y-98622399D01*
X174968312Y-98459660D01*
X175122232Y-98263116D01*
X175198006Y-98139872D01*
X180801994Y-98139872D01*
X180877768Y-98263116D01*
X181031688Y-98459660D01*
X181220994Y-98622399D01*
X181438412Y-98745079D01*
X181627000Y-98729406D01*
X181627000Y-97953000D01*
X182373000Y-97953000D01*
X182373000Y-98729406D01*
X182561588Y-98745079D01*
X182779006Y-98622399D01*
X182968312Y-98459660D01*
X183122232Y-98263116D01*
X183198006Y-98139872D01*
X183185690Y-97953000D01*
X182373000Y-97953000D01*
X181627000Y-97953000D01*
X180814310Y-97953000D01*
X180801994Y-98139872D01*
X175198006Y-98139872D01*
X175185690Y-97953000D01*
X174373000Y-97953000D01*
X173627000Y-97953000D01*
X172814310Y-97953000D01*
X172801994Y-98139872D01*
X167198006Y-98139872D01*
X167185690Y-97953000D01*
X166373000Y-97953000D01*
X165627000Y-97953000D01*
X164814310Y-97953000D01*
X164801994Y-98139872D01*
X159198006Y-98139872D01*
X159185690Y-97953000D01*
X158373000Y-97953000D01*
X157627000Y-97953000D01*
X156814310Y-97953000D01*
X156801994Y-98139872D01*
X151198006Y-98139872D01*
X151185690Y-97953000D01*
X150373000Y-97953000D01*
X149627000Y-97953000D01*
X148814310Y-97953000D01*
X148801994Y-98139872D01*
X143198006Y-98139872D01*
X143185690Y-97953000D01*
X142373000Y-97953000D01*
X141627000Y-97953000D01*
X140814310Y-97953000D01*
X140801994Y-98139872D01*
X138627000Y-98139872D01*
X138627000Y-77385000D01*
X138865000Y-77385000D01*
X138865000Y-77870559D01*
X138865001Y-83129442D01*
X138903128Y-83516550D01*
X139053800Y-84013250D01*
X139298478Y-84471011D01*
X139627760Y-84872241D01*
X140028990Y-85201523D01*
X140486751Y-85446201D01*
X140983451Y-85596873D01*
X141500000Y-85647749D01*
X142016550Y-85596873D01*
X142513250Y-85446201D01*
X142971011Y-85201523D01*
X143372241Y-84872241D01*
X143701523Y-84471011D01*
X143946201Y-84013250D01*
X144096873Y-83516550D01*
X144135000Y-83129442D01*
X144135000Y-76635000D01*
X144845654Y-76635000D01*
X144841637Y-76639017D01*
X144783081Y-76726653D01*
X144716223Y-76808119D01*
X144666543Y-76901063D01*
X144607988Y-76988698D01*
X144567653Y-77086076D01*
X144517974Y-77179019D01*
X144487382Y-77279866D01*
X144447047Y-77377244D01*
X144426484Y-77480618D01*
X144395892Y-77581468D01*
X144385562Y-77686348D01*
X144365000Y-77789721D01*
X144365000Y-77895119D01*
X144365001Y-82789716D01*
X144365000Y-82789721D01*
X144365000Y-83210279D01*
X144385564Y-83313661D01*
X144395893Y-83418533D01*
X144426483Y-83519375D01*
X144447047Y-83622756D01*
X144487385Y-83720140D01*
X144517975Y-83820982D01*
X144567650Y-83913919D01*
X144607988Y-84011302D01*
X144666548Y-84098943D01*
X144716224Y-84191881D01*
X144783076Y-84273341D01*
X144841637Y-84360983D01*
X144865001Y-84384347D01*
X144865000Y-91822761D01*
X143638072Y-93049690D01*
X143638072Y-91547500D01*
X143625812Y-91423018D01*
X143589502Y-91303320D01*
X143530537Y-91193006D01*
X143451185Y-91096315D01*
X143354494Y-91016963D01*
X143244180Y-90957998D01*
X143124482Y-90921688D01*
X143000000Y-90909428D01*
X141000000Y-90909428D01*
X140875518Y-90921688D01*
X140755820Y-90957998D01*
X140645506Y-91016963D01*
X140548815Y-91096315D01*
X140469463Y-91193006D01*
X140410498Y-91303320D01*
X140374188Y-91423018D01*
X140361928Y-91547500D01*
X140361928Y-93452500D01*
X140374188Y-93576982D01*
X140410498Y-93696680D01*
X140469463Y-93806994D01*
X140548815Y-93903685D01*
X140645506Y-93983037D01*
X140719751Y-94022722D01*
X140633969Y-94127248D01*
X140482148Y-94411285D01*
X140388657Y-94719484D01*
X140357089Y-95040000D01*
X140388657Y-95360516D01*
X140482148Y-95668715D01*
X140633969Y-95952752D01*
X140838286Y-96201714D01*
X141087248Y-96406031D01*
X141275674Y-96506747D01*
X141220994Y-96537601D01*
X141031688Y-96700340D01*
X140877768Y-96896884D01*
X140801994Y-97020128D01*
X140814310Y-97207000D01*
X141627000Y-97207000D01*
X141627000Y-97187000D01*
X142373000Y-97187000D01*
X142373000Y-97207000D01*
X143185690Y-97207000D01*
X143198006Y-97020128D01*
X143122232Y-96896884D01*
X142968312Y-96700340D01*
X142938835Y-96675000D01*
X143879681Y-96675000D01*
X143960000Y-96682911D01*
X144040319Y-96675000D01*
X144040322Y-96675000D01*
X144280516Y-96651343D01*
X144588715Y-96557852D01*
X144872752Y-96406031D01*
X145121714Y-96201714D01*
X145172925Y-96139313D01*
X147599320Y-93712919D01*
X147661714Y-93661714D01*
X147866031Y-93412752D01*
X148017852Y-93128715D01*
X148111343Y-92820516D01*
X148135000Y-92580322D01*
X148135000Y-92580320D01*
X148142911Y-92500001D01*
X148135000Y-92419681D01*
X148135000Y-84384346D01*
X148158363Y-84360983D01*
X148216919Y-84273347D01*
X148283777Y-84191881D01*
X148333457Y-84098936D01*
X148392012Y-84011302D01*
X148432346Y-83913927D01*
X148482026Y-83820982D01*
X148512619Y-83720131D01*
X148552953Y-83622756D01*
X148573515Y-83519384D01*
X148604108Y-83418533D01*
X148614438Y-83313651D01*
X148635000Y-83210279D01*
X148635000Y-77789721D01*
X148614438Y-77686349D01*
X148604108Y-77581467D01*
X148573515Y-77480616D01*
X148552953Y-77377244D01*
X148512619Y-77279869D01*
X148482026Y-77179018D01*
X148432346Y-77086073D01*
X148392012Y-76988698D01*
X148333457Y-76901064D01*
X148283777Y-76808119D01*
X148216919Y-76726653D01*
X148158363Y-76639017D01*
X148154346Y-76635000D01*
X149845654Y-76635000D01*
X149841637Y-76639017D01*
X149783076Y-76726659D01*
X149716224Y-76808119D01*
X149666548Y-76901057D01*
X149607988Y-76988698D01*
X149567650Y-77086081D01*
X149517975Y-77179018D01*
X149487385Y-77279860D01*
X149447047Y-77377244D01*
X149426483Y-77480625D01*
X149395893Y-77581467D01*
X149385564Y-77686339D01*
X149365000Y-77789721D01*
X149365000Y-78210279D01*
X149365001Y-78210284D01*
X149365000Y-82789721D01*
X149365000Y-83210279D01*
X149385562Y-83313652D01*
X149395892Y-83418532D01*
X149426484Y-83519382D01*
X149447047Y-83622756D01*
X149487382Y-83720134D01*
X149517974Y-83820981D01*
X149567653Y-83913924D01*
X149607988Y-84011302D01*
X149666543Y-84098937D01*
X149716223Y-84191881D01*
X149783081Y-84273347D01*
X149841637Y-84360983D01*
X149865001Y-84384347D01*
X149865000Y-87419680D01*
X149857089Y-87500000D01*
X149865000Y-87580319D01*
X149865000Y-87580321D01*
X149888657Y-87820515D01*
X149982148Y-88128714D01*
X150133969Y-88412751D01*
X150338286Y-88661714D01*
X150400687Y-88712925D01*
X151865001Y-90177240D01*
X151865000Y-92822761D01*
X151638072Y-93049689D01*
X151638072Y-91547500D01*
X151625812Y-91423018D01*
X151589502Y-91303320D01*
X151530537Y-91193006D01*
X151451185Y-91096315D01*
X151354494Y-91016963D01*
X151244180Y-90957998D01*
X151124482Y-90921688D01*
X151000000Y-90909428D01*
X149000000Y-90909428D01*
X148875518Y-90921688D01*
X148755820Y-90957998D01*
X148645506Y-91016963D01*
X148548815Y-91096315D01*
X148469463Y-91193006D01*
X148410498Y-91303320D01*
X148374188Y-91423018D01*
X148361928Y-91547500D01*
X148361928Y-93452500D01*
X148374188Y-93576982D01*
X148410498Y-93696680D01*
X148469463Y-93806994D01*
X148548815Y-93903685D01*
X148645506Y-93983037D01*
X148719751Y-94022722D01*
X148633969Y-94127248D01*
X148482148Y-94411285D01*
X148388657Y-94719484D01*
X148357089Y-95040000D01*
X148388657Y-95360516D01*
X148482148Y-95668715D01*
X148633969Y-95952752D01*
X148838286Y-96201714D01*
X149087248Y-96406031D01*
X149275674Y-96506747D01*
X149220994Y-96537601D01*
X149031688Y-96700340D01*
X148877768Y-96896884D01*
X148801994Y-97020128D01*
X148814310Y-97207000D01*
X149627000Y-97207000D01*
X149627000Y-97187000D01*
X150373000Y-97187000D01*
X150373000Y-97207000D01*
X151185690Y-97207000D01*
X151198006Y-97020128D01*
X151122232Y-96896884D01*
X150968312Y-96700340D01*
X150938835Y-96675000D01*
X151879681Y-96675000D01*
X151960000Y-96682911D01*
X152040319Y-96675000D01*
X152040322Y-96675000D01*
X152280516Y-96651343D01*
X152588715Y-96557852D01*
X152872752Y-96406031D01*
X153121714Y-96201714D01*
X153172925Y-96139314D01*
X154599320Y-94712919D01*
X154661714Y-94661714D01*
X154866031Y-94412752D01*
X155017852Y-94128715D01*
X155111343Y-93820516D01*
X155135000Y-93580322D01*
X155135000Y-93580320D01*
X155142911Y-93500000D01*
X155135000Y-93419681D01*
X155135000Y-89580319D01*
X155142911Y-89499999D01*
X155135000Y-89419678D01*
X155111343Y-89179484D01*
X155017852Y-88871285D01*
X154866031Y-88587248D01*
X154661714Y-88338286D01*
X154599318Y-88287080D01*
X153135000Y-86822762D01*
X153135000Y-84384346D01*
X153158363Y-84360983D01*
X153216919Y-84273347D01*
X153283777Y-84191881D01*
X153333457Y-84098936D01*
X153392012Y-84011302D01*
X153432346Y-83913927D01*
X153482026Y-83820982D01*
X153512619Y-83720131D01*
X153552953Y-83622756D01*
X153573515Y-83519384D01*
X153604108Y-83418533D01*
X153614438Y-83313651D01*
X153635000Y-83210279D01*
X153635000Y-77789721D01*
X153614438Y-77686349D01*
X153604108Y-77581467D01*
X153573515Y-77480616D01*
X153552953Y-77377244D01*
X153512619Y-77279869D01*
X153482026Y-77179018D01*
X153432346Y-77086073D01*
X153392012Y-76988698D01*
X153333457Y-76901064D01*
X153283777Y-76808119D01*
X153216919Y-76726653D01*
X153158363Y-76639017D01*
X153154346Y-76635000D01*
X154845654Y-76635000D01*
X154841637Y-76639017D01*
X154783081Y-76726653D01*
X154716223Y-76808119D01*
X154666543Y-76901063D01*
X154607988Y-76988698D01*
X154567653Y-77086076D01*
X154517974Y-77179019D01*
X154487382Y-77279866D01*
X154447047Y-77377244D01*
X154426484Y-77480618D01*
X154395892Y-77581468D01*
X154385562Y-77686348D01*
X154365000Y-77789721D01*
X154365000Y-77895119D01*
X154365001Y-82789716D01*
X154365000Y-82789721D01*
X154365000Y-83210279D01*
X154385564Y-83313661D01*
X154395893Y-83418533D01*
X154426483Y-83519375D01*
X154447047Y-83622756D01*
X154487385Y-83720140D01*
X154517975Y-83820982D01*
X154567650Y-83913919D01*
X154607988Y-84011302D01*
X154666548Y-84098943D01*
X154716224Y-84191881D01*
X154783076Y-84273341D01*
X154841637Y-84360983D01*
X154865000Y-84384346D01*
X154865000Y-85419680D01*
X154857089Y-85500000D01*
X154865000Y-85580319D01*
X154865000Y-85580321D01*
X154888657Y-85820515D01*
X154982148Y-86128714D01*
X155133969Y-86412751D01*
X155338286Y-86661714D01*
X155400687Y-86712925D01*
X158865001Y-90177240D01*
X158865001Y-90909428D01*
X157000000Y-90909428D01*
X156875518Y-90921688D01*
X156755820Y-90957998D01*
X156645506Y-91016963D01*
X156548815Y-91096315D01*
X156469463Y-91193006D01*
X156410498Y-91303320D01*
X156374188Y-91423018D01*
X156361928Y-91547500D01*
X156361928Y-93452500D01*
X156374188Y-93576982D01*
X156410498Y-93696680D01*
X156469463Y-93806994D01*
X156548815Y-93903685D01*
X156645506Y-93983037D01*
X156719751Y-94022722D01*
X156633969Y-94127248D01*
X156482148Y-94411285D01*
X156388657Y-94719484D01*
X156357089Y-95040000D01*
X156388657Y-95360516D01*
X156482148Y-95668715D01*
X156633969Y-95952752D01*
X156838286Y-96201714D01*
X157087248Y-96406031D01*
X157275674Y-96506747D01*
X157220994Y-96537601D01*
X157031688Y-96700340D01*
X156877768Y-96896884D01*
X156801994Y-97020128D01*
X156814310Y-97207000D01*
X157627000Y-97207000D01*
X157627000Y-97187000D01*
X158373000Y-97187000D01*
X158373000Y-97207000D01*
X159185690Y-97207000D01*
X159198006Y-97020128D01*
X159122232Y-96896884D01*
X158968312Y-96700340D01*
X158938835Y-96675000D01*
X159492183Y-96675000D01*
X159572502Y-96682911D01*
X159652821Y-96675000D01*
X159652824Y-96675000D01*
X159893018Y-96651343D01*
X160201217Y-96557852D01*
X160485254Y-96406031D01*
X160734216Y-96201714D01*
X160785427Y-96139313D01*
X161599314Y-95325426D01*
X161661714Y-95274216D01*
X161866031Y-95025254D01*
X161947708Y-94872448D01*
X163214577Y-96139318D01*
X163265784Y-96201714D01*
X163514746Y-96406031D01*
X163798783Y-96557852D01*
X164106982Y-96651343D01*
X164347176Y-96675000D01*
X164347178Y-96675000D01*
X164427497Y-96682911D01*
X164507817Y-96675000D01*
X165061165Y-96675000D01*
X165031688Y-96700340D01*
X164877768Y-96896884D01*
X164801994Y-97020128D01*
X164814310Y-97207000D01*
X165627000Y-97207000D01*
X165627000Y-97187000D01*
X166373000Y-97187000D01*
X166373000Y-97207000D01*
X167185690Y-97207000D01*
X167198006Y-97020128D01*
X167122232Y-96896884D01*
X166968312Y-96700340D01*
X166779006Y-96537601D01*
X166724326Y-96506747D01*
X166912752Y-96406031D01*
X167161714Y-96201714D01*
X167366031Y-95952752D01*
X167517852Y-95668715D01*
X167611343Y-95360516D01*
X167642911Y-95040000D01*
X167611343Y-94719484D01*
X167517852Y-94411285D01*
X167366031Y-94127248D01*
X167280249Y-94022722D01*
X167354494Y-93983037D01*
X167451185Y-93903685D01*
X167530537Y-93806994D01*
X167589502Y-93696680D01*
X167625812Y-93576982D01*
X167638072Y-93452500D01*
X167638072Y-91547500D01*
X167625812Y-91423018D01*
X167589502Y-91303320D01*
X167530537Y-91193006D01*
X167451185Y-91096315D01*
X167354494Y-91016963D01*
X167244180Y-90957998D01*
X167124482Y-90921688D01*
X167000000Y-90909428D01*
X165000000Y-90909428D01*
X164875518Y-90921688D01*
X164755820Y-90957998D01*
X164645506Y-91016963D01*
X164635000Y-91025585D01*
X164635000Y-87080319D01*
X164642911Y-86999999D01*
X164634953Y-86919205D01*
X164611343Y-86679484D01*
X164517852Y-86371285D01*
X164366031Y-86087248D01*
X164161714Y-85838286D01*
X164099318Y-85787079D01*
X163135000Y-84822762D01*
X163135000Y-84384346D01*
X163158363Y-84360983D01*
X163216919Y-84273347D01*
X163283777Y-84191881D01*
X163333457Y-84098936D01*
X163392012Y-84011302D01*
X163432346Y-83913927D01*
X163482026Y-83820982D01*
X163512619Y-83720131D01*
X163552953Y-83622756D01*
X163573515Y-83519384D01*
X163604108Y-83418533D01*
X163614438Y-83313651D01*
X163635000Y-83210279D01*
X163635000Y-77789721D01*
X163614438Y-77686349D01*
X163604108Y-77581467D01*
X163573515Y-77480616D01*
X163552953Y-77377244D01*
X163512619Y-77279869D01*
X163482026Y-77179018D01*
X163432346Y-77086073D01*
X163392012Y-76988698D01*
X163333457Y-76901064D01*
X163283777Y-76808119D01*
X163216919Y-76726653D01*
X163158363Y-76639017D01*
X163154346Y-76635000D01*
X164845654Y-76635000D01*
X164841637Y-76639017D01*
X164783081Y-76726653D01*
X164716223Y-76808119D01*
X164666543Y-76901063D01*
X164607988Y-76988698D01*
X164567653Y-77086076D01*
X164517974Y-77179019D01*
X164487382Y-77279866D01*
X164447047Y-77377244D01*
X164426484Y-77480618D01*
X164395892Y-77581468D01*
X164385562Y-77686348D01*
X164365000Y-77789721D01*
X164365000Y-77895119D01*
X164365001Y-82789716D01*
X164365000Y-82789721D01*
X164365000Y-83210279D01*
X164385564Y-83313661D01*
X164395893Y-83418533D01*
X164426483Y-83519375D01*
X164447047Y-83622756D01*
X164487385Y-83720140D01*
X164517975Y-83820982D01*
X164567650Y-83913919D01*
X164607988Y-84011302D01*
X164666548Y-84098943D01*
X164716224Y-84191881D01*
X164783076Y-84273341D01*
X164841637Y-84360983D01*
X164865001Y-84384347D01*
X164865000Y-86919678D01*
X164857089Y-87000000D01*
X164865000Y-87080319D01*
X164865000Y-87080321D01*
X164888657Y-87320515D01*
X164982148Y-87628714D01*
X165133969Y-87912751D01*
X165338286Y-88161714D01*
X165400687Y-88212925D01*
X169365001Y-92177240D01*
X169365000Y-93532182D01*
X169357089Y-93612502D01*
X169365000Y-93692821D01*
X169365000Y-93692823D01*
X169388657Y-93933017D01*
X169482148Y-94241216D01*
X169633969Y-94525253D01*
X169838286Y-94774216D01*
X169900686Y-94825426D01*
X171214577Y-96139318D01*
X171265784Y-96201714D01*
X171514746Y-96406031D01*
X171798783Y-96557852D01*
X172106982Y-96651343D01*
X172347176Y-96675000D01*
X172347178Y-96675000D01*
X172427497Y-96682911D01*
X172507817Y-96675000D01*
X173061165Y-96675000D01*
X173031688Y-96700340D01*
X172877768Y-96896884D01*
X172801994Y-97020128D01*
X172814310Y-97207000D01*
X173627000Y-97207000D01*
X173627000Y-97187000D01*
X174373000Y-97187000D01*
X174373000Y-97207000D01*
X175185690Y-97207000D01*
X175198006Y-97020128D01*
X175122232Y-96896884D01*
X174968312Y-96700340D01*
X174779006Y-96537601D01*
X174724326Y-96506747D01*
X174912752Y-96406031D01*
X175161714Y-96201714D01*
X175366031Y-95952752D01*
X175517852Y-95668715D01*
X175611343Y-95360516D01*
X175642911Y-95040000D01*
X175611343Y-94719484D01*
X175517852Y-94411285D01*
X175366031Y-94127248D01*
X175280249Y-94022722D01*
X175354494Y-93983037D01*
X175451185Y-93903685D01*
X175530537Y-93806994D01*
X175589502Y-93696680D01*
X175625812Y-93576982D01*
X175638072Y-93452500D01*
X175638072Y-91547500D01*
X175625812Y-91423018D01*
X175589502Y-91303320D01*
X175530537Y-91193006D01*
X175451185Y-91096315D01*
X175354494Y-91016963D01*
X175244180Y-90957998D01*
X175124482Y-90921688D01*
X175000000Y-90909428D01*
X173000000Y-90909428D01*
X172875518Y-90921688D01*
X172755820Y-90957998D01*
X172645506Y-91016963D01*
X172578679Y-91071806D01*
X172517852Y-90871285D01*
X172366031Y-90587248D01*
X172161714Y-90338286D01*
X172099319Y-90287080D01*
X168135000Y-86322762D01*
X168135000Y-84384346D01*
X168158363Y-84360983D01*
X168216919Y-84273347D01*
X168283777Y-84191881D01*
X168333457Y-84098936D01*
X168392012Y-84011302D01*
X168432346Y-83913927D01*
X168482026Y-83820982D01*
X168512619Y-83720131D01*
X168552953Y-83622756D01*
X168573515Y-83519384D01*
X168604108Y-83418533D01*
X168614438Y-83313651D01*
X168635000Y-83210279D01*
X168635000Y-77789721D01*
X168614438Y-77686349D01*
X168604108Y-77581467D01*
X168573515Y-77480616D01*
X168552953Y-77377244D01*
X168512619Y-77279869D01*
X168482026Y-77179018D01*
X168432346Y-77086073D01*
X168392012Y-76988698D01*
X168333457Y-76901064D01*
X168283777Y-76808119D01*
X168216919Y-76726653D01*
X168158363Y-76639017D01*
X168154346Y-76635000D01*
X169845654Y-76635000D01*
X169841637Y-76639017D01*
X169783076Y-76726659D01*
X169716224Y-76808119D01*
X169666548Y-76901057D01*
X169607988Y-76988698D01*
X169567650Y-77086081D01*
X169517975Y-77179018D01*
X169487385Y-77279860D01*
X169447047Y-77377244D01*
X169426483Y-77480625D01*
X169395893Y-77581467D01*
X169385564Y-77686339D01*
X169365000Y-77789721D01*
X169365000Y-78210279D01*
X169365001Y-78210284D01*
X169365000Y-82789721D01*
X169365000Y-83210279D01*
X169385562Y-83313652D01*
X169395892Y-83418532D01*
X169426484Y-83519382D01*
X169447047Y-83622756D01*
X169487382Y-83720134D01*
X169517974Y-83820981D01*
X169567653Y-83913924D01*
X169607988Y-84011302D01*
X169666543Y-84098937D01*
X169716223Y-84191881D01*
X169783081Y-84273347D01*
X169841637Y-84360983D01*
X169865000Y-84384346D01*
X169865000Y-84419681D01*
X169857089Y-84500000D01*
X169865000Y-84580319D01*
X169865000Y-84580321D01*
X169888657Y-84820515D01*
X169982148Y-85128714D01*
X170133969Y-85412751D01*
X170338286Y-85661714D01*
X170400687Y-85712925D01*
X176865000Y-92177239D01*
X176865000Y-93032183D01*
X176857089Y-93112502D01*
X176865000Y-93192821D01*
X176865000Y-93192823D01*
X176888657Y-93433017D01*
X176982148Y-93741216D01*
X177133969Y-94025253D01*
X177338286Y-94274216D01*
X177400687Y-94325427D01*
X179214577Y-96139318D01*
X179265784Y-96201714D01*
X179514746Y-96406031D01*
X179760896Y-96537601D01*
X179798783Y-96557852D01*
X180106981Y-96651343D01*
X180427498Y-96682911D01*
X180507820Y-96675000D01*
X181061165Y-96675000D01*
X181031688Y-96700340D01*
X180877768Y-96896884D01*
X180801994Y-97020128D01*
X180814310Y-97207000D01*
X181627000Y-97207000D01*
X181627000Y-97187000D01*
X182373000Y-97187000D01*
X182373000Y-97207000D01*
X183185690Y-97207000D01*
X183198006Y-97020128D01*
X183122232Y-96896884D01*
X182968312Y-96700340D01*
X182779006Y-96537601D01*
X182724326Y-96506747D01*
X182912752Y-96406031D01*
X183161714Y-96201714D01*
X183366031Y-95952752D01*
X183517852Y-95668715D01*
X183611343Y-95360516D01*
X183642911Y-95040000D01*
X183611343Y-94719484D01*
X183517852Y-94411285D01*
X183366031Y-94127248D01*
X183280249Y-94022722D01*
X183354494Y-93983037D01*
X183451185Y-93903685D01*
X183530537Y-93806994D01*
X183589502Y-93696680D01*
X183625812Y-93576982D01*
X183638072Y-93452500D01*
X183638072Y-91547500D01*
X183625812Y-91423018D01*
X183589502Y-91303320D01*
X183530537Y-91193006D01*
X183451185Y-91096315D01*
X183354494Y-91016963D01*
X183244180Y-90957998D01*
X183124482Y-90921688D01*
X183000000Y-90909428D01*
X181000000Y-90909428D01*
X180875518Y-90921688D01*
X180755820Y-90957998D01*
X180645506Y-91016963D01*
X180548815Y-91096315D01*
X180469463Y-91193006D01*
X180410498Y-91303320D01*
X180374188Y-91423018D01*
X180361928Y-91547500D01*
X180361928Y-92662192D01*
X180135000Y-92435264D01*
X180135000Y-91580319D01*
X180142911Y-91500000D01*
X180135000Y-91419678D01*
X180111343Y-91179484D01*
X180017852Y-90871285D01*
X179866031Y-90587248D01*
X179661714Y-90338286D01*
X179599319Y-90287080D01*
X173364586Y-84052348D01*
X173392012Y-84011302D01*
X173432346Y-83913927D01*
X173482026Y-83820982D01*
X173512619Y-83720131D01*
X173552953Y-83622756D01*
X173573515Y-83519384D01*
X173604108Y-83418533D01*
X173614438Y-83313651D01*
X173635000Y-83210279D01*
X173635000Y-77789721D01*
X173614438Y-77686349D01*
X173604108Y-77581467D01*
X173573515Y-77480616D01*
X173552953Y-77377244D01*
X173512619Y-77279869D01*
X173482026Y-77179018D01*
X173432346Y-77086073D01*
X173392012Y-76988698D01*
X173333457Y-76901064D01*
X173283777Y-76808119D01*
X173216919Y-76726653D01*
X173158363Y-76639017D01*
X173154346Y-76635000D01*
X173865000Y-76635000D01*
X173865000Y-77870559D01*
X173865001Y-83129442D01*
X173903128Y-83516550D01*
X174053800Y-84013250D01*
X174298478Y-84471011D01*
X174627760Y-84872241D01*
X175028990Y-85201523D01*
X175486751Y-85446201D01*
X175983451Y-85596873D01*
X176500000Y-85647749D01*
X177016550Y-85596873D01*
X177513250Y-85446201D01*
X177971011Y-85201523D01*
X178372241Y-84872241D01*
X178697664Y-84475713D01*
X180551789Y-84475713D01*
X180745191Y-84673491D01*
X181086176Y-84788591D01*
X181443065Y-84834956D01*
X181802141Y-84810806D01*
X182149606Y-84717067D01*
X182254809Y-84673491D01*
X182448211Y-84475713D01*
X181500000Y-83527502D01*
X180551789Y-84475713D01*
X178697664Y-84475713D01*
X178701523Y-84471011D01*
X178946201Y-84013250D01*
X179096873Y-83516550D01*
X179135000Y-83129442D01*
X179135000Y-82943065D01*
X179665044Y-82943065D01*
X179689194Y-83302141D01*
X179782933Y-83649606D01*
X179826509Y-83754809D01*
X180024287Y-83948211D01*
X180972498Y-83000000D01*
X182027502Y-83000000D01*
X182975713Y-83948211D01*
X183173491Y-83754809D01*
X183288591Y-83413824D01*
X183334956Y-83056935D01*
X183310806Y-82697859D01*
X183217067Y-82350394D01*
X183173491Y-82245191D01*
X182975713Y-82051789D01*
X182027502Y-83000000D01*
X180972498Y-83000000D01*
X180024287Y-82051789D01*
X179826509Y-82245191D01*
X179711409Y-82586176D01*
X179665044Y-82943065D01*
X179135000Y-82943065D01*
X179135000Y-81524287D01*
X180551789Y-81524287D01*
X181500000Y-82472498D01*
X182448211Y-81524287D01*
X182254809Y-81326509D01*
X181913824Y-81211409D01*
X181556935Y-81165044D01*
X181197859Y-81189194D01*
X180850394Y-81282933D01*
X180745191Y-81326509D01*
X180551789Y-81524287D01*
X179135000Y-81524287D01*
X179135000Y-79475713D01*
X180551789Y-79475713D01*
X180745191Y-79673491D01*
X181086176Y-79788591D01*
X181443065Y-79834956D01*
X181802141Y-79810806D01*
X182149606Y-79717067D01*
X182254809Y-79673491D01*
X182448211Y-79475713D01*
X181500000Y-78527502D01*
X180551789Y-79475713D01*
X179135000Y-79475713D01*
X179135000Y-77943065D01*
X179665044Y-77943065D01*
X179689194Y-78302141D01*
X179782933Y-78649606D01*
X179826509Y-78754809D01*
X180024287Y-78948211D01*
X180972498Y-78000000D01*
X182027502Y-78000000D01*
X182975713Y-78948211D01*
X183173491Y-78754809D01*
X183288591Y-78413824D01*
X183334956Y-78056935D01*
X183310806Y-77697859D01*
X183217067Y-77350394D01*
X183173491Y-77245191D01*
X182975713Y-77051789D01*
X182027502Y-78000000D01*
X180972498Y-78000000D01*
X180024287Y-77051789D01*
X179826509Y-77245191D01*
X179711409Y-77586176D01*
X179665044Y-77943065D01*
X179135000Y-77943065D01*
X179135000Y-76635000D01*
X180662502Y-76635000D01*
X181500000Y-77472498D01*
X182337498Y-76635000D01*
X183865000Y-76635000D01*
X183865000Y-77870559D01*
X183865001Y-83129442D01*
X183903128Y-83516550D01*
X184053800Y-84013250D01*
X184298478Y-84471011D01*
X184627760Y-84872241D01*
X185028990Y-85201523D01*
X185486751Y-85446201D01*
X185983451Y-85596873D01*
X186500000Y-85647749D01*
X187016550Y-85596873D01*
X187513250Y-85446201D01*
X187971011Y-85201523D01*
X188372241Y-84872241D01*
X188701523Y-84471011D01*
X188946201Y-84013250D01*
X189096873Y-83516550D01*
X189135000Y-83129442D01*
X189135000Y-73370558D01*
X189125546Y-73274567D01*
X189152588Y-73000000D01*
X189082405Y-72287415D01*
X188874551Y-71602215D01*
X188537016Y-70970731D01*
X188082770Y-70417230D01*
X187529269Y-69962984D01*
X186897785Y-69625449D01*
X186212585Y-69417595D01*
X185678575Y-69365000D01*
X142321425Y-69365000D01*
X141787415Y-69417595D01*
X141102215Y-69625449D01*
X140470731Y-69962984D01*
X139917230Y-70417230D01*
X139462984Y-70970731D01*
X139125449Y-71602215D01*
X138917595Y-72287415D01*
X138847412Y-73000000D01*
X138865001Y-73178585D01*
X138865001Y-74613422D01*
X138627000Y-74375421D01*
X138627000Y-70004530D01*
X138646385Y-69733496D01*
X138703181Y-69472407D01*
X138796556Y-69222060D01*
X138924605Y-68987555D01*
X139084724Y-68773662D01*
X139273662Y-68584724D01*
X139487555Y-68424605D01*
X139722060Y-68296556D01*
X139972407Y-68203181D01*
X140170908Y-68160000D01*
X186967721Y-68160000D01*
X187453893Y-68207670D01*
%TA.AperFunction,Conductor*%
D34*
G36*
X187453893Y-68207670D02*
G01*
X187890498Y-68339489D01*
X188293185Y-68553600D01*
X188646612Y-68841848D01*
X188937327Y-69193261D01*
X189154242Y-69594439D01*
X189289106Y-70030113D01*
X189340000Y-70514344D01*
X189340001Y-101829089D01*
X189296819Y-102027593D01*
X189203444Y-102277940D01*
X189075395Y-102512445D01*
X188915276Y-102726338D01*
X188726338Y-102915276D01*
X188512445Y-103075395D01*
X188277940Y-103203444D01*
X188027593Y-103296819D01*
X187766504Y-103353615D01*
X187495470Y-103373000D01*
X140504530Y-103373000D01*
X140233496Y-103353615D01*
X139972407Y-103296819D01*
X139722060Y-103203444D01*
X139487555Y-103075395D01*
X139273662Y-102915276D01*
X139084724Y-102726338D01*
X138924605Y-102512445D01*
X138796556Y-102277940D01*
X138703181Y-102027593D01*
X138646385Y-101766504D01*
X138627000Y-101495470D01*
X138627000Y-98139872D01*
X140801994Y-98139872D01*
X140877768Y-98263116D01*
X141031688Y-98459660D01*
X141220994Y-98622399D01*
X141438412Y-98745079D01*
X141627000Y-98729406D01*
X141627000Y-97953000D01*
X142373000Y-97953000D01*
X142373000Y-98729406D01*
X142561588Y-98745079D01*
X142779006Y-98622399D01*
X142968312Y-98459660D01*
X143122232Y-98263116D01*
X143198006Y-98139872D01*
X148801994Y-98139872D01*
X148877768Y-98263116D01*
X149031688Y-98459660D01*
X149220994Y-98622399D01*
X149438412Y-98745079D01*
X149627000Y-98729406D01*
X149627000Y-97953000D01*
X150373000Y-97953000D01*
X150373000Y-98729406D01*
X150561588Y-98745079D01*
X150779006Y-98622399D01*
X150968312Y-98459660D01*
X151122232Y-98263116D01*
X151198006Y-98139872D01*
X156801994Y-98139872D01*
X156877768Y-98263116D01*
X157031688Y-98459660D01*
X157220994Y-98622399D01*
X157438412Y-98745079D01*
X157627000Y-98729406D01*
X157627000Y-97953000D01*
X158373000Y-97953000D01*
X158373000Y-98729406D01*
X158561588Y-98745079D01*
X158779006Y-98622399D01*
X158968312Y-98459660D01*
X159122232Y-98263116D01*
X159198006Y-98139872D01*
X164801994Y-98139872D01*
X164877768Y-98263116D01*
X165031688Y-98459660D01*
X165220994Y-98622399D01*
X165438412Y-98745079D01*
X165627000Y-98729406D01*
X165627000Y-97953000D01*
X166373000Y-97953000D01*
X166373000Y-98729406D01*
X166561588Y-98745079D01*
X166779006Y-98622399D01*
X166968312Y-98459660D01*
X167122232Y-98263116D01*
X167198006Y-98139872D01*
X172801994Y-98139872D01*
X172877768Y-98263116D01*
X173031688Y-98459660D01*
X173220994Y-98622399D01*
X173438412Y-98745079D01*
X173627000Y-98729406D01*
X173627000Y-97953000D01*
X174373000Y-97953000D01*
X174373000Y-98729406D01*
X174561588Y-98745079D01*
X174779006Y-98622399D01*
X174968312Y-98459660D01*
X175122232Y-98263116D01*
X175198006Y-98139872D01*
X180801994Y-98139872D01*
X180877768Y-98263116D01*
X181031688Y-98459660D01*
X181220994Y-98622399D01*
X181438412Y-98745079D01*
X181627000Y-98729406D01*
X181627000Y-97953000D01*
X182373000Y-97953000D01*
X182373000Y-98729406D01*
X182561588Y-98745079D01*
X182779006Y-98622399D01*
X182968312Y-98459660D01*
X183122232Y-98263116D01*
X183198006Y-98139872D01*
X183185690Y-97953000D01*
X182373000Y-97953000D01*
X181627000Y-97953000D01*
X180814310Y-97953000D01*
X180801994Y-98139872D01*
X175198006Y-98139872D01*
X175185690Y-97953000D01*
X174373000Y-97953000D01*
X173627000Y-97953000D01*
X172814310Y-97953000D01*
X172801994Y-98139872D01*
X167198006Y-98139872D01*
X167185690Y-97953000D01*
X166373000Y-97953000D01*
X165627000Y-97953000D01*
X164814310Y-97953000D01*
X164801994Y-98139872D01*
X159198006Y-98139872D01*
X159185690Y-97953000D01*
X158373000Y-97953000D01*
X157627000Y-97953000D01*
X156814310Y-97953000D01*
X156801994Y-98139872D01*
X151198006Y-98139872D01*
X151185690Y-97953000D01*
X150373000Y-97953000D01*
X149627000Y-97953000D01*
X148814310Y-97953000D01*
X148801994Y-98139872D01*
X143198006Y-98139872D01*
X143185690Y-97953000D01*
X142373000Y-97953000D01*
X141627000Y-97953000D01*
X140814310Y-97953000D01*
X140801994Y-98139872D01*
X138627000Y-98139872D01*
X138627000Y-77385000D01*
X138865000Y-77385000D01*
X138865000Y-77870559D01*
X138865001Y-83129442D01*
X138903128Y-83516550D01*
X139053800Y-84013250D01*
X139298478Y-84471011D01*
X139627760Y-84872241D01*
X140028990Y-85201523D01*
X140486751Y-85446201D01*
X140983451Y-85596873D01*
X141500000Y-85647749D01*
X142016550Y-85596873D01*
X142513250Y-85446201D01*
X142971011Y-85201523D01*
X143372241Y-84872241D01*
X143701523Y-84471011D01*
X143946201Y-84013250D01*
X144096873Y-83516550D01*
X144135000Y-83129442D01*
X144135000Y-76635000D01*
X144845654Y-76635000D01*
X144841637Y-76639017D01*
X144783081Y-76726653D01*
X144716223Y-76808119D01*
X144666543Y-76901063D01*
X144607988Y-76988698D01*
X144567653Y-77086076D01*
X144517974Y-77179019D01*
X144487382Y-77279866D01*
X144447047Y-77377244D01*
X144426484Y-77480618D01*
X144395892Y-77581468D01*
X144385562Y-77686348D01*
X144365000Y-77789721D01*
X144365000Y-77895119D01*
X144365001Y-82789716D01*
X144365000Y-82789721D01*
X144365000Y-83210279D01*
X144385564Y-83313661D01*
X144395893Y-83418533D01*
X144426483Y-83519375D01*
X144447047Y-83622756D01*
X144487385Y-83720140D01*
X144517975Y-83820982D01*
X144567650Y-83913919D01*
X144607988Y-84011302D01*
X144666548Y-84098943D01*
X144716224Y-84191881D01*
X144783076Y-84273341D01*
X144841637Y-84360983D01*
X144865001Y-84384347D01*
X144865000Y-91822761D01*
X143638072Y-93049690D01*
X143638072Y-91547500D01*
X143625812Y-91423018D01*
X143589502Y-91303320D01*
X143530537Y-91193006D01*
X143451185Y-91096315D01*
X143354494Y-91016963D01*
X143244180Y-90957998D01*
X143124482Y-90921688D01*
X143000000Y-90909428D01*
X141000000Y-90909428D01*
X140875518Y-90921688D01*
X140755820Y-90957998D01*
X140645506Y-91016963D01*
X140548815Y-91096315D01*
X140469463Y-91193006D01*
X140410498Y-91303320D01*
X140374188Y-91423018D01*
X140361928Y-91547500D01*
X140361928Y-93452500D01*
X140374188Y-93576982D01*
X140410498Y-93696680D01*
X140469463Y-93806994D01*
X140548815Y-93903685D01*
X140645506Y-93983037D01*
X140719751Y-94022722D01*
X140633969Y-94127248D01*
X140482148Y-94411285D01*
X140388657Y-94719484D01*
X140357089Y-95040000D01*
X140388657Y-95360516D01*
X140482148Y-95668715D01*
X140633969Y-95952752D01*
X140838286Y-96201714D01*
X141087248Y-96406031D01*
X141275674Y-96506747D01*
X141220994Y-96537601D01*
X141031688Y-96700340D01*
X140877768Y-96896884D01*
X140801994Y-97020128D01*
X140814310Y-97207000D01*
X141627000Y-97207000D01*
X141627000Y-97187000D01*
X142373000Y-97187000D01*
X142373000Y-97207000D01*
X143185690Y-97207000D01*
X143198006Y-97020128D01*
X143122232Y-96896884D01*
X142968312Y-96700340D01*
X142938835Y-96675000D01*
X143879681Y-96675000D01*
X143960000Y-96682911D01*
X144040319Y-96675000D01*
X144040322Y-96675000D01*
X144280516Y-96651343D01*
X144588715Y-96557852D01*
X144872752Y-96406031D01*
X145121714Y-96201714D01*
X145172925Y-96139313D01*
X147599320Y-93712919D01*
X147661714Y-93661714D01*
X147866031Y-93412752D01*
X148017852Y-93128715D01*
X148111343Y-92820516D01*
X148135000Y-92580322D01*
X148135000Y-92580320D01*
X148142911Y-92500001D01*
X148135000Y-92419681D01*
X148135000Y-84384346D01*
X148158363Y-84360983D01*
X148216919Y-84273347D01*
X148283777Y-84191881D01*
X148333457Y-84098936D01*
X148392012Y-84011302D01*
X148432346Y-83913927D01*
X148482026Y-83820982D01*
X148512619Y-83720131D01*
X148552953Y-83622756D01*
X148573515Y-83519384D01*
X148604108Y-83418533D01*
X148614438Y-83313651D01*
X148635000Y-83210279D01*
X148635000Y-77789721D01*
X148614438Y-77686349D01*
X148604108Y-77581467D01*
X148573515Y-77480616D01*
X148552953Y-77377244D01*
X148512619Y-77279869D01*
X148482026Y-77179018D01*
X148432346Y-77086073D01*
X148392012Y-76988698D01*
X148333457Y-76901064D01*
X148283777Y-76808119D01*
X148216919Y-76726653D01*
X148158363Y-76639017D01*
X148154346Y-76635000D01*
X149845654Y-76635000D01*
X149841637Y-76639017D01*
X149783076Y-76726659D01*
X149716224Y-76808119D01*
X149666548Y-76901057D01*
X149607988Y-76988698D01*
X149567650Y-77086081D01*
X149517975Y-77179018D01*
X149487385Y-77279860D01*
X149447047Y-77377244D01*
X149426483Y-77480625D01*
X149395893Y-77581467D01*
X149385564Y-77686339D01*
X149365000Y-77789721D01*
X149365000Y-78210279D01*
X149365001Y-78210284D01*
X149365000Y-82789721D01*
X149365000Y-83210279D01*
X149385562Y-83313652D01*
X149395892Y-83418532D01*
X149426484Y-83519382D01*
X149447047Y-83622756D01*
X149487382Y-83720134D01*
X149517974Y-83820981D01*
X149567653Y-83913924D01*
X149607988Y-84011302D01*
X149666543Y-84098937D01*
X149716223Y-84191881D01*
X149783081Y-84273347D01*
X149841637Y-84360983D01*
X149865001Y-84384347D01*
X149865000Y-87419680D01*
X149857089Y-87500000D01*
X149865000Y-87580319D01*
X149865000Y-87580321D01*
X149888657Y-87820515D01*
X149982148Y-88128714D01*
X150133969Y-88412751D01*
X150338286Y-88661714D01*
X150400687Y-88712925D01*
X151865001Y-90177240D01*
X151865000Y-92822761D01*
X151638072Y-93049689D01*
X151638072Y-91547500D01*
X151625812Y-91423018D01*
X151589502Y-91303320D01*
X151530537Y-91193006D01*
X151451185Y-91096315D01*
X151354494Y-91016963D01*
X151244180Y-90957998D01*
X151124482Y-90921688D01*
X151000000Y-90909428D01*
X149000000Y-90909428D01*
X148875518Y-90921688D01*
X148755820Y-90957998D01*
X148645506Y-91016963D01*
X148548815Y-91096315D01*
X148469463Y-91193006D01*
X148410498Y-91303320D01*
X148374188Y-91423018D01*
X148361928Y-91547500D01*
X148361928Y-93452500D01*
X148374188Y-93576982D01*
X148410498Y-93696680D01*
X148469463Y-93806994D01*
X148548815Y-93903685D01*
X148645506Y-93983037D01*
X148719751Y-94022722D01*
X148633969Y-94127248D01*
X148482148Y-94411285D01*
X148388657Y-94719484D01*
X148357089Y-95040000D01*
X148388657Y-95360516D01*
X148482148Y-95668715D01*
X148633969Y-95952752D01*
X148838286Y-96201714D01*
X149087248Y-96406031D01*
X149275674Y-96506747D01*
X149220994Y-96537601D01*
X149031688Y-96700340D01*
X148877768Y-96896884D01*
X148801994Y-97020128D01*
X148814310Y-97207000D01*
X149627000Y-97207000D01*
X149627000Y-97187000D01*
X150373000Y-97187000D01*
X150373000Y-97207000D01*
X151185690Y-97207000D01*
X151198006Y-97020128D01*
X151122232Y-96896884D01*
X150968312Y-96700340D01*
X150938835Y-96675000D01*
X151879681Y-96675000D01*
X151960000Y-96682911D01*
X152040319Y-96675000D01*
X152040322Y-96675000D01*
X152280516Y-96651343D01*
X152588715Y-96557852D01*
X152872752Y-96406031D01*
X153121714Y-96201714D01*
X153172925Y-96139314D01*
X154599320Y-94712919D01*
X154661714Y-94661714D01*
X154866031Y-94412752D01*
X155017852Y-94128715D01*
X155111343Y-93820516D01*
X155135000Y-93580322D01*
X155135000Y-93580320D01*
X155142911Y-93500000D01*
X155135000Y-93419681D01*
X155135000Y-89580319D01*
X155142911Y-89499999D01*
X155135000Y-89419678D01*
X155111343Y-89179484D01*
X155017852Y-88871285D01*
X154866031Y-88587248D01*
X154661714Y-88338286D01*
X154599318Y-88287080D01*
X153135000Y-86822762D01*
X153135000Y-84384346D01*
X153158363Y-84360983D01*
X153216919Y-84273347D01*
X153283777Y-84191881D01*
X153333457Y-84098936D01*
X153392012Y-84011302D01*
X153432346Y-83913927D01*
X153482026Y-83820982D01*
X153512619Y-83720131D01*
X153552953Y-83622756D01*
X153573515Y-83519384D01*
X153604108Y-83418533D01*
X153614438Y-83313651D01*
X153635000Y-83210279D01*
X153635000Y-77789721D01*
X153614438Y-77686349D01*
X153604108Y-77581467D01*
X153573515Y-77480616D01*
X153552953Y-77377244D01*
X153512619Y-77279869D01*
X153482026Y-77179018D01*
X153432346Y-77086073D01*
X153392012Y-76988698D01*
X153333457Y-76901064D01*
X153283777Y-76808119D01*
X153216919Y-76726653D01*
X153158363Y-76639017D01*
X153154346Y-76635000D01*
X154845654Y-76635000D01*
X154841637Y-76639017D01*
X154783081Y-76726653D01*
X154716223Y-76808119D01*
X154666543Y-76901063D01*
X154607988Y-76988698D01*
X154567653Y-77086076D01*
X154517974Y-77179019D01*
X154487382Y-77279866D01*
X154447047Y-77377244D01*
X154426484Y-77480618D01*
X154395892Y-77581468D01*
X154385562Y-77686348D01*
X154365000Y-77789721D01*
X154365000Y-77895119D01*
X154365001Y-82789716D01*
X154365000Y-82789721D01*
X154365000Y-83210279D01*
X154385564Y-83313661D01*
X154395893Y-83418533D01*
X154426483Y-83519375D01*
X154447047Y-83622756D01*
X154487385Y-83720140D01*
X154517975Y-83820982D01*
X154567650Y-83913919D01*
X154607988Y-84011302D01*
X154666548Y-84098943D01*
X154716224Y-84191881D01*
X154783076Y-84273341D01*
X154841637Y-84360983D01*
X154865000Y-84384346D01*
X154865000Y-85419680D01*
X154857089Y-85500000D01*
X154865000Y-85580319D01*
X154865000Y-85580321D01*
X154888657Y-85820515D01*
X154982148Y-86128714D01*
X155133969Y-86412751D01*
X155338286Y-86661714D01*
X155400687Y-86712925D01*
X158865001Y-90177240D01*
X158865001Y-90909428D01*
X157000000Y-90909428D01*
X156875518Y-90921688D01*
X156755820Y-90957998D01*
X156645506Y-91016963D01*
X156548815Y-91096315D01*
X156469463Y-91193006D01*
X156410498Y-91303320D01*
X156374188Y-91423018D01*
X156361928Y-91547500D01*
X156361928Y-93452500D01*
X156374188Y-93576982D01*
X156410498Y-93696680D01*
X156469463Y-93806994D01*
X156548815Y-93903685D01*
X156645506Y-93983037D01*
X156719751Y-94022722D01*
X156633969Y-94127248D01*
X156482148Y-94411285D01*
X156388657Y-94719484D01*
X156357089Y-95040000D01*
X156388657Y-95360516D01*
X156482148Y-95668715D01*
X156633969Y-95952752D01*
X156838286Y-96201714D01*
X157087248Y-96406031D01*
X157275674Y-96506747D01*
X157220994Y-96537601D01*
X157031688Y-96700340D01*
X156877768Y-96896884D01*
X156801994Y-97020128D01*
X156814310Y-97207000D01*
X157627000Y-97207000D01*
X157627000Y-97187000D01*
X158373000Y-97187000D01*
X158373000Y-97207000D01*
X159185690Y-97207000D01*
X159198006Y-97020128D01*
X159122232Y-96896884D01*
X158968312Y-96700340D01*
X158938835Y-96675000D01*
X159492183Y-96675000D01*
X159572502Y-96682911D01*
X159652821Y-96675000D01*
X159652824Y-96675000D01*
X159893018Y-96651343D01*
X160201217Y-96557852D01*
X160485254Y-96406031D01*
X160734216Y-96201714D01*
X160785427Y-96139313D01*
X161599314Y-95325426D01*
X161661714Y-95274216D01*
X161866031Y-95025254D01*
X161947708Y-94872448D01*
X163214577Y-96139318D01*
X163265784Y-96201714D01*
X163514746Y-96406031D01*
X163798783Y-96557852D01*
X164106982Y-96651343D01*
X164347176Y-96675000D01*
X164347178Y-96675000D01*
X164427497Y-96682911D01*
X164507817Y-96675000D01*
X165061165Y-96675000D01*
X165031688Y-96700340D01*
X164877768Y-96896884D01*
X164801994Y-97020128D01*
X164814310Y-97207000D01*
X165627000Y-97207000D01*
X165627000Y-97187000D01*
X166373000Y-97187000D01*
X166373000Y-97207000D01*
X167185690Y-97207000D01*
X167198006Y-97020128D01*
X167122232Y-96896884D01*
X166968312Y-96700340D01*
X166779006Y-96537601D01*
X166724326Y-96506747D01*
X166912752Y-96406031D01*
X167161714Y-96201714D01*
X167366031Y-95952752D01*
X167517852Y-95668715D01*
X167611343Y-95360516D01*
X167642911Y-95040000D01*
X167611343Y-94719484D01*
X167517852Y-94411285D01*
X167366031Y-94127248D01*
X167280249Y-94022722D01*
X167354494Y-93983037D01*
X167451185Y-93903685D01*
X167530537Y-93806994D01*
X167589502Y-93696680D01*
X167625812Y-93576982D01*
X167638072Y-93452500D01*
X167638072Y-91547500D01*
X167625812Y-91423018D01*
X167589502Y-91303320D01*
X167530537Y-91193006D01*
X167451185Y-91096315D01*
X167354494Y-91016963D01*
X167244180Y-90957998D01*
X167124482Y-90921688D01*
X167000000Y-90909428D01*
X165000000Y-90909428D01*
X164875518Y-90921688D01*
X164755820Y-90957998D01*
X164645506Y-91016963D01*
X164635000Y-91025585D01*
X164635000Y-87080319D01*
X164642911Y-86999999D01*
X164634953Y-86919205D01*
X164611343Y-86679484D01*
X164517852Y-86371285D01*
X164366031Y-86087248D01*
X164161714Y-85838286D01*
X164099318Y-85787079D01*
X163135000Y-84822762D01*
X163135000Y-84384346D01*
X163158363Y-84360983D01*
X163216919Y-84273347D01*
X163283777Y-84191881D01*
X163333457Y-84098936D01*
X163392012Y-84011302D01*
X163432346Y-83913927D01*
X163482026Y-83820982D01*
X163512619Y-83720131D01*
X163552953Y-83622756D01*
X163573515Y-83519384D01*
X163604108Y-83418533D01*
X163614438Y-83313651D01*
X163635000Y-83210279D01*
X163635000Y-77789721D01*
X163614438Y-77686349D01*
X163604108Y-77581467D01*
X163573515Y-77480616D01*
X163552953Y-77377244D01*
X163512619Y-77279869D01*
X163482026Y-77179018D01*
X163432346Y-77086073D01*
X163392012Y-76988698D01*
X163333457Y-76901064D01*
X163283777Y-76808119D01*
X163216919Y-76726653D01*
X163158363Y-76639017D01*
X163154346Y-76635000D01*
X164845654Y-76635000D01*
X164841637Y-76639017D01*
X164783081Y-76726653D01*
X164716223Y-76808119D01*
X164666543Y-76901063D01*
X164607988Y-76988698D01*
X164567653Y-77086076D01*
X164517974Y-77179019D01*
X164487382Y-77279866D01*
X164447047Y-77377244D01*
X164426484Y-77480618D01*
X164395892Y-77581468D01*
X164385562Y-77686348D01*
X164365000Y-77789721D01*
X164365000Y-77895119D01*
X164365001Y-82789716D01*
X164365000Y-82789721D01*
X164365000Y-83210279D01*
X164385564Y-83313661D01*
X164395893Y-83418533D01*
X164426483Y-83519375D01*
X164447047Y-83622756D01*
X164487385Y-83720140D01*
X164517975Y-83820982D01*
X164567650Y-83913919D01*
X164607988Y-84011302D01*
X164666548Y-84098943D01*
X164716224Y-84191881D01*
X164783076Y-84273341D01*
X164841637Y-84360983D01*
X164865001Y-84384347D01*
X164865000Y-86919678D01*
X164857089Y-87000000D01*
X164865000Y-87080319D01*
X164865000Y-87080321D01*
X164888657Y-87320515D01*
X164982148Y-87628714D01*
X165133969Y-87912751D01*
X165338286Y-88161714D01*
X165400687Y-88212925D01*
X169365001Y-92177240D01*
X169365000Y-93532182D01*
X169357089Y-93612502D01*
X169365000Y-93692821D01*
X169365000Y-93692823D01*
X169388657Y-93933017D01*
X169482148Y-94241216D01*
X169633969Y-94525253D01*
X169838286Y-94774216D01*
X169900686Y-94825426D01*
X171214577Y-96139318D01*
X171265784Y-96201714D01*
X171514746Y-96406031D01*
X171798783Y-96557852D01*
X172106982Y-96651343D01*
X172347176Y-96675000D01*
X172347178Y-96675000D01*
X172427497Y-96682911D01*
X172507817Y-96675000D01*
X173061165Y-96675000D01*
X173031688Y-96700340D01*
X172877768Y-96896884D01*
X172801994Y-97020128D01*
X172814310Y-97207000D01*
X173627000Y-97207000D01*
X173627000Y-97187000D01*
X174373000Y-97187000D01*
X174373000Y-97207000D01*
X175185690Y-97207000D01*
X175198006Y-97020128D01*
X175122232Y-96896884D01*
X174968312Y-96700340D01*
X174779006Y-96537601D01*
X174724326Y-96506747D01*
X174912752Y-96406031D01*
X175161714Y-96201714D01*
X175366031Y-95952752D01*
X175517852Y-95668715D01*
X175611343Y-95360516D01*
X175642911Y-95040000D01*
X175611343Y-94719484D01*
X175517852Y-94411285D01*
X175366031Y-94127248D01*
X175280249Y-94022722D01*
X175354494Y-93983037D01*
X175451185Y-93903685D01*
X175530537Y-93806994D01*
X175589502Y-93696680D01*
X175625812Y-93576982D01*
X175638072Y-93452500D01*
X175638072Y-91547500D01*
X175625812Y-91423018D01*
X175589502Y-91303320D01*
X175530537Y-91193006D01*
X175451185Y-91096315D01*
X175354494Y-91016963D01*
X175244180Y-90957998D01*
X175124482Y-90921688D01*
X175000000Y-90909428D01*
X173000000Y-90909428D01*
X172875518Y-90921688D01*
X172755820Y-90957998D01*
X172645506Y-91016963D01*
X172578679Y-91071806D01*
X172517852Y-90871285D01*
X172366031Y-90587248D01*
X172161714Y-90338286D01*
X172099319Y-90287080D01*
X168135000Y-86322762D01*
X168135000Y-84384346D01*
X168158363Y-84360983D01*
X168216919Y-84273347D01*
X168283777Y-84191881D01*
X168333457Y-84098936D01*
X168392012Y-84011302D01*
X168432346Y-83913927D01*
X168482026Y-83820982D01*
X168512619Y-83720131D01*
X168552953Y-83622756D01*
X168573515Y-83519384D01*
X168604108Y-83418533D01*
X168614438Y-83313651D01*
X168635000Y-83210279D01*
X168635000Y-77789721D01*
X168614438Y-77686349D01*
X168604108Y-77581467D01*
X168573515Y-77480616D01*
X168552953Y-77377244D01*
X168512619Y-77279869D01*
X168482026Y-77179018D01*
X168432346Y-77086073D01*
X168392012Y-76988698D01*
X168333457Y-76901064D01*
X168283777Y-76808119D01*
X168216919Y-76726653D01*
X168158363Y-76639017D01*
X168154346Y-76635000D01*
X169845654Y-76635000D01*
X169841637Y-76639017D01*
X169783076Y-76726659D01*
X169716224Y-76808119D01*
X169666548Y-76901057D01*
X169607988Y-76988698D01*
X169567650Y-77086081D01*
X169517975Y-77179018D01*
X169487385Y-77279860D01*
X169447047Y-77377244D01*
X169426483Y-77480625D01*
X169395893Y-77581467D01*
X169385564Y-77686339D01*
X169365000Y-77789721D01*
X169365000Y-78210279D01*
X169365001Y-78210284D01*
X169365000Y-82789721D01*
X169365000Y-83210279D01*
X169385562Y-83313652D01*
X169395892Y-83418532D01*
X169426484Y-83519382D01*
X169447047Y-83622756D01*
X169487382Y-83720134D01*
X169517974Y-83820981D01*
X169567653Y-83913924D01*
X169607988Y-84011302D01*
X169666543Y-84098937D01*
X169716223Y-84191881D01*
X169783081Y-84273347D01*
X169841637Y-84360983D01*
X169865000Y-84384346D01*
X169865000Y-84419681D01*
X169857089Y-84500000D01*
X169865000Y-84580319D01*
X169865000Y-84580321D01*
X169888657Y-84820515D01*
X169982148Y-85128714D01*
X170133969Y-85412751D01*
X170338286Y-85661714D01*
X170400687Y-85712925D01*
X176865000Y-92177239D01*
X176865000Y-93032183D01*
X176857089Y-93112502D01*
X176865000Y-93192821D01*
X176865000Y-93192823D01*
X176888657Y-93433017D01*
X176982148Y-93741216D01*
X177133969Y-94025253D01*
X177338286Y-94274216D01*
X177400687Y-94325427D01*
X179214577Y-96139318D01*
X179265784Y-96201714D01*
X179514746Y-96406031D01*
X179760896Y-96537601D01*
X179798783Y-96557852D01*
X180106981Y-96651343D01*
X180427498Y-96682911D01*
X180507820Y-96675000D01*
X181061165Y-96675000D01*
X181031688Y-96700340D01*
X180877768Y-96896884D01*
X180801994Y-97020128D01*
X180814310Y-97207000D01*
X181627000Y-97207000D01*
X181627000Y-97187000D01*
X182373000Y-97187000D01*
X182373000Y-97207000D01*
X183185690Y-97207000D01*
X183198006Y-97020128D01*
X183122232Y-96896884D01*
X182968312Y-96700340D01*
X182779006Y-96537601D01*
X182724326Y-96506747D01*
X182912752Y-96406031D01*
X183161714Y-96201714D01*
X183366031Y-95952752D01*
X183517852Y-95668715D01*
X183611343Y-95360516D01*
X183642911Y-95040000D01*
X183611343Y-94719484D01*
X183517852Y-94411285D01*
X183366031Y-94127248D01*
X183280249Y-94022722D01*
X183354494Y-93983037D01*
X183451185Y-93903685D01*
X183530537Y-93806994D01*
X183589502Y-93696680D01*
X183625812Y-93576982D01*
X183638072Y-93452500D01*
X183638072Y-91547500D01*
X183625812Y-91423018D01*
X183589502Y-91303320D01*
X183530537Y-91193006D01*
X183451185Y-91096315D01*
X183354494Y-91016963D01*
X183244180Y-90957998D01*
X183124482Y-90921688D01*
X183000000Y-90909428D01*
X181000000Y-90909428D01*
X180875518Y-90921688D01*
X180755820Y-90957998D01*
X180645506Y-91016963D01*
X180548815Y-91096315D01*
X180469463Y-91193006D01*
X180410498Y-91303320D01*
X180374188Y-91423018D01*
X180361928Y-91547500D01*
X180361928Y-92662192D01*
X180135000Y-92435264D01*
X180135000Y-91580319D01*
X180142911Y-91500000D01*
X180135000Y-91419678D01*
X180111343Y-91179484D01*
X180017852Y-90871285D01*
X179866031Y-90587248D01*
X179661714Y-90338286D01*
X179599319Y-90287080D01*
X173364586Y-84052348D01*
X173392012Y-84011302D01*
X173432346Y-83913927D01*
X173482026Y-83820982D01*
X173512619Y-83720131D01*
X173552953Y-83622756D01*
X173573515Y-83519384D01*
X173604108Y-83418533D01*
X173614438Y-83313651D01*
X173635000Y-83210279D01*
X173635000Y-77789721D01*
X173614438Y-77686349D01*
X173604108Y-77581467D01*
X173573515Y-77480616D01*
X173552953Y-77377244D01*
X173512619Y-77279869D01*
X173482026Y-77179018D01*
X173432346Y-77086073D01*
X173392012Y-76988698D01*
X173333457Y-76901064D01*
X173283777Y-76808119D01*
X173216919Y-76726653D01*
X173158363Y-76639017D01*
X173154346Y-76635000D01*
X173865000Y-76635000D01*
X173865000Y-77870559D01*
X173865001Y-83129442D01*
X173903128Y-83516550D01*
X174053800Y-84013250D01*
X174298478Y-84471011D01*
X174627760Y-84872241D01*
X175028990Y-85201523D01*
X175486751Y-85446201D01*
X175983451Y-85596873D01*
X176500000Y-85647749D01*
X177016550Y-85596873D01*
X177513250Y-85446201D01*
X177971011Y-85201523D01*
X178372241Y-84872241D01*
X178697664Y-84475713D01*
X180551789Y-84475713D01*
X180745191Y-84673491D01*
X181086176Y-84788591D01*
X181443065Y-84834956D01*
X181802141Y-84810806D01*
X182149606Y-84717067D01*
X182254809Y-84673491D01*
X182448211Y-84475713D01*
X181500000Y-83527502D01*
X180551789Y-84475713D01*
X178697664Y-84475713D01*
X178701523Y-84471011D01*
X178946201Y-84013250D01*
X179096873Y-83516550D01*
X179135000Y-83129442D01*
X179135000Y-82943065D01*
X179665044Y-82943065D01*
X179689194Y-83302141D01*
X179782933Y-83649606D01*
X179826509Y-83754809D01*
X180024287Y-83948211D01*
X180972498Y-83000000D01*
X182027502Y-83000000D01*
X182975713Y-83948211D01*
X183173491Y-83754809D01*
X183288591Y-83413824D01*
X183334956Y-83056935D01*
X183310806Y-82697859D01*
X183217067Y-82350394D01*
X183173491Y-82245191D01*
X182975713Y-82051789D01*
X182027502Y-83000000D01*
X180972498Y-83000000D01*
X180024287Y-82051789D01*
X179826509Y-82245191D01*
X179711409Y-82586176D01*
X179665044Y-82943065D01*
X179135000Y-82943065D01*
X179135000Y-81524287D01*
X180551789Y-81524287D01*
X181500000Y-82472498D01*
X182448211Y-81524287D01*
X182254809Y-81326509D01*
X181913824Y-81211409D01*
X181556935Y-81165044D01*
X181197859Y-81189194D01*
X180850394Y-81282933D01*
X180745191Y-81326509D01*
X180551789Y-81524287D01*
X179135000Y-81524287D01*
X179135000Y-79475713D01*
X180551789Y-79475713D01*
X180745191Y-79673491D01*
X181086176Y-79788591D01*
X181443065Y-79834956D01*
X181802141Y-79810806D01*
X182149606Y-79717067D01*
X182254809Y-79673491D01*
X182448211Y-79475713D01*
X181500000Y-78527502D01*
X180551789Y-79475713D01*
X179135000Y-79475713D01*
X179135000Y-77943065D01*
X179665044Y-77943065D01*
X179689194Y-78302141D01*
X179782933Y-78649606D01*
X179826509Y-78754809D01*
X180024287Y-78948211D01*
X180972498Y-78000000D01*
X182027502Y-78000000D01*
X182975713Y-78948211D01*
X183173491Y-78754809D01*
X183288591Y-78413824D01*
X183334956Y-78056935D01*
X183310806Y-77697859D01*
X183217067Y-77350394D01*
X183173491Y-77245191D01*
X182975713Y-77051789D01*
X182027502Y-78000000D01*
X180972498Y-78000000D01*
X180024287Y-77051789D01*
X179826509Y-77245191D01*
X179711409Y-77586176D01*
X179665044Y-77943065D01*
X179135000Y-77943065D01*
X179135000Y-76635000D01*
X180662502Y-76635000D01*
X181500000Y-77472498D01*
X182337498Y-76635000D01*
X183865000Y-76635000D01*
X183865000Y-77870559D01*
X183865001Y-83129442D01*
X183903128Y-83516550D01*
X184053800Y-84013250D01*
X184298478Y-84471011D01*
X184627760Y-84872241D01*
X185028990Y-85201523D01*
X185486751Y-85446201D01*
X185983451Y-85596873D01*
X186500000Y-85647749D01*
X187016550Y-85596873D01*
X187513250Y-85446201D01*
X187971011Y-85201523D01*
X188372241Y-84872241D01*
X188701523Y-84471011D01*
X188946201Y-84013250D01*
X189096873Y-83516550D01*
X189135000Y-83129442D01*
X189135000Y-73370558D01*
X189125546Y-73274567D01*
X189152588Y-73000000D01*
X189082405Y-72287415D01*
X188874551Y-71602215D01*
X188537016Y-70970731D01*
X188082770Y-70417230D01*
X187529269Y-69962984D01*
X186897785Y-69625449D01*
X186212585Y-69417595D01*
X185678575Y-69365000D01*
X142321425Y-69365000D01*
X141787415Y-69417595D01*
X141102215Y-69625449D01*
X140470731Y-69962984D01*
X139917230Y-70417230D01*
X139462984Y-70970731D01*
X139125449Y-71602215D01*
X138917595Y-72287415D01*
X138847412Y-73000000D01*
X138865001Y-73178585D01*
X138865001Y-74613422D01*
X138627000Y-74375421D01*
X138627000Y-70004530D01*
X138646385Y-69733496D01*
X138703181Y-69472407D01*
X138796556Y-69222060D01*
X138924605Y-68987555D01*
X139084724Y-68773662D01*
X139273662Y-68584724D01*
X139487555Y-68424605D01*
X139722060Y-68296556D01*
X139972407Y-68203181D01*
X140170908Y-68160000D01*
X186967721Y-68160000D01*
X187453893Y-68207670D01*
G37*
%TD.AperFunction*%
M02*
