%TF.GenerationSoftware,KiCad,Pcbnew,(5.1.7)-1*%
%TF.CreationDate,2020-11-01T18:23:12+02:00*%
%TF.ProjectId,esp32_mc_dimmer,65737033-325f-46d6-935f-64696d6d6572,rev?*%
%TF.SameCoordinates,Original*%
%TF.FileFunction,Soldermask,Bot*%
%TF.FilePolarity,Negative*%
%FSLAX46Y46*%
G04 Gerber Fmt 4.6, Leading zero omitted, Abs format (unit mm)*
G04 Created by KiCad (PCBNEW (5.1.7)-1) date 2020-11-01 18:23:12*
%MOMM*%
%LPD*%
G01*
G04 APERTURE LIST*
%ADD10C,0.100000*%
%ADD11O,2.102000X2.602000*%
%ADD12C,3.102000*%
%ADD13O,1.702000X2.102000*%
%ADD14C,1.702000*%
%ADD15O,1.802000X1.802000*%
%ADD16O,2.502000X2.502000*%
%ADD17C,2.502000*%
%ADD18O,2.102000X2.007000*%
G04 APERTURE END LIST*
D10*
G36*
X188500000Y-100500000D02*
G01*
X185500000Y-100500000D01*
X185500000Y-86500000D01*
X188500000Y-86500000D01*
X188500000Y-100500000D01*
G37*
X188500000Y-100500000D02*
X185500000Y-100500000D01*
X185500000Y-86500000D01*
X188500000Y-86500000D01*
X188500000Y-100500000D01*
G36*
X188500000Y-104000000D02*
G01*
X139000000Y-104000000D01*
X139000000Y-101000000D01*
X188500000Y-101000000D01*
X188500000Y-104000000D01*
G37*
X188500000Y-104000000D02*
X139000000Y-104000000D01*
X139000000Y-101000000D01*
X188500000Y-101000000D01*
X188500000Y-104000000D01*
G36*
X188500000Y-100500000D02*
G01*
X185500000Y-100500000D01*
X185500000Y-86500000D01*
X188500000Y-86500000D01*
X188500000Y-100500000D01*
G37*
X188500000Y-100500000D02*
X185500000Y-100500000D01*
X185500000Y-86500000D01*
X188500000Y-86500000D01*
X188500000Y-100500000D01*
G36*
X188500000Y-104000000D02*
G01*
X139000000Y-104000000D01*
X139000000Y-101000000D01*
X188500000Y-101000000D01*
X188500000Y-104000000D01*
G37*
X188500000Y-104000000D02*
X139000000Y-104000000D01*
X139000000Y-101000000D01*
X188500000Y-101000000D01*
X188500000Y-104000000D01*
G36*
G01*
X132985000Y-101819000D02*
X134985000Y-101819000D01*
G75*
G02*
X135036000Y-101870000I0J-51000D01*
G01*
X135036000Y-103870000D01*
G75*
G02*
X134985000Y-103921000I-51000J0D01*
G01*
X132985000Y-103921000D01*
G75*
G02*
X132934000Y-103870000I0J51000D01*
G01*
X132934000Y-101870000D01*
G75*
G02*
X132985000Y-101819000I51000J0D01*
G01*
G37*
D11*
X131445000Y-102870000D03*
X128905000Y-102870000D03*
X126365000Y-102870000D03*
D12*
X141500000Y-78000000D03*
X141500000Y-83000000D03*
X146500000Y-78000000D03*
X146500000Y-83000000D03*
X151500000Y-78000000D03*
X151500000Y-83000000D03*
X156500000Y-78000000D03*
X156500000Y-83000000D03*
X161500000Y-78000000D03*
X161500000Y-83000000D03*
X166500000Y-78000000D03*
X166500000Y-83000000D03*
X171500000Y-78000000D03*
X171500000Y-83000000D03*
X176500000Y-78000000D03*
X176500000Y-83000000D03*
X181500000Y-78000000D03*
X181500000Y-83000000D03*
X186500000Y-78000000D03*
X186500000Y-83000000D03*
D13*
X148220000Y-106800000D03*
X148220000Y-132200000D03*
X150760000Y-106800000D03*
X150760000Y-132200000D03*
X153300000Y-106800000D03*
X153300000Y-132200000D03*
X155840000Y-106800000D03*
X155840000Y-132200000D03*
X158380000Y-106800000D03*
X158380000Y-132200000D03*
X160920000Y-106800000D03*
X160920000Y-132200000D03*
X163460000Y-106800000D03*
X163460000Y-132200000D03*
X166000000Y-106800000D03*
X166000000Y-132200000D03*
X168540000Y-106800000D03*
X168540000Y-132200000D03*
X171080000Y-106800000D03*
X171080000Y-132200000D03*
X173620000Y-106800000D03*
X173620000Y-132200000D03*
X176160000Y-106800000D03*
X176160000Y-132200000D03*
X178700000Y-106800000D03*
X178700000Y-132200000D03*
X181240000Y-106800000D03*
X181240000Y-132200000D03*
X183780000Y-106800000D03*
X183780000Y-132200000D03*
D14*
X127305000Y-83815937D03*
G36*
G01*
X129705000Y-79123063D02*
X131305000Y-79123063D01*
G75*
G02*
X131356000Y-79174063I0J-51000D01*
G01*
X131356000Y-80774063D01*
G75*
G02*
X131305000Y-80825063I-51000J0D01*
G01*
X129705000Y-80825063D01*
G75*
G02*
X129654000Y-80774063I0J51000D01*
G01*
X129654000Y-79174063D01*
G75*
G02*
X129705000Y-79123063I51000J0D01*
G01*
G37*
X128905000Y-83145000D03*
G36*
G01*
X128105000Y-79794000D02*
X129705000Y-79794000D01*
G75*
G02*
X129756000Y-79845000I0J-51000D01*
G01*
X129756000Y-81445000D01*
G75*
G02*
X129705000Y-81496000I-51000J0D01*
G01*
X128105000Y-81496000D01*
G75*
G02*
X128054000Y-81445000I0J51000D01*
G01*
X128054000Y-79845000D01*
G75*
G02*
X128105000Y-79794000I51000J0D01*
G01*
G37*
D15*
X143510000Y-121920000D03*
X146050000Y-121920000D03*
X148590000Y-121920000D03*
X151130000Y-121920000D03*
X153670000Y-121920000D03*
G36*
G01*
X155360000Y-121019000D02*
X157060000Y-121019000D01*
G75*
G02*
X157111000Y-121070000I0J-51000D01*
G01*
X157111000Y-122770000D01*
G75*
G02*
X157060000Y-122821000I-51000J0D01*
G01*
X155360000Y-122821000D01*
G75*
G02*
X155309000Y-122770000I0J51000D01*
G01*
X155309000Y-121070000D01*
G75*
G02*
X155360000Y-121019000I51000J0D01*
G01*
G37*
X143510000Y-125476000D03*
X146050000Y-125476000D03*
X148590000Y-125476000D03*
X151130000Y-125476000D03*
X153670000Y-125476000D03*
G36*
G01*
X155360000Y-124575000D02*
X157060000Y-124575000D01*
G75*
G02*
X157111000Y-124626000I0J-51000D01*
G01*
X157111000Y-126326000D01*
G75*
G02*
X157060000Y-126377000I-51000J0D01*
G01*
X155360000Y-126377000D01*
G75*
G02*
X155309000Y-126326000I0J51000D01*
G01*
X155309000Y-124626000D01*
G75*
G02*
X155360000Y-124575000I51000J0D01*
G01*
G37*
X143040000Y-132000000D03*
G36*
G01*
X141350000Y-132901000D02*
X139650000Y-132901000D01*
G75*
G02*
X139599000Y-132850000I0J51000D01*
G01*
X139599000Y-131150000D01*
G75*
G02*
X139650000Y-131099000I51000J0D01*
G01*
X141350000Y-131099000D01*
G75*
G02*
X141401000Y-131150000I0J-51000D01*
G01*
X141401000Y-132850000D01*
G75*
G02*
X141350000Y-132901000I-51000J0D01*
G01*
G37*
D16*
X127920000Y-72000000D03*
D17*
X133000000Y-72000000D03*
D10*
G36*
X134784950Y-75699980D02*
G01*
X134794517Y-75702882D01*
X134803334Y-75707595D01*
X134811062Y-75713938D01*
X134817435Y-75721710D01*
X135317435Y-76471710D01*
X135322138Y-76480532D01*
X135325030Y-76490103D01*
X135326000Y-76500053D01*
X135325010Y-76510002D01*
X135322097Y-76519566D01*
X135317435Y-76528290D01*
X134817435Y-77278290D01*
X134811100Y-77286025D01*
X134803378Y-77292375D01*
X134794566Y-77297097D01*
X134785002Y-77300010D01*
X134775000Y-77301000D01*
X133775000Y-77301000D01*
X133765050Y-77300020D01*
X133755483Y-77297118D01*
X133746666Y-77292405D01*
X133738938Y-77286062D01*
X133732595Y-77278334D01*
X133727882Y-77269517D01*
X133724980Y-77259950D01*
X133724000Y-77250000D01*
X133724000Y-75750000D01*
X133724980Y-75740050D01*
X133727882Y-75730483D01*
X133732595Y-75721666D01*
X133738938Y-75713938D01*
X133746666Y-75707595D01*
X133755483Y-75702882D01*
X133765050Y-75699980D01*
X133775000Y-75699000D01*
X134775000Y-75699000D01*
X134784950Y-75699980D01*
G37*
G36*
X136234950Y-75699980D02*
G01*
X136244517Y-75702882D01*
X136253334Y-75707595D01*
X136261062Y-75713938D01*
X136267405Y-75721666D01*
X136272118Y-75730483D01*
X136275020Y-75740050D01*
X136276000Y-75750000D01*
X136276000Y-77250000D01*
X136275020Y-77259950D01*
X136272118Y-77269517D01*
X136267405Y-77278334D01*
X136261062Y-77286062D01*
X136253334Y-77292405D01*
X136244517Y-77297118D01*
X136234950Y-77300020D01*
X136225000Y-77301000D01*
X135075000Y-77301000D01*
X135065050Y-77300020D01*
X135055483Y-77297118D01*
X135046666Y-77292405D01*
X135038938Y-77286062D01*
X135032595Y-77278334D01*
X135027882Y-77269517D01*
X135024980Y-77259950D01*
X135024000Y-77250000D01*
X135024980Y-77240050D01*
X135027882Y-77230483D01*
X135032565Y-77221710D01*
X135513705Y-76500000D01*
X135032565Y-75778290D01*
X135027862Y-75769468D01*
X135024970Y-75759897D01*
X135024000Y-75749947D01*
X135024990Y-75739998D01*
X135027903Y-75730434D01*
X135032625Y-75721622D01*
X135038975Y-75713900D01*
X135046710Y-75707565D01*
X135055532Y-75702862D01*
X135065103Y-75699970D01*
X135075000Y-75699000D01*
X136225000Y-75699000D01*
X136234950Y-75699980D01*
G37*
D18*
X182000000Y-97580000D03*
X182000000Y-95040000D03*
G36*
G01*
X181000000Y-91496500D02*
X183000000Y-91496500D01*
G75*
G02*
X183051000Y-91547500I0J-51000D01*
G01*
X183051000Y-93452500D01*
G75*
G02*
X183000000Y-93503500I-51000J0D01*
G01*
X181000000Y-93503500D01*
G75*
G02*
X180949000Y-93452500I0J51000D01*
G01*
X180949000Y-91547500D01*
G75*
G02*
X181000000Y-91496500I51000J0D01*
G01*
G37*
X174000000Y-97580000D03*
X174000000Y-95040000D03*
G36*
G01*
X173000000Y-91496500D02*
X175000000Y-91496500D01*
G75*
G02*
X175051000Y-91547500I0J-51000D01*
G01*
X175051000Y-93452500D01*
G75*
G02*
X175000000Y-93503500I-51000J0D01*
G01*
X173000000Y-93503500D01*
G75*
G02*
X172949000Y-93452500I0J51000D01*
G01*
X172949000Y-91547500D01*
G75*
G02*
X173000000Y-91496500I51000J0D01*
G01*
G37*
X166000000Y-97580000D03*
X166000000Y-95040000D03*
G36*
G01*
X165000000Y-91496500D02*
X167000000Y-91496500D01*
G75*
G02*
X167051000Y-91547500I0J-51000D01*
G01*
X167051000Y-93452500D01*
G75*
G02*
X167000000Y-93503500I-51000J0D01*
G01*
X165000000Y-93503500D01*
G75*
G02*
X164949000Y-93452500I0J51000D01*
G01*
X164949000Y-91547500D01*
G75*
G02*
X165000000Y-91496500I51000J0D01*
G01*
G37*
X158000000Y-97580000D03*
X158000000Y-95040000D03*
G36*
G01*
X157000000Y-91496500D02*
X159000000Y-91496500D01*
G75*
G02*
X159051000Y-91547500I0J-51000D01*
G01*
X159051000Y-93452500D01*
G75*
G02*
X159000000Y-93503500I-51000J0D01*
G01*
X157000000Y-93503500D01*
G75*
G02*
X156949000Y-93452500I0J51000D01*
G01*
X156949000Y-91547500D01*
G75*
G02*
X157000000Y-91496500I51000J0D01*
G01*
G37*
X150000000Y-97580000D03*
X150000000Y-95040000D03*
G36*
G01*
X149000000Y-91496500D02*
X151000000Y-91496500D01*
G75*
G02*
X151051000Y-91547500I0J-51000D01*
G01*
X151051000Y-93452500D01*
G75*
G02*
X151000000Y-93503500I-51000J0D01*
G01*
X149000000Y-93503500D01*
G75*
G02*
X148949000Y-93452500I0J51000D01*
G01*
X148949000Y-91547500D01*
G75*
G02*
X149000000Y-91496500I51000J0D01*
G01*
G37*
X142000000Y-97580000D03*
X142000000Y-95040000D03*
G36*
G01*
X141000000Y-91496500D02*
X143000000Y-91496500D01*
G75*
G02*
X143051000Y-91547500I0J-51000D01*
G01*
X143051000Y-93452500D01*
G75*
G02*
X143000000Y-93503500I-51000J0D01*
G01*
X141000000Y-93503500D01*
G75*
G02*
X140949000Y-93452500I0J51000D01*
G01*
X140949000Y-91547500D01*
G75*
G02*
X141000000Y-91496500I51000J0D01*
G01*
G37*
D15*
X127000000Y-132200000D03*
X127000000Y-129660000D03*
X127000000Y-127120000D03*
X127000000Y-124580000D03*
X127000000Y-122040000D03*
G36*
G01*
X126099000Y-120350000D02*
X126099000Y-118650000D01*
G75*
G02*
X126150000Y-118599000I51000J0D01*
G01*
X127850000Y-118599000D01*
G75*
G02*
X127901000Y-118650000I0J-51000D01*
G01*
X127901000Y-120350000D01*
G75*
G02*
X127850000Y-120401000I-51000J0D01*
G01*
X126150000Y-120401000D01*
G75*
G02*
X126099000Y-120350000I0J51000D01*
G01*
G37*
D10*
G36*
X128059263Y-83075500D02*
G01*
X128060098Y-83077126D01*
X128060098Y-83228214D01*
X128092568Y-83391450D01*
X128156258Y-83545212D01*
X128248722Y-83683595D01*
X128361345Y-83796218D01*
X128361863Y-83798150D01*
X128360449Y-83799564D01*
X128358662Y-83799178D01*
X128344629Y-83787661D01*
X128323365Y-83776296D01*
X128300290Y-83769296D01*
X128276299Y-83766933D01*
X128252308Y-83769296D01*
X128229233Y-83776296D01*
X128207969Y-83787661D01*
X128189332Y-83802956D01*
X128174037Y-83821593D01*
X128162672Y-83842857D01*
X128155672Y-83865932D01*
X128153892Y-83884007D01*
X128152727Y-83885633D01*
X128150737Y-83885437D01*
X128149902Y-83883811D01*
X128149902Y-83732723D01*
X128117432Y-83569487D01*
X128053742Y-83415725D01*
X127961278Y-83277342D01*
X127848655Y-83164719D01*
X127848137Y-83162787D01*
X127849551Y-83161373D01*
X127851338Y-83161759D01*
X127865371Y-83173276D01*
X127886635Y-83184641D01*
X127909710Y-83191641D01*
X127933701Y-83194004D01*
X127957692Y-83191641D01*
X127980767Y-83184641D01*
X128002031Y-83173276D01*
X128020668Y-83157981D01*
X128035963Y-83139344D01*
X128047328Y-83118080D01*
X128054328Y-83095005D01*
X128056108Y-83076930D01*
X128057273Y-83075304D01*
X128059263Y-83075500D01*
G37*
G36*
X135033041Y-75723638D02*
G01*
X135032931Y-75725286D01*
X135029758Y-75731207D01*
X135026960Y-75740392D01*
X135026010Y-75749946D01*
X135026942Y-75759507D01*
X135029720Y-75768702D01*
X135034286Y-75777267D01*
X135515369Y-76498891D01*
X135515369Y-76501109D01*
X135034283Y-77222737D01*
X135029740Y-77231249D01*
X135026950Y-77240445D01*
X135026009Y-77250000D01*
X135026950Y-77259555D01*
X135029739Y-77268748D01*
X135032904Y-77274668D01*
X135032838Y-77276667D01*
X135031075Y-77277610D01*
X135029594Y-77276880D01*
X135028125Y-77275091D01*
X135028008Y-77274933D01*
X135020474Y-77263657D01*
X135003426Y-77246611D01*
X134983379Y-77233216D01*
X134961105Y-77223990D01*
X134937455Y-77219286D01*
X134913349Y-77219286D01*
X134889698Y-77223991D01*
X134867425Y-77233217D01*
X134847377Y-77246612D01*
X134830298Y-77263693D01*
X134823010Y-77273529D01*
X134821175Y-77274325D01*
X134819568Y-77273134D01*
X134819739Y-77271229D01*
X135315714Y-76527266D01*
X135320241Y-76518794D01*
X135323040Y-76509608D01*
X135323990Y-76500053D01*
X135323058Y-76490493D01*
X135320280Y-76481298D01*
X135315714Y-76472733D01*
X134819741Y-75728774D01*
X134819612Y-75726779D01*
X134821276Y-75725669D01*
X134822952Y-75726398D01*
X134838351Y-75745202D01*
X134856973Y-75760517D01*
X134878227Y-75771907D01*
X134901290Y-75778930D01*
X134925278Y-75781317D01*
X134949282Y-75778979D01*
X134972354Y-75772006D01*
X134993635Y-75760659D01*
X135012247Y-75745418D01*
X135023579Y-75730171D01*
X135023896Y-75730034D01*
X135029623Y-75723071D01*
X135031496Y-75722368D01*
X135033041Y-75723638D01*
G37*
M02*
